<svg xmlns="http://www.w3.org/2000/svg" viewBox="0 0 646.1 95.7" enable-background="new 0 0 646.1 95.7"><g fill="#fff"><path d="M110.1 58.3L96.5 24.7h7.9l6.3 17.6 6.8-18.6h.6l6.9 18.6 6.3-17.6h7.3l-13.5 33.6h-.5l-7-18.6-6.8 18.6h-.7zM139.4 29.4c0-1.1.4-2 1.1-2.7.8-.7 1.7-1.1 2.7-1.1 1.1 0 2 .4 2.8 1.1.7.7 1.1 1.7 1.1 2.7 0 1.1-.4 2-1.1 2.8-.8.8-1.7 1.1-2.7 1.1-1.1 0-2-.4-2.7-1.2-.8-.7-1.2-1.6-1.2-2.7zm7.5 27.8h-7.1V37l7.1-1v21.2zM158.4 57.2h-7V37h6.5v3.4c1.1-1.3 2.2-2.3 3.4-3 1.2-.7 2.5-1 4-1 2.1 0 3.8.6 4.9 1.8 1.1 1.2 1.7 3 1.7 5.4v13.6h-7V45.6c0-1.1-.2-1.9-.7-2.4-.4-.5-1.1-.8-1.9-.8-1.2 0-2.2.4-2.8 1.2-.7.8-1 2-1 3.6v10zM193.8 56.1c-1.2.7-2.5 1.2-3.7 1.6-1.2.3-2.4.5-3.7.5-3.4 0-6.1-1-8.3-3-2.2-2-3.2-4.6-3.2-7.7 0-3.2 1.2-5.9 3.5-8.1 2.3-2.2 5.2-3.3 8.8-3.3 1.3 0 2.5.1 3.8.4 1.2.3 2.4.7 3.5 1.3l-.8 6.3c-1.1-.7-2.2-1.2-3.2-1.5-1-.4-2-.5-2.9-.5-1.6 0-2.9.5-4 1.4-1 1-1.6 2.2-1.6 3.6 0 1.5.5 2.8 1.5 3.7 1 .9 2.3 1.4 3.8 1.4 1 0 2-.2 3.2-.6 1.1-.4 2.4-1.1 3.9-2.1l-.6 6.6zM204.7 57.2h-7v-32l7-1v15.6c1-1.2 2.1-2 3.2-2.6 1.1-.6 2.4-.8 3.7-.8 2.1 0 3.8.6 4.9 1.8 1.1 1.2 1.7 3 1.7 5.4v13.6h-7V45.6c0-1.1-.2-1.9-.7-2.4-.4-.5-1.1-.8-1.9-.8-1.2 0-2.2.4-2.8 1.2-.7.8-1 2-1 3.6v10zM241.4 50l-.8 6.3c-1.4.7-2.7 1.1-4.1 1.5-1.3.3-2.7.5-4 .5-3.4 0-6.1-1-8.2-2.9-2.1-1.9-3.1-4.5-3.1-7.6 0-3.3 1.1-6 3.4-8.2 2.3-2.2 5-3.4 8.2-3.4 2.8 0 5 .8 6.8 2.5 1.8 1.6 2.7 3.8 2.7 6.4 0 .4 0 1-.1 1.9v.1l-.6.9-13.8.4c.1 1.4.7 2.5 1.7 3.3 1 .9 2.3 1.3 3.9 1.3 1.1 0 2.3-.2 3.7-.7 1.4-.7 2.8-1.4 4.3-2.3zM228 45.2l8.8-.3v-.3c0-1.1-.4-1.9-1.1-2.6-.7-.7-1.7-1-2.8-1-1.3 0-2.3.4-3.2 1.1-1 .7-1.5 1.7-1.7 3.1zM245.5 56.3v-5.5c1.8 1.1 3.2 1.9 4.2 2.3 1 .4 1.9.6 2.8.6.7 0 1.3-.2 1.8-.5s.7-.7.7-1.3c0-.4-.2-.8-.5-1.1-.3-.3-.9-.6-1.6-.8l-2.6-.9c-1.7-.6-3-1.4-3.9-2.5-.9-1.1-1.3-2.3-1.3-3.7 0-2 .7-3.7 2.1-4.9 1.4-1.2 3.3-1.9 5.7-1.9 1.1 0 2.3.2 3.5.5 1.2.3 2.6.8 4.1 1.4l-.9 4.9c-.9-.8-1.9-1.4-2.9-1.8-1.1-.4-2.1-.6-3-.6-.7 0-1.2.2-1.7.5-.4.3-.7.7-.7 1.2 0 .4.1.7.4 1 .2.2.8.5 1.7.8l2.4.9c1.9.7 3.3 1.5 4.1 2.4.8 1 1.2 2.2 1.2 3.7 0 2.2-.7 4-2.2 5.3-1.5 1.3-3.5 1.9-6 1.9-1.2 0-2.4-.2-3.6-.5-1.4-.3-2.6-.8-3.8-1.4zM265.4 50.4v-8.1h-2.9V37h2.9v-6l7.2-1v7h4.8v5.3h-4.8v8.6c0 1.8.2 3.2.7 4 .5.8 1.4 1.6 2.8 2.3l-8 .5c-1-.5-1.7-1.2-2.1-2.1-.4-1-.6-2.8-.6-5.2zM298.6 50l-.8 6.3c-1.4.7-2.7 1.1-4.1 1.5-1.3.3-2.7.5-4 .5-3.4 0-6.1-1-8.2-2.9-2.1-1.9-3.1-4.5-3.1-7.6 0-3.3 1.1-6 3.4-8.2 2.3-2.2 5-3.4 8.2-3.4 2.8 0 5 .8 6.8 2.5 1.8 1.6 2.7 3.8 2.7 6.4 0 .4 0 1-.1 1.9v.1l-.6.9-13.8.2c.1 1.4.7 2.5 1.7 3.3 1 .9 2.3 1.3 3.9 1.3 1.1 0 2.3-.2 3.7-.7 1.4-.5 2.8-1.2 4.3-2.1zm-13.5-4.8l8.8-.3v-.3c0-1.1-.4-1.9-1.1-2.6-.7-.7-1.7-1-2.8-1-1.3 0-2.3.4-3.2 1.1-.9.7-1.4 1.7-1.7 3.1zM309.8 57.2h-7.1V37h6.6l.1 3.6c.8-1.4 1.8-2.5 2.9-3.1 1.1-.6 2.4-1 4.1-1h.6V44h-1.5c-2.2 0-3.7.3-4.5.8-.8.5-1.1 1.7-1.1 3.6v8.8zM337.7 57.2V31.5h-10.4v-6.8h28.4v6.8h-10.3v25.7h-7.7zM364.7 57.2h-7v-32l7-1v15.6c1-1.2 2.1-2 3.2-2.6 1.1-.6 2.4-.8 3.7-.8 2.1 0 3.8.6 4.9 1.8 1.1 1.2 1.7 3 1.7 5.4v13.6h-7V45.6c0-1.1-.2-1.9-.7-2.4-.4-.5-1.1-.8-1.9-.8-1.2 0-2.2.4-2.8 1.2-.7.8-1 2-1 3.6v10zM395.6 37h7v20.2l-6.5.9v-4c-1.1 1.3-2.2 2.3-3.4 3-1.2.6-2.5 1-3.9 1-2.1 0-3.8-.6-4.9-1.8-1.1-1.2-1.7-3-1.7-5.4V37h7v12c0 1.1.2 1.9.7 2.4.4.5 1.1.8 1.9.8 1.2 0 2.2-.4 2.8-1.2.7-.8 1-2 1-3.6V37zM414.1 57.2H407V37h6.6l.1 3.6c.8-1.4 1.8-2.5 2.9-3.1 1.1-.6 2.4-1 4.1-1h.6V44h-1.5c-2.2 0-3.7.3-4.5.8-.8.5-1.1 1.7-1.1 3.6v8.8zM424 56.3v-5.5c1.8 1.1 3.2 1.9 4.2 2.3 1 .4 1.9.6 2.8.6.7 0 1.3-.2 1.8-.5s.7-.7.7-1.3c0-.4-.2-.8-.5-1.1-.3-.3-.9-.6-1.6-.8l-2.6-.9c-1.7-.6-3-1.4-3.9-2.5-.9-1.1-1.3-2.3-1.3-3.7 0-2 .7-3.7 2.1-4.9 1.4-1.2 3.3-1.9 5.7-1.9 1.1 0 2.3.2 3.5.5 1.2.3 2.6.8 4.1 1.4l-.9 4.9c-.9-.8-1.9-1.4-2.9-1.8-1.1-.4-2.1-.6-3-.6-.7 0-1.2.2-1.7.5-.4.3-.7.7-.7 1.2 0 .4.1.7.4 1 .2.2.8.5 1.7.8l2.4.9c1.9.7 3.3 1.5 4.1 2.4.8 1 1.2 2.2 1.2 3.7 0 2.2-.7 4-2.2 5.3-1.5 1.3-3.5 1.9-6 1.9-1.2 0-2.4-.2-3.6-.5-1.4-.3-2.6-.8-3.8-1.4zM443.9 50.4v-8.1H441V37h2.9v-6l7.2-1v7h4.8v5.3h-4.8v8.6c0 1.8.2 3.2.7 4 .5.8 1.4 1.6 2.8 2.3l-8 .5c-1-.5-1.7-1.2-2.1-2.1-.4-1-.6-2.8-.6-5.2zM456.9 47.1c0-3.2 1.1-5.9 3.2-7.9 2.1-2.1 4.8-3.1 8-3.1s5.9 1 8 3.1c2.1 2.1 3.2 4.7 3.2 7.9s-1.1 5.9-3.2 7.9c-2.1 2.1-4.8 3.1-8 3.1s-5.9-1-8-3.1c-2.2-2.1-3.2-4.7-3.2-7.9zm7.2 0c0 1.7.4 3.1 1.1 4.1.7 1 1.7 1.6 2.8 1.6 1.1 0 2.1-.5 2.8-1.6.7-1.1 1.1-2.4 1.1-4.1 0-1.7-.4-3.1-1.1-4.1-.7-1.1-1.7-1.6-2.8-1.6-1.1 0-2.1.5-2.8 1.6-.7 1-1.1 2.4-1.1 4.1zM489.5 57.2h-7V37h6.5v3.4c1.1-1.3 2.2-2.3 3.4-3 1.2-.7 2.5-1 4-1 2.1 0 3.8.6 4.9 1.8 1.1 1.2 1.7 3 1.7 5.4v13.6h-7V45.6c0-1.1-.2-1.9-.7-2.4-.4-.5-1.1-.8-1.9-.8-1.2 0-2.2.4-2.8 1.2-.7.8-1 2-1 3.6v10zM519.2 48c2 1.2 3.7 2.1 5.1 2.6 1.4.5 2.8.7 4.1.7 1.3 0 2.4-.3 3.2-.9.8-.6 1.2-1.4 1.2-2.3 0-1.3-1.5-2.8-4.4-4.5-.5-.3-.8-.5-1.1-.6l-2.2-1.2c-2.1-1.2-3.7-2.6-4.7-4.1-1-1.5-1.5-3.3-1.5-5.2 0-2.6 1-4.8 3-6.5 2-1.7 4.5-2.5 7.7-2.5 1.2 0 2.4.1 3.8.4 1.3.3 2.8.7 4.5 1.3v7.7c-1.6-1-3.1-1.8-4.5-2.3-1.4-.5-2.6-.8-3.6-.8-1.1 0-2 .2-2.6.7-.6.5-.9 1.1-.9 1.9 0 .6.2 1.1.6 1.6.4.5.9.9 1.7 1.4l3.8 2.1c3.2 1.8 5.3 3.4 6.5 4.9 1.1 1.5 1.7 3.3 1.7 5.3 0 3.2-1.1 5.7-3.3 7.7-2.2 2-5 2.9-8.6 2.9-1.2 0-2.5-.1-4-.4-1.4-.3-3-.7-4.7-1.2l-.8-8.7zM561.9 56.1c-1.2.7-2.5 1.2-3.7 1.6-1.2.3-2.4.5-3.7.5-3.4 0-6.1-1-8.3-3-2.2-2-3.2-4.6-3.2-7.7 0-3.2 1.2-5.9 3.5-8.1 2.3-2.2 5.2-3.3 8.8-3.3 1.3 0 2.5.1 3.8.4 1.2.3 2.4.7 3.5 1.3l-.8 6.3c-1.1-.7-2.2-1.2-3.2-1.5-1-.4-2-.5-2.9-.5-1.6 0-2.9.5-4 1.4-1 1-1.6 2.2-1.6 3.6 0 1.5.5 2.8 1.5 3.7 1 .9 2.3 1.4 3.8 1.4 1 0 2-.2 3.2-.6 1.1-.4 2.4-1.1 3.9-2.1l-.6 6.6zM572.8 57.2h-7v-32l7-1v15.6c1-1.2 2.1-2 3.2-2.6 1.1-.6 2.4-.8 3.7-.8 2.1 0 3.8.6 4.9 1.8 1.1 1.2 1.7 3 1.7 5.4v13.6h-7V45.6c0-1.1-.2-1.9-.7-2.4-.4-.5-1.1-.8-1.9-.8-1.2 0-2.2.4-2.8 1.2s-1 2-1 3.6v10zM589.3 47.1c0-3.2 1.1-5.9 3.2-7.9 2.1-2.1 4.8-3.1 8-3.1s5.9 1 8 3.1c2.1 2.1 3.2 4.7 3.2 7.9s-1.1 5.9-3.2 7.9c-2.1 2.1-4.8 3.1-8 3.1s-5.9-1-8-3.1c-2.2-2.1-3.2-4.7-3.2-7.9zm7.2 0c0 1.7.4 3.1 1.1 4.1.7 1 1.7 1.6 2.8 1.6s2.1-.5 2.8-1.6c.7-1.1 1.1-2.4 1.1-4.1 0-1.7-.4-3.1-1.1-4.1-.7-1.1-1.7-1.6-2.8-1.6s-2.1.5-2.8 1.6c-.8 1-1.1 2.4-1.1 4.1zM613.6 47.1c0-3.2 1.1-5.9 3.2-7.9 2.1-2.1 4.8-3.1 8-3.1s5.9 1 8 3.1c2.1 2.1 3.2 4.7 3.2 7.9s-1.1 5.9-3.2 7.9c-2.1 2.1-4.8 3.1-8 3.1s-5.9-1-8-3.1c-2.2-2.1-3.2-4.7-3.2-7.9zm7.1 0c0 1.7.4 3.1 1.1 4.1.7 1 1.7 1.6 2.8 1.6 1.1 0 2.1-.5 2.8-1.6.7-1.1 1.1-2.4 1.1-4.1 0-1.7-.4-3.1-1.1-4.1-.7-1.1-1.7-1.6-2.8-1.6-1.1 0-2.1.5-2.8 1.6-.7 1-1.1 2.4-1.1 4.1zM646.1 57.2H639v-32l7.1-1v33z"/></g><path fill="#fff" d="M1.8 1.6h77.8v51L40.7 92 1.8 57.7z"/><path fill="#FFF200" d="M2.5 2.2v29.1L25.1 2.2H2.5z"/><path fill="#916CAF" d="M55.3 54.8s-1.2 5.5-4.2 9.9c-3.1 4.5-7.7 7.7-9 7.7-1.3.1-.2-1.6-1.5-4.2s-2.2-4.2-2.1-4.5c.3-.7 2.2-1.3 4.2-4.2 2-2.9 3.4-5.7 3.4-6.2.1-.6 2.8.9 4.3 1.1 1.5.1 4.3 0 4.9.4zM30.2 17.9s3.1-4.6 7.7-7.5C42.4 7.5 48.3 6.5 49.5 7c1.3.4-.4 1.5-.3 4.5.2 2.9.6 3.9.4 4.1-.2.2-3.1.4-6.1 2.3-3 1.9-5 4.4-5.2 4.9-.3.5-2.2-1.5-3.5-2.3-1.3-.8-4.2-2-4.6-2.6z"/><path d="M0 0v59.1l41.4 36.6 40-40.3V.1L0 0zm5.4 5.5h13.4L5.4 24.1V5.5zm70.5 47.7c-.7.7-8.3 8.3-16.2 16.3l1.5-7.7c4.4-5.1 12.9-15.2 12.6-15.2-.4 0-2.6.9-3.1.9s2.8-27.3 2.2-27.3c-.6 0-2.5 2.7-3.1 2.6S66.5 9.1 66 9.1s-1.2 4.4-1.6 4.6c-.4.1-4.7-7.3-5.3-7.2-.6.1-.5 11.5-1 11.8-.5.4-3.1-1.9-3.6-1.6-.5.3 8.1 16.3 7.7 16.6-.4.2-3.8-1.9-4.3-1.6-.5.2 8 17.3 7.8 17.9-.2.4-1.7 2.1-2.7 3.2l.7-3.5s0-.4-.3-1-7.4-13.9-8.6-16.9c0 0 2.6-3.8.3-8.3-1.5-3-4-4.6-4.5-4.9-.5-.3-.1-1.2-.7-1.4-.7-.2-3.8.8-6.2 2.4-2.4 1.6-4.1 4.1-4.3 4.8l.1.2c.1.6.4.6.6.8.1.2.2-.2.3 2.2.2 2.4 2.7 5.1 4.6 6.3 1.6 1 3.9.8 4.9.8.8 1.5 2.2 4.2 3.6 7 .2.6.4 1 .3 1.1-.3 0-17.7-15.4-17.9-15.4-.2.1.6 4.2.2 4.5-.3.2-4.9-6.4-5.2-6.1-.4.3 1.1 7 .9 7.1-.2.2-6.3 0-6.5.3-.1.3 4.3 4.5 4.3 4.9 0 .4-2.9 1.5-2.8 1.9.1.3 13.2 2.7 13.2 2.7s-2.8 2.5-2.8 2.8c-.1.3 12.4.8 12.4.8s-2.6 3.6-2.6 4c-.1.4 9.7-2.4 9.7-2.4s.3.4.6 1c.4.7.7 1.3.8 1.5.1.4-5.2 25.9-5.2 25.9s.1-.2.2-.5c-.1.4-.2.8-.2 1L41.1 88.2c-3.4-3-34-30.1-35.7-31.5V35.3l6.6 4.8-.2.2s-4.6 9.9-4.5 9.8c.2-.2 3.4 9.4 3.5 9.3.2-.1 1-3.9 1.2-4.3.2-.3 5.8 11.7 6.1 11.3.2-.4 1.9-3 2-3.3.1-.2 8 12 8.6 12.8.5.7 2.4-2.1 2.8-2.1.4 0 5.5 7.1 5.3 6.8-.2-.3 1.3-2.5 1.2-2.8-.1-.3 7.8 1.5 7.8 1.5s-10.4-11-10.5-11.4c-.1-.4 3.2-.6 3.3-.9.1-.4-15.5-11.3-15.7-11.7-.2-.3 2.2-3.3 2.2-3.3l-10.4-6.2s.9-2.7 1.3-2.2 9.4 5.9 11.6 8.2c0 0-1 4.5 2.9 7.8 2.5 2.2 5.4 2.1 6 2.2.6.1.4.6 1.1.5.7-.1 2.8-1.8 4.4-4.2 1.6-2.4 2.6-4.9 2.7-5.4l-.1-.1c-.3-.5-.6-.4-.8-.6-.2-.2.2.1-1.1-1.9-2.4-3.6-4.5-3.7-6.7-4-1.8-.3-3.9.8-4.8 1.2-2.7-2-9.3-6.8-15-10.9l.7-1.9s7.7.6 7.8.3c.1-.3-2.5-3-2.3-3.4.1-.3 7.3-2.8 7.3-3.2 0-.5-1.9-2.2-2.1-2.6-.2-.4 4.6-4.3 4.1-4.6-.4-.2-3.1-.1-3.6-.6-.4-.4 3.9-12.7 3.6-13-.3-.3-8.1 7.4-8.3 7.4-.2 0-1.6-1.9-2-1.8-.4.1-3.2 8.8-3.7 8.9-.4.1-1-2.3-1.4-2.2-.3.1-4 12-4.5 13.6-1.9-1.4-3.4-2.5-4.2-3.1C10 27 22 10.5 25.5 5.5c19.8 0 47.2.1 50.4.1v47.6z"/></svg>