<?xml version="1.0" encoding="UTF-8" standalone="no"?>
<svg width="150px" height="60px" viewBox="0 0 150 60" version="1.1" xmlns="http://www.w3.org/2000/svg" xmlns:xlink="http://www.w3.org/1999/xlink" xmlns:sketch="http://www.bohemiancoding.com/sketch/ns">
    <title>Slice 1</title>
    <description>Created with Sketch (http://www.bohemiancoding.com/sketch)</description>
    <defs></defs>
    <g id="Page-1" stroke="none" stroke-width="1" fill="none" fill-rule="evenodd" sketch:type="MSPage">
        <g id="CAOC-Logo-copy-+-Imported-Layers" sketch:type="MSLayerGroup">
            <g id="CAOC-Logo-copy" transform="translate(59.000000, 0.000000)" fill="#222222" sketch:type="MSShapeGroup">
                <path d="M0,14.8389427 C0,12.0923647 0.526172894,9.6128962 1.57801804,7.40028319 C2.62986319,5.18767019 4.25143693,3.40151763 6.44374055,2.04080892 C8.63529321,0.680608503 11.2341167,0 14.2399607,0 C15.7674141,0 17.3078841,0.228733253 18.8611205,0.686708056 C20.4141065,1.14442871 21.6539421,1.60240351 22.5808775,2.05987002 L23.9709051,2.78470029 C24.0460011,2.78470029 24.1711612,2.72141742 24.3466356,2.59408924 C24.5216094,2.46701521 24.6660441,2.4034782 24.7786881,2.4034782 C24.8915825,2.4034782 25.0099839,2.45481611 25.1356446,2.55622118 C25.2608047,2.65813455 25.3293924,2.94405112 25.3421587,3.41447918 C25.3544244,3.88541553 25.4044884,4.53374723 25.4926011,5.35998257 C25.5802132,6.18672621 25.6615672,6.86682642 25.7369136,7.40079149 C25.8120096,7.93475656 25.8495576,8.25320408 25.8495576,8.35435501 C25.8495576,8.81207566 25.6993655,9.04106307 25.3987311,9.04106307 C25.173443,9.04106307 24.9604205,8.86341357 24.7601644,8.50684384 C22.330307,3.87880768 18.8238228,1.56428131 14.2399607,1.56428131 C11.108456,1.56428131 8.54117285,2.58163599 6.5376106,4.6160912 C4.53354771,6.65105471 3.53201691,9.30817268 3.53201691,12.5887158 C3.53201691,16.2507352 4.45845167,19.3787895 6.31232249,21.9726246 C7.26403959,23.2952111 8.5667055,24.3377265 10.2198196,25.1006789 C11.8729337,25.8636314 13.8016502,26.2451076 16.0059692,26.2451076 C19.6128318,26.2451076 22.6434575,24.3377265 25.0983469,20.5229641 C25.1982247,20.3453146 25.3859647,20.2558545 25.6618175,20.2558545 C25.8873559,20.2558545 26,20.4149512 26,20.7326362 C26,21.0508296 25.9559437,21.4450133 25.8685819,21.9151872 C25.7804693,22.3861235 25.6743335,22.907127 25.5491735,23.4792143 C25.4235128,24.0513016 25.3484167,24.4012635 25.3238854,24.5283375 C25.2733207,24.8084087 25.0733149,25.0373961 24.7226164,25.2150456 C23.3701368,25.876593 22.3180413,26.37269 21.5665803,26.7028283 C19.5622671,27.5669317 17.4272868,28 15.1606381,28 C12.8932385,28 10.8834182,27.7328904 9.13042641,27.1989253 C7.37693396,26.6649602 5.94259967,25.9657989 4.82842481,25.1009331 C3.71349899,24.2365755 2.78080622,23.2192209 2.02934522,22.0491232 C0.676364967,19.988999 0,17.585775 0,14.8389427" id="Fill-1"></path>
                <path d="M31.768016,12.1291616 L31.8060538,7.87612328 L31.8060538,6.064712 C31.8060538,4.90975365 31.7614228,3.9841078 31.6729218,3.28829918 C31.5836599,2.5930153 31.2410669,2.07430729 30.6451427,1.73269989 C30.0484577,1.39187961 29.4586196,1.20795735 28.8753746,1.18119548 C28.2913689,1.15548309 28,0.951620611 28,0.570919892 C28,0.190743916 28.3550187,0 29.0658168,0 L33.366868,0.157422764 L36.7162156,0.0787113822 C37.4014016,0.0787113822 37.7437411,0.262633645 37.7437411,0.6302158 C37.7437411,0.840637562 37.1597353,1.19510115 35.9929918,1.69360657 C35.1805062,2.0349516 34.7750242,3.54437354 34.7750242,6.22239714 L34.6609111,20.7934482 C34.6609111,22.9986788 34.9588732,24.5482435 35.5553045,25.4403058 C36.1512287,26.3331553 36.7793582,26.7791865 37.4394393,26.7791865 L38.2007008,26.8185422 C38.3779566,26.8185422 38.5557195,26.8647195 38.733736,26.9562871 C38.9109917,27.0486418 39,27.1992429 39,27.4091399 C39,27.7769844 38.6825119,27.9606443 38.04855,27.9606443 L34.4326848,27.8029592 L30.2457467,28 C29.1038545,28 28.5330352,27.8029592 28.5330352,27.4091399 C28.5330352,27.0420825 28.9260916,26.805686 29.7129651,26.7002127 C30.0175204,26.6745003 30.3345014,26.5099935 30.6644151,26.2080042 C30.9938218,25.9065396 31.2032828,25.5649322 31.2925446,25.1842315 C31.3810457,24.8037931 31.4827332,23.2151351 31.5970999,20.4190444 C31.7112131,17.6229537 31.7682696,15.6084671 31.7682696,14.3740103 L31.7682696,12.1291616 L31.768016,12.1291616" id="Fill-2"></path>
                <path d="M40.6590464,0 C40.9853791,0 42.010099,0.0521906027 43.7322012,0.155279962 C45.4538009,0.258886059 48.84123,0.310559923 53.894237,0.310559923 C58.9472441,0.310559923 62.0013063,0.233049127 63.0569261,0.0777691655 C63.3337688,0.0777691655 63.5221826,0.155279962 63.6226699,0.310559923 C63.7226549,0.465581516 63.7739034,0.607943011 63.7739034,0.737127671 L64,3.87838187 C64,4.52482191 63.9623172,4.93227033 63.8867005,5.09995202 C63.8110838,5.26840881 63.6477918,5.35212047 63.3965734,5.35212047 C63.194845,5.35212047 63.0255238,5.08729192 62.8878561,4.55711807 C62.7489323,4.02771934 62.604733,3.62052929 62.4540019,3.33554793 C62.0766719,2.66352932 60.9833693,2.32739084 59.1733407,2.32739084 L54.2715671,2.32739084 C53.6681405,2.32739084 53.2970909,2.45037464 53.159172,2.69582549 C53.0202482,2.94179308 52.9516656,3.64610785 52.9516656,4.8095449 L52.9516656,6.70959288 L52.8383661,20.9031115 L52.8011858,23.4237626 C52.8011858,24.5355258 52.970507,25.259735 53.309903,25.5953567 C53.6495503,25.9317536 54.0198463,26.1836637 54.4222981,26.3516037 C54.8242476,26.5200605 55.1636437,26.616949 55.4404864,26.6425276 C56.1441491,26.6947182 56.4963573,26.9272506 56.4963573,27.3406415 C56.4963573,27.6256229 56.4330503,27.8059646 56.3074411,27.8837338 C56.1818319,27.9612446 55.9429232,28 55.5909662,28 L51.4056675,27.6896984 L47.5592624,27.9612446 C46.6290007,27.9612446 46.1642466,27.7545491 46.1642466,27.3408999 C46.1642466,27.0827889 46.2398633,26.9081313 46.3903432,26.8174436 C46.5415766,26.7270144 46.8362558,26.6497619 47.2763905,26.5849112 C47.7160227,26.5205773 47.9986434,26.4751043 48.1247551,26.4492673 C48.9788977,26.2425719 49.4569663,25.7258332 49.5574537,24.8980179 C49.8086721,22.6233344 49.9347837,17.7370539 49.9347837,10.2391762 L49.8971009,3.29756764 C49.8971009,2.8069243 49.7586796,2.50256524 49.4825906,2.38629904 C49.2052454,2.27003285 48.2882982,2.21189975 46.7299905,2.21189975 C45.1711802,2.21189975 43.9454856,2.26409036 43.053409,2.36717971 C42.16083,2.47078581 41.6395518,2.56767431 41.4885696,2.6578452 C41.3378385,2.7487912 41.1552027,2.93610896 40.9419183,3.22005684 C40.7278802,3.5050382 40.5517761,3.83445909 40.4138572,4.2090946 C40.2754359,4.58424685 40.181229,4.88757244 40.1312365,5.12036319 C40.055871,5.71538774 39.816711,6.01225409 39.4147616,6.01225409 C39.1379189,6.01225409 39,5.79289853 39,5.35289558 C39,4.31915993 39.0625534,3.38179604 39.1884138,2.54132064 C39.314023,1.70162034 39.3828569,1.21666113 39.3959202,1.08695973 C39.4082299,0.957775071 39.4205396,0.873805042 39.433603,0.834791274 C39.4459127,0.796035876 39.4584736,0.731960285 39.4712857,0.641014284 C39.4835954,0.550843391 39.502688,0.485992692 39.5278099,0.447237294 C39.5526805,0.408481896 39.5845852,0.357066401 39.6220168,0.292215701 C39.6596995,0.227881741 39.7034115,0.18266711 39.7539064,0.156571808 C39.8038989,0.130993245 39.8669547,0.105156313 39.9423203,0.0790610121 C40.0933025,0.0260953014 40.33196,0 40.6590464,0" id="Fill-3"></path>
                <path d="M77.3837803,23.4917379 L77.4581371,15.7500847 C77.4581371,14.6822091 77.1354285,13.6402492 76.4910028,12.6229345 C75.8959005,11.6569428 75.1144104,10.4490722 74.1472761,9.00008469 C73.1801418,7.55109723 72.3245427,6.24845673 71.5804789,5.09114691 C70.836415,3.93459931 70.1538195,3.04483005 69.5341793,2.42158505 C68.9140435,1.7988482 68.4366728,1.43018594 68.1020671,1.3155983 C67.7674615,1.20101065 67.3329698,1.14384387 66.7998315,1.14384387 C66.2664452,1.14384387 66,0.991399104 66,0.686255505 C66,0.381111906 66.1422694,0.190555953 66.4277995,0.114333572 C66.7125861,0.0381111906 67.3394141,0 68.3065484,0 L70.4643831,0.0762223811 L73.6265305,0.0381111906 C74.8665543,0.0381111906 75.4866901,0.184712237 75.4866901,0.476643957 C75.4866901,0.769083826 75.2261934,1.01070877 74.7054479,1.20126473 C74.1847023,1.39182068 73.9244535,1.60829224 73.9244535,1.84940904 C73.9244535,2.09128806 74.004511,2.41548726 74.166361,2.82200662 C74.3272196,3.22903414 74.488326,3.5595852 74.6499281,3.81340573 C74.8107867,4.06773441 75.0526942,4.43665073 75.3754028,4.91939248 C75.6973678,5.40264238 76.0822882,6.0126755 76.5286769,6.75 C76.9750657,7.48757857 77.6504734,8.47923175 78.5561394,9.72470546 C79.4610618,10.9706873 79.9820552,11.5931701 80.1186239,11.5931701 C80.2546969,11.5931701 80.4348882,11.4470772 80.6582065,11.1546373 C80.881277,10.8627056 81.191097,10.3728498 81.5884103,9.6863402 C81.9847321,8.99983062 82.2702622,8.52318666 82.4440093,8.25640833 C82.6170128,7.98937592 82.8467754,7.64027741 83.1320577,7.20758836 C83.4168443,6.77566153 83.6156248,6.47051794 83.7271601,6.29241164 C83.8386953,6.11481349 84.006246,5.84142922 84.2293164,5.47251289 C84.4523869,5.10435879 84.6134933,4.8241145 84.7128836,4.63355855 C84.8115303,4.4430026 84.9235612,4.20823766 85.0477371,3.92799338 C85.2953453,3.47040501 85.419769,3.08903903 85.419769,2.78389543 C85.419769,1.86871871 84.8489565,1.33465389 83.7085709,1.18220913 C83.1627919,1.10598675 82.8529718,0.998005044 82.778615,0.858009937 C82.7040103,0.71852298 82.6670798,0.585133813 82.6670798,0.457588362 C82.6670798,0.152444762 83.0138304,0 83.7085709,0 L85.233877,0.0381111906 L89.1772666,0.0762223811 C90.3920091,0.0762223811 91,0.266778334 91,0.648144314 C91,0.750028231 90.9256432,0.838700267 90.7769296,0.915176723 C90.6282159,0.991653179 90.4170426,1.09328302 90.1444009,1.22032032 C89.8710157,1.34786577 89.6234075,1.50056461 89.4003371,1.67790868 C88.3831359,2.49196371 86.8893075,4.42369293 84.9176127,7.4743667 C82.94567,10.5252945 81.7926436,12.2669759 81.4577901,12.6989028 C81.1226887,13.1315918 80.905319,13.6521907 80.8066723,14.2624779 C80.707282,14.872511 80.6577108,15.9154873 80.6577108,17.3896281 L80.6948892,21.813321 L80.6948892,22.7287518 C80.6948892,23.5677062 80.8371586,24.2290624 81.1226887,24.7118041 C81.4074753,25.195054 81.6744163,25.481142 81.9227681,25.5698141 C82.1703762,25.6592483 82.4184801,25.7032032 82.6668319,25.7032032 L83.4108958,25.7413144 C83.5838993,25.7413144 83.7207158,25.7984812 83.8198582,25.9130688 C83.9187528,26.0274024 83.9688197,26.1801013 83.9688197,26.3706572 C83.9688197,26.5614672 83.9066078,26.6948564 83.7829277,26.7710788 C83.6585039,26.8473012 83.4230407,26.8854124 83.0757944,26.8854124 L79.355723,26.8473012 L75.2633718,27 C74.5686313,27 74.2216329,26.8732168 74.2216329,26.618634 C74.2216329,26.3648135 74.2895454,26.1930591 74.426362,26.1038789 C74.5624349,26.0149528 74.7919496,25.95804 75.1144104,25.9323785 C75.4363754,25.9072251 75.6723343,25.8691139 75.8212958,25.8180449 C76.8627869,25.488002 77.3837803,24.7120582 77.3837803,23.4917379" id="Fill-4"></path>
                <path d="M0,52.479523 C0,50.9099812 0.283160517,49.4931299 0.849728851,48.2289692 C1.41629719,46.9645421 2.2892724,45.9436737 3.46964371,45.1660976 C4.64952041,44.388788 6.04900108,44 7.6675911,44 C8.49011676,44 9.31956687,44.1305731 10.1559414,44.3922522 C10.9920687,44.6539313 11.6597834,44.9156105 12.1588384,45.1770231 L12.9074208,45.5913928 C12.9479783,45.5913928 13.0152444,45.5551521 13.1097137,45.4824043 C13.2039356,45.4099229 13.2815884,45.3734157 13.3424246,45.3734157 C13.4030135,45.3734157 13.4668174,45.4024616 13.5345781,45.4605533 C13.6018442,45.5189114 13.6389394,45.682261 13.6458639,45.951135 C13.652541,46.2202755 13.6792496,46.5906767 13.7267316,47.0628716 C13.7737189,47.5350665 13.8177386,47.9238546 13.8582961,48.2292357 C13.8988536,48.5343504 13.9191323,48.7160868 13.9191323,48.7741785 C13.9191323,49.0355912 13.8380173,49.1666972 13.676282,49.1666972 C13.5548568,49.1666972 13.4401088,49.06517 13.3322852,48.8613161 C12.0238116,46.2162783 10.13591,44.8937595 7.66783841,44.8937595 C5.981735,44.8937595 4.59931815,45.4752094 3.52058787,46.6375764 C2.44136299,47.8004763 1.90224515,49.3188548 1.90224515,51.1937778 C1.90224515,53.2866779 2.4010528,55.0741968 3.39941001,56.5563346 C3.91181926,57.3120597 4.61316705,57.9078993 5.50320609,58.3438536 C6.39349243,58.7798078 7.43166522,58.9977849 8.61871368,58.9977849 C10.5610217,58.9977849 12.1924714,57.9078993 13.5145466,55.7278617 C13.5682111,55.6263345 13.6693575,55.5751711 13.8179859,55.5751711 C13.9394111,55.5751711 14,55.6663058 14,55.8477758 C14,56.0292457 13.976259,56.2546841 13.9290244,56.5232916 C13.8817898,56.7924321 13.8244157,57.0900854 13.7571497,57.4170511 C13.6896363,57.7440168 13.6490788,57.94414 13.6357245,58.0163549 C13.6085213,58.1767733 13.5006977,58.3073464 13.3120065,58.4088736 C12.5837028,58.7870026 12.0171345,59.0702663 11.6125488,59.2589311 C10.5333239,59.752977 9.38386533,60 8.16343114,60 C6.94250234,60 5.86030983,59.8475759 4.91635901,59.5421948 C3.97216089,59.2368136 3.20008479,58.8373666 2.59988341,58.3433206 C1.99968204,57.8492747 1.49741216,57.2680912 1.09282648,56.5995037 C0.364028192,55.4222141 0,54.0490648 0,52.479523" id="Fill-5"></path>
                <path d="M17.3832914,58.9176378 L15.6009532,59 C15.1998955,59 15,58.9176378 15,58.7529133 C15,58.5604829 15.1036214,58.430265 15.3108641,58.361252 C15.752965,58.1965275 16.139835,57.8292978 16.471474,57.259059 C16.8031131,56.6890721 17.6353776,54.9652584 18.9687742,52.0873661 C20.3019176,49.2097256 21.4868494,46.6718608 22.523063,44.4740236 C22.6195905,44.2679921 22.7059839,44.1375222 22.7822431,44.0823622 C22.8579957,44.0274541 22.9687109,44 23.1138822,44 C23.2590534,44 23.3522873,44.0274541 23.3935838,44.0823622 C23.4351337,44.1375222 23.5108863,44.3229002 23.6216015,44.638748 C23.7320634,44.9548477 23.8184568,45.194882 23.8805282,45.3598583 C23.9428531,45.5245827 24.0429275,45.7925748 24.1810049,46.1633308 C24.3188289,46.5340867 24.540006,47.0904725 24.8442829,47.8322363 C25.1480531,48.5737482 25.8422403,50.1985761 26.927351,52.7052087 C28.0119551,55.2120932 28.6372302,56.6339121 28.8029231,56.9704134 C28.9686159,57.3071666 29.1966336,57.5955603 29.4869761,57.8358465 C29.7770652,58.0763845 30.0291514,58.2068543 30.243488,58.2275078 C30.4575713,58.2481613 30.6371985,58.2826678 30.7823698,58.3305236 C30.9272877,58.3786312 31,58.4849212 31,58.6498976 C31,58.8559291 30.8135322,58.9591967 30.4403433,58.9591967 L28.5751587,58.8355274 L26.6476494,58.9178896 C26.2192295,58.9178896 25.946115,58.9010142 25.8290659,58.8665077 C25.7115101,58.8322531 25.6529856,58.7602176 25.6529856,58.6501494 C25.6529856,58.5403331 25.7079632,58.4544447 25.8189318,58.392736 C25.9293937,58.3310273 26.0469495,58.2897203 26.1713458,58.2690667 C26.2957421,58.2486651 26.4130445,58.1867045 26.5237598,58.0836888 C26.6342217,57.9809249 26.6894526,57.809148 26.6894526,57.56861 C26.6894526,57.3285757 26.5164125,56.7412097 26.1713458,55.8070155 C25.8257723,54.8730732 25.5356832,54.1862176 25.300825,53.7464486 C25.1764287,53.512963 24.8931801,53.3960943 24.4510791,53.3960943 L21.9433914,53.4374014 L20.8451063,53.4374014 C20.2233781,53.4374014 19.8327079,53.4719078 19.6741089,53.5404171 C19.5152566,53.6091782 19.3840198,53.753501 19.2803984,53.9731336 C19.176777,54.1930181 19.0280588,54.4985391 18.8347505,54.8899486 C18.6411889,55.28161 18.509952,55.5528764 18.44104,55.7037479 C18.3718747,55.8551231 18.2887749,56.0473016 18.1922474,56.2807872 C18.0126201,56.6928502 17.9229332,57.0364039 17.9229332,57.3109447 C17.9229332,57.5859892 18.0022327,57.8056218 18.1613383,57.9703462 C18.3199373,58.1350707 18.496271,58.2312859 18.6898326,58.25874 C19.2008456,58.300047 19.4567321,58.4307687 19.4567321,58.6504013 C19.4567321,58.7466165 19.4359571,58.8189039 19.3944072,58.8667596 C19.3528573,58.9148672 19.2563299,58.938795 19.1043181,58.938795 L17.3832914,58.9176378 L17.3832914,58.9176378 Z M20.8890147,49.2012272 C20.2963382,50.6685497 20,51.481835 20,51.6413266 C20,51.8008182 20.0556908,51.9001656 20.1666195,51.9403428 C20.2777746,51.9800331 20.5369857,52 20.944479,52 L21.5185919,52 L23.2778312,51.9800331 C23.7593525,51.9800331 24,51.8838512 24,51.6912438 C24,51.4988799 23.697323,50.6687932 23.0926481,49.2012272 C22.4875205,47.7339047 22.1047032,47 21.9444224,47 C21.8334937,47 21.4814647,47.7336612 20.8890147,49.2012272 L20.8890147,49.2012272 Z" id="Fill-6"></path>
                <path d="M32.8809001,58.9586543 C32.5940255,58.9586543 32.4508386,58.8464304 32.4508386,58.6222393 C32.4508386,58.4404212 32.6556059,58.3423215 33.0651406,58.3279404 C33.2150864,58.3143297 33.3858093,58.1987673 33.5770589,57.9812532 C33.7680583,57.7642527 33.9047367,57.4738059 33.9865936,57.1093991 C34.0684505,56.7452491 34.1570662,55.4989728 34.252691,53.3697997 C34.3480655,51.2411402 34.395878,49.5711351 34.395878,48.3592707 C34.395878,47.1481767 34.2627041,46.2763225 33.9966067,45.7437083 C33.7305093,45.2118644 33.153506,44.8402671 32.2660974,44.6304571 C32.0886157,44.588341 32,44.4833077 32,44.3151002 C32,44.1050334 32.1229105,44 32.3684811,44 L33.4538981,44.0839753 L34.9896532,44.0418593 C35.2487414,44.0418593 35.4127055,44.1399589 35.4810447,44.3361582 C35.6447584,44.700565 35.9383918,45.3551618 36.3616944,46.3002054 C36.7847468,47.2457627 37.122688,47.9984592 37.3752677,48.5585516 C37.6275971,49.1191577 37.9517704,49.8333333 38.3480377,50.7015922 C38.7438044,51.5701079 39.0647234,52.2737545 39.3105443,52.8127889 C39.5563653,53.3523369 39.8121993,53.8947098 40.078547,54.4409348 C40.3448947,54.9871597 40.5494117,55.3898305 40.692849,55.6489471 C40.8362863,55.9083205 40.9284065,56.0377504 40.9692098,56.0377504 C41.0100131,56.0377504 41.0543209,56.0133539 41.1023837,55.9643041 C41.1499458,55.915511 41.1977582,55.8487417 41.2455706,55.7647663 C41.2931327,55.680791 41.3341863,55.5968156 41.3684811,55.5128403 C41.4022752,55.4286081 41.4503379,55.3204931 41.511668,55.1869543 C41.5732484,55.0539291 41.6173059,54.9527478 41.6448419,54.8823832 L44.2865408,49.2940421 C45.0102356,47.7814587 45.494618,46.7241911 45.7406892,46.1217257 L46.211554,45.0713919 C46.2526076,44.959168 46.2833978,44.8718541 46.3034239,44.8089368 L46.3547409,44.6617874 L46.3957945,44.567283 C46.4090618,44.539548 46.4333435,44.4763739 46.4676383,44.3782743 C46.5014324,44.2804314 46.5389814,44.2103236 46.580035,44.1684643 C46.6891775,44.0562404 46.887186,44.0005136 47.1740606,44.0005136 L48.9351097,44.0423729 C49.1669124,44.0423729 49.2833143,44.1335388 49.2833143,44.315357 C49.2833143,44.4555727 49.2387562,44.556754 49.1498901,44.6201849 C49.0610241,44.6831022 48.8632659,44.7354905 48.5563653,44.7776066 C48.2487136,44.8197227 48.026924,44.9948639 47.8904959,45.3027735 C47.7540678,45.6109399 47.6862292,46.4548023 47.6862292,47.8341037 C47.6862292,49.2139188 47.7267822,50.6702619 47.8088894,52.2039034 C47.8904959,53.7375449 47.9315495,54.700565 47.9315495,55.0924499 C47.9315495,56.4930663 48.040692,57.3859784 48.2592273,57.7711864 C48.4777626,58.1563945 48.9353601,58.3487417 49.6315189,58.3487417 C49.7268934,58.3487417 49.8120046,58.383924 49.8871026,58.453775 C49.9619503,58.5238829 50,58.5873138 50,58.6427838 C50,58.8669748 49.9246516,58.978942 49.7747059,58.978942 L49.5494117,58.978942 L47.4606848,58.8949666 L45.3309042,59 C45.0850833,59 44.9621728,58.9021572 44.9621728,58.7057011 C44.9621728,58.4958911 45.1464134,58.3695429 45.5151448,58.3274268 C45.6515729,58.3138161 45.7982644,58.2259887 45.9552193,58.0649718 C46.1121742,57.9042116 46.221567,57.6733436 46.2833978,57.3718541 C46.3444775,57.0708783 46.3752677,56.65434 46.3752677,56.1219825 C46.3752677,55.5898819 46.3650043,55.0084746 46.3444775,54.3782743 C46.3239507,53.748074 46.2999193,53.1355932 46.2731344,52.5400616 C46.2453481,51.9450437 46.2183128,51.3846944 46.1910272,50.8595275 C46.1637416,50.3343606 46.1432148,49.9034412 46.1294468,49.5675398 L46.0888938,49.0634309 C46.0888938,48.4612224 46.0273134,48.1599897 45.9046533,48.1599897 C45.8635997,48.1599897 45.8260507,48.180791 45.7917559,48.222907 L45.699886,48.3279404 C45.6726003,48.3559322 45.6450644,48.4013867 45.6177788,48.4643041 C45.5904931,48.5274782 45.5629572,48.5798665 45.5361722,48.6219825 C45.5088866,48.6638418 45.4745918,48.7236775 45.4335382,48.8004622 L45.3314049,48.9997432 L45.2292715,49.230868 C45.17445,49.3289676 45.1333964,49.412943 45.1061108,49.482794 L42.2596445,55.3859784 C41.9319667,56.0724191 41.6145523,56.7444787 41.3074013,57.4029276 C41.0002503,58.0613765 40.8190137,58.4357987 40.7646928,58.5267078 C40.7101215,58.6178737 40.6315189,58.6633282 40.5293856,58.6633282 C40.4270019,58.6633282 40.3348817,58.6040062 40.2530248,58.4848485 C40.1711679,58.3659476 40.0482574,58.1034926 39.8842934,57.6969697 C39.7205796,57.2909605 39.5771424,56.9548023 39.4542319,56.6887519 C36.9559703,51.4786852 35.6793035,48.8353878 35.6249826,48.7580894 C35.570161,48.6813046 35.5225989,48.642527 35.4815454,48.642527 C35.3721525,48.642527 35.3178316,48.9229584 35.3178316,49.482794 L35.1335911,55.029019 L35.1335911,55.9743195 C35.1335911,57.1230098 35.3588852,57.8305085 35.8092232,58.096302 C36.0412761,58.2365177 36.2665702,58.3138161 36.4851056,58.32717 C36.826301,58.3692861 36.9970239,58.4637904 36.9970239,58.6106831 C36.9970239,58.7578326 36.9764971,58.8559322 36.9354435,58.904982 C36.8943899,58.9540318 36.812533,58.9784284 36.6898729,58.9784284 L34.5600923,58.894453 L32.8809001,58.9586543" id="Fill-7"></path>
                <path d="M53.0081417,49.8496782 L52.9867312,46.2979875 C52.9867312,45.9220554 52.8655795,45.5494433 52.6235372,45.1804066 C52.3809727,44.8116253 51.982791,44.6267239 51.4274253,44.6267239 C51.142301,44.6267239 51,44.5363163 51,44.3552457 C51,44.1325467 51.1637115,44.0209419 51.4913955,44.0209419 L52.2814926,44 L53.5632462,44.0625702 L57.0873508,44 C58.4257637,44 59.5790548,44.3309838 60.5477462,44.9924405 C61.5159154,45.6541526 62,46.604454 62,47.8441107 C62,48.5267647 61.8717985,49.1363776 61.6153956,49.6721831 C61.3592537,50.2084993 61.0493247,50.6298907 60.6861307,50.9361017 C60.3229367,51.2425682 59.9135275,51.5002554 59.4581642,51.708908 C58.7317762,52.0296762 58.0837191,52.1895495 57.5145149,52.1895495 C56.9445275,52.1895495 56.4249329,52.1374502 55.955209,52.0329962 C55.485224,51.9285422 55.2502314,51.8207682 55.2502314,51.708908 C55.2502314,51.5002554 55.3426618,51.395546 55.5277837,51.395546 C55.5988037,51.395546 55.7447601,51.4233834 55.9656531,51.4790581 C56.1865461,51.5349883 56.4319827,51.5625702 56.7024852,51.5625702 C56.9729877,51.5625702 57.2933609,51.5173664 57.6638657,51.4267034 C58.0341095,51.3362958 58.4184528,51.1899581 58.8174179,50.9879457 C59.2155997,50.7861886 59.5435448,50.4797221 59.7999478,50.0685463 C60.0560896,49.6581367 60.1845522,49.1805598 60.1845522,48.637348 C60.1845522,47.7046685 59.7999478,46.8373685 59.031,46.0362141 C58.2623134,45.2355705 57.2011916,44.8351211 55.8486791,44.8351211 C55.4071542,44.8351211 55.1079304,44.9640923 54.9512687,45.2215242 C54.7943459,45.4794667 54.7165373,46.0607314 54.7165373,46.9660844 L54.6737164,55.5943917 C54.6737164,57.210236 55.157801,58.0737052 56.1262313,58.1850547 C56.3682736,58.2131474 56.567234,58.2269384 56.7241568,58.2269384 C57.1225996,58.1993564 57.3223433,58.3387987 57.3223433,58.6447543 C57.3223433,58.8814996 57.1583707,59 56.8309478,59 L53.7765672,58.8958014 L51.7903582,58.9793135 C51.3488333,58.9793135 51.1282015,58.9024415 51.1282015,58.7494637 C51.1282015,58.5127184 51.2062712,58.366636 51.3629329,58.3107059 C51.4339529,58.2831239 51.4838235,58.262182 51.5125448,58.2481357 C51.5407439,58.2343447 51.6086306,58.2167229 51.7154217,58.195781 C51.8219516,58.1750945 51.8932327,58.1577281 51.9287427,58.1436817 C51.9642527,58.1298907 52.0104678,58.1194198 52.0676494,58.1122689 C52.1243087,58.1056288 52.1637352,58.0984779 52.1848845,58.091327 C52.206295,58.0846869 52.2418049,58.063745 52.2916756,58.0287568 C52.3412851,57.9940239 52.3804505,57.9452447 52.4091718,57.8826744 C52.4373709,57.8198488 52.4765364,57.7363367 52.5266681,57.6321381 C52.5762776,57.5276841 52.6405089,57.3675554 52.7188398,57.1514966 C52.7969095,56.9356931 52.8647962,55.9154153 52.9214555,54.0909184 C52.9791592,52.2664215 53.0081417,50.8523343 53.0081417,49.8496782" id="Fill-8"></path>
                <path d="M64.940694,49.7407687 L64.9818297,46.7776939 C64.9818297,46.0235939 64.8922397,45.5054331 64.7135647,45.2242177 C64.5346372,44.9432538 64.1149527,44.7546031 63.4542587,44.6582654 C63.1514196,44.6172653 63,44.4869705 63,44.267381 C63,44.1574605 63.041388,44.0855217 63.1239117,44.051313 C63.2064353,44.0171043 63.3232808,44 63.4749527,44 L65.8078233,44.0822517 L67.748265,44.0410001 C68.0374763,44.0410001 68.1818297,44.1370862 68.1818297,44.3292585 C68.1818297,44.4527618 68.1336278,44.5282222 68.0374763,44.5553879 C67.9408202,44.5830566 67.820694,44.6036825 67.6760883,44.6172653 C67.5314826,44.6310997 67.3901577,44.6788912 67.2528707,44.761143 C66.9086435,44.9535668 66.73653,45.5914579 66.73653,46.6745648 L66.73653,47.2508301 L66.7160883,51.6954422 C66.7160883,53.0534762 66.757224,53.9383741 66.8397476,54.3498843 C66.9222713,54.7613945 67.0184227,55.141966 67.128959,55.4918503 C67.2389905,55.8417346 67.3732492,56.1194285 67.5314826,56.3251836 C67.6897161,56.5306872 67.8893375,56.7573196 68.130347,57.0040749 C68.3708517,57.2508301 68.6497161,57.4432538 68.966183,57.5803401 C69.7094006,57.8821813 70.5560883,58.0328504 71.505489,58.0328504 C72.9919243,58.0328504 74.0241009,57.8683469 74.6022713,57.5390884 C74.8498423,57.4020022 75.1355205,57.1861857 75.4590536,56.8908844 C75.7823344,56.5960861 76.0336909,56.2358889 76.2126183,55.8107959 C76.6388644,54.7956032 76.8526183,53.5059865 76.8526183,51.9421974 L76.8319243,47.579837 C76.8319243,47.0999094 76.8215773,46.7228594 76.8008833,46.4481839 C76.7804416,46.1740115 76.7115457,45.8721702 76.5947003,45.5426602 C76.4776025,45.2134018 76.3294637,44.9870208 76.1507886,44.863769 C75.9716088,44.7402656 75.7719874,44.6615354 75.5519243,44.6273267 L75.015142,44.5448234 C74.8776025,44.5244491 74.808959,44.4663447 74.808959,44.370007 C74.808959,44.1509206 74.9462461,44.0407486 75.2218297,44.0407486 L76.8114826,44.0820002 L78.5664353,44.0201227 C78.8553943,44.0201227 79,44.1094174 79,44.2875038 C79,44.3976758 78.8518612,44.538032 78.5560883,44.7095784 C78.2598107,44.8813764 78.0776025,45.035567 78.008959,45.1724017 C77.8572871,45.46066 77.7818297,45.9131703 77.7818297,46.5304357 L77.8025237,47.9090955 C77.8025237,50.5429118 77.6922397,52.5592112 77.4721767,53.9584968 C77.2518612,55.3577825 76.9147003,56.3732267 76.4604416,57.0038233 C75.5382965,58.3346916 73.9072555,59 71.567571,59 C69.2278864,59 67.5761514,58.5610725 66.6128707,57.6829661 C65.8557729,56.983449 65.3878864,56.1433243 65.2092114,55.1623403 C65.0300315,54.1818593 64.9409464,52.4907938 64.9409464,50.0901499 L64.9409464,49.7407687 L64.940694,49.7407687" id="Fill-9"></path>
                <path d="M89.2679155,44.7182251 L89.7479584,44.5441905 C89.9286443,44.5441905 90.0330237,44.602202 90.0613516,44.7182251 C90.3535627,46.4742707 90.4997958,47.5080997 90.4997958,47.8202442 C90.4997958,48.1323887 90.4020519,48.2883278 90.2073295,48.2883278 C90.0820233,48.2883278 89.9600347,48.1323887 89.8418742,47.8202442 C89.7234586,47.5080997 89.584116,47.2215015 89.4243569,46.9604497 C89.2640874,46.6993979 89.1492446,46.5325483 89.0798285,46.4596348 C89.0101572,46.3872534 88.829216,46.2129528 88.5370049,45.9372651 C87.7854226,45.2405948 86.9258881,44.8922596 85.9584014,44.8922596 C84.9909147,44.8922596 84.215343,45.1099358 83.6306656,45.5452882 C83.0462434,45.9806407 82.7537771,46.546652 82.7537771,47.2433224 C82.7537771,47.9397266 82.9239996,48.4988191 83.2652103,48.9195356 C83.6061658,49.3405182 84.0617089,49.6672987 84.6326051,49.8993447 C85.202991,50.1316569 85.8017048,50.349067 86.4279808,50.5523733 C88.1118314,51.1040149 89.3574929,51.82224 90.1652205,52.7075807 C90.72157,53.3316036 91,54.1083724 91,55.0368227 C91,56.5608223 90.5337383,57.7689519 89.60147,58.6612115 C88.6689465,59.5537372 87.513628,60 86.1357697,60 C85.1754287,60 84.4031748,59.945714 83.8184973,59.8368759 C83.2340751,59.7280378 82.6353614,59.5069022 82.0231217,59.1729368 C81.8421805,59.0566477 81.626276,58.4909024 81.3759187,57.4749027 C81.1255615,56.4594352 81,55.8242358 81,55.5701028 C81,55.316502 81.0939159,55.1890364 81.2817477,55.1890364 C81.4695794,55.1890364 81.5846774,55.2616838 81.626276,55.4067126 C82.1412822,56.6984 82.7466313,57.6127466 83.4425786,58.1497522 C84.1941609,58.7447693 85.1024398,59.0422779 86.1671601,59.0422779 C87.2318804,59.0422779 88.0806962,58.7559458 88.714118,58.1824835 C89.3470294,57.6095533 89.6639955,56.8583308 89.6639955,55.9293484 C89.6639955,55.2475801 89.4480911,54.6778432 89.0167926,54.2206699 C88.5854941,53.7632305 88.0911597,53.4335229 87.5345549,53.2299504 C85.4604941,52.5042744 84.0548183,51.9167082 83.3175276,51.4667199 C82.050684,50.6830323 81.4177726,49.631108 81.4177726,48.3101487 C81.4177726,46.9897216 81.8666803,45.9412567 82.7642405,45.164754 C83.6620559,44.3885174 84.8273275,44 86.2610759,44 C86.7898632,44 87.4197121,44.1197485 88.1503675,44.3595117 C88.8815333,44.5984765 89.2536239,44.7182251 89.2679155,44.7182251" id="Fill-10"></path>
                <path d="M32.2980256,38 C31.8012273,38 31.4605123,37.8556038 31.2764141,37.5668115 C31.0920491,37.2782798 31,36.8555169 31,36.299305 C31,35.743093 31.2483991,35.0794961 31.7451974,34.3095569 C32.2417289,33.5398784 32.8116329,33.0039965 33.4541089,32.702954 C33.7710779,32.5523023 34.0386873,32.4769765 34.2572038,32.4769765 C34.4757204,32.4769765 34.6982391,32.5001738 34.9252935,32.5460469 C35.1520811,32.5921807 35.3236393,32.6153779 35.4391676,32.6153779 C35.5546958,32.6153779 35.6811633,32.5126846 35.8180363,32.3075586 C35.9549093,32.1026933 36.0685699,32 36.1584845,32 C36.2483991,32 36.2934899,32.0500434 36.2934899,32.1506516 C36.2934899,32.2509991 36.256937,32.4016507 36.1840982,32.6023458 C36.1112593,32.8033015 36.0664354,32.9372719 36.0493597,33.0039965 C36.0320171,33.0712424 35.9378335,33.5711555 35.7665422,34.5042572 C35.594984,35.4373588 35.5096051,36.0084275 35.5096051,36.2174631 C35.5096051,36.4267593 35.5525614,36.6110339 35.638207,36.7697654 C35.7235859,36.9287576 35.8351121,37.0082537 35.9722519,37.0082537 C36.1091249,37.0082537 36.2782818,36.8724587 36.4797225,36.6003475 C36.6808965,36.328497 36.8180363,36.1924414 36.8908751,36.1924414 C36.9634472,36.1924414 37,36.2531712 37,36.3743701 C37,36.4958297 36.9164888,36.6735882 36.7494664,36.9079062 C36.582444,37.1422242 36.3770011,37.3661164 36.1326041,37.579583 C35.8884739,37.7927889 35.6656884,37.8996525 35.4645144,37.8996525 C35.2630736,37.8996525 35.1024546,37.7826238 34.9826574,37.5480452 C34.8625934,37.3139878 34.791889,37.0796699 34.7708111,36.8453519 C34.7491996,36.6112945 34.7342583,36.4937446 34.7259872,36.4937446 C34.7174493,36.4937446 34.6680896,36.5461338 34.578175,36.6506516 C34.4882604,36.7554301 34.3681964,36.8810599 34.2182497,37.0272806 C34.0683031,37.1737619 33.9034152,37.3181581 33.7235859,37.4602085 C33.2702775,37.8196351 32.7948239,38 32.2980256,38 L32.2980256,38 Z M32.0584195,36.138663 C32.0193924,36.4163927 32,36.6944108 32,36.9721405 C32,37.2498702 32.0875081,37.4909731 32.2625242,37.6942954 C32.4377828,37.8981946 32.678733,38 32.9863445,38 C33.2937136,38 33.5819328,37.8543577 33.8502747,37.5624964 C34.1188591,37.2706351 34.299693,37.0139586 34.3930187,36.7916018 C34.4863445,36.569245 34.5837912,36.1850955 34.6848739,35.6388649 C34.8950388,34.435081 35,33.7339794 35,33.5346946 C35,33.3354098 34.9141888,33.1966892 34.7430511,33.1179558 C34.571671,33.0395109 34.3811409,33 34.1709761,33 C33.9608112,33 33.7196186,33.1020938 33.4471558,33.3057046 C33.174693,33.5093153 32.9528927,33.782719 32.781755,34.1253389 C32.377424,34.9213243 32.1362314,35.5927208 32.0584195,36.138663 L32.0584195,36.138663 Z" id="Fill-11"></path>
                <path d="M38.1780172,38 C37.8838362,38 37.6140086,37.9309133 37.3685345,37.7927399 C37.1228448,37.6548439 37,37.4278844 37,37.1113064 C37,36.7952832 37.1105603,36.6371329 37.3323276,36.6371329 C37.4497845,36.6371329 37.5467672,36.6862428 37.6228448,36.7839075 C37.6989224,36.8821272 37.7543103,36.9864509 37.7890086,37.0979884 C37.8237069,37.209526 37.8857759,37.3141272 37.9758621,37.4120694 C38.0657328,37.510289 38.1885776,37.5588439 38.344181,37.5588439 C38.4997845,37.5588439 38.6400862,37.5233295 38.7646552,37.4520231 C38.8892241,37.3807168 38.9756466,37.2916532 39.0241379,37.1848324 C39.1071121,36.9975491 39.1487069,36.8327399 39.1487069,36.6904046 C39.1487069,36.5480694 39.1346983,36.4165549 39.1071121,36.2961387 C39.0795259,36.1757225 39.0153017,36.0356069 38.9150862,35.875237 C38.8146552,35.7148671 38.7471983,35.6124855 38.7127155,35.567815 L38.1782328,34.88 C38.1782328,34.88 37.9428879,34.5659191 37.8773707,34.4588208 C37.8114224,34.352 37.7648707,34.2584971 37.7372845,34.1783121 C37.6609914,33.9555145 37.6230603,33.7329942 37.6230603,33.5101965 C37.6230603,33.0648786 37.75625,32.7016879 38.0226293,32.4211792 C38.2890086,32.1403931 38.6262931,32 39.0346983,32 C39.6782328,32 40,32.2319538 40,32.6950289 C40,32.8198844 39.9689655,32.9219884 39.906681,33.0021734 C39.8237069,33.1003931 39.7215517,33.148948 39.600431,33.148948 C39.4793103,33.148948 39.3478448,33.0243699 39.2060345,32.7749364 C39.0642241,32.5257803 38.9239224,32.4006474 38.7857759,32.4006474 C38.4189655,32.4006474 38.2355603,32.636763 38.2355603,33.1089942 C38.2355603,33.3850636 38.412069,33.7324393 38.7650862,34.1511214 C38.9519397,34.3739191 39.0538793,34.4984971 39.0711207,34.5254104 C39.0883621,34.5523237 39.1471983,34.6347283 39.2476293,34.7726243 C39.3478448,34.9107977 39.4170259,35.0131792 39.4551724,35.0797688 C39.4931034,35.1466358 39.5435345,35.2470751 39.605819,35.3805318 C39.7163793,35.6033295 39.7719828,35.8394451 39.7719828,36.0888786 C39.7719828,36.3383121 39.7476293,36.5522312 39.6993534,36.7303584 C39.6508621,36.908763 39.5730603,37.097711 39.4659483,37.2983121 C39.3586207,37.4986358 39.1909483,37.6656647 38.9625,37.7993988 C38.7334052,37.9331329 38.4719828,38 38.1780172,38" id="Fill-12"></path>
                <path d="M45.6230907,38 C45.1482307,38 44.7590368,37.7933834 44.4555091,37.3798703 C44.1517639,36.9663571 44,36.3350287 44,35.485325 C44,34.6356213 44.2252541,33.8427512 44.6753275,33.1055947 C45.1254009,32.3684382 45.7239767,32 46.4710551,32 C46.9665706,32 47.345328,32.2273342 47.6073273,32.6808828 C47.8691091,33.1349914 48,33.6786897 48,34.3125379 C48,34.9461061 47.9110725,35.5326396 47.7329999,36.0718585 C47.5551449,36.6113574 47.2774909,37.0677057 46.9004729,37.4406234 C46.5234549,37.8135411 46.0975159,38 45.6230907,38 L45.6230907,38 Z M46.2509437,32 C46.0345138,32 45.8252741,32.1450839 45.6234046,32.4349819 C45.4213554,32.7251497 45.2671221,33.147457 45.1603451,33.7013645 C45.0533885,34.2555418 45,34.779246 45,35.2727469 C45,35.7662478 45.0708251,36.1774985 45.2122955,36.5064991 C45.3535862,36.8357694 45.5338846,37 45.7533705,37 C45.9726766,37 46.1673557,36.8829621 46.3375876,36.6491559 C46.5078195,36.4156194 46.6363473,36.1254517 46.7229912,35.7789224 C46.9076038,35.0605145 47,34.3981986 47,33.7919745 C47,33.1860202 46.9291749,32.7356669 46.7878842,32.4411844 C46.646234,32.1475109 46.4673737,32 46.2509437,32 L46.2509437,32 Z" id="Fill-13"></path>
                <path d="M49,33.8499788 C49,33.5052974 49.1379576,33.1151293 49.4143866,32.679757 C49.6905588,32.2443848 50.0186256,32.0265574 50.3980732,32.0265574 C50.5298651,32.0265574 50.6331407,32.103687 50.707386,32.257946 C50.8145151,32.4574092 50.8682081,32.7362622 50.8682081,33.0945049 C50.8682081,33.4533126 50.7916506,34.0743043 50.6393064,34.9588925 C50.4864483,35.8431982 50.4101477,36.3941235 50.4101477,36.6119508 C50.4101477,36.8297782 50.4350674,36.9724537 50.4843931,37.040825 C50.5337187,37.1086312 50.581246,37.1428168 50.626718,37.1428168 C50.6721901,37.1428168 50.7176622,37.1360362 50.7628773,37.1224749 C50.8080925,37.1086312 50.8556198,37.0863116 50.9052023,37.0543862 C50.9545279,37.0227433 50.9997431,36.9888402 51.0411047,36.9523944 C51.0822094,36.9162311 51.1338471,36.866224 51.196018,36.8029383 C51.257675,36.73937 51.3075145,36.685125 51.3442518,36.6396384 L51.5053308,36.4424354 C51.5752087,36.356265 51.6307001,36.2859161 51.6720617,36.2316711 L52.0432884,35.7417714 C52.6287733,34.9617178 53.107386,33.7872581 53.4783558,32.2178274 C53.5112396,32.0726091 53.6473988,32 53.8868337,32 C54.1260116,32 54.2454721,32.1000141 54.2454721,32.2994773 C54.2454721,32.3901681 54.119589,33.0747281 53.8680796,34.3537223 C53.6163134,35.6327165 53.4906872,36.3901681 53.4906872,36.6260771 C53.4906872,36.8619862 53.5813744,36.9797994 53.7630058,36.9797994 C54.1093128,36.9797994 54.3939627,36.7260913 54.6164419,36.2178274 C54.6906872,36.0545275 54.7608221,35.9731601 54.8268465,35.9731601 C54.9421965,35.9731601 55,36.0819325 55,36.2994773 C55,36.5170222 54.8060373,36.8504026 54.4183687,37.2996186 C54.0307001,37.7485521 53.5811175,37.9731601 53.069878,37.9731601 C52.8224791,37.9731601 52.6986513,37.7282102 52.6986513,37.2383105 C52.6986513,36.7848566 52.7359024,36.3314027 52.8101477,35.8776663 C52.8843931,35.424495 52.9216442,35.1679616 52.9216442,35.1089137 C52.9216442,35.0501483 52.9070006,35.0204831 52.8784843,35.0204831 C52.8494541,35.0204831 52.8186256,35.0501483 52.7857418,35.1089137 C52.7526012,35.1679616 52.6989082,35.2722136 52.6249197,35.4216697 C52.5506744,35.5714084 52.4597303,35.7279277 52.3526012,35.8912276 C51.4534361,37.2973584 50.661657,38 49.9770071,38 C49.6964676,38 49.5561978,37.7191694 49.5561978,37.1566605 C49.5561978,36.5944342 49.6489403,35.8731459 49.8346821,34.9933606 C50.0204239,34.1135754 50.1131663,33.5694307 50.1131663,33.3606442 C50.1131663,33.1521401 50.0307001,33.0478881 49.8655106,33.0478881 C49.8077071,33.0478881 49.7211304,33.1272779 49.6057803,33.2860574 C49.4901734,33.4448368 49.3994862,33.6081367 49.3334618,33.7756745 C49.2671805,33.9437774 49.1952473,34.027405 49.1168915,34.027405 C49.0393064,34.0268399 49,33.9680746 49,33.8499788" id="Fill-14"></path>
                <path d="M59.8651257,32.9270848 C59.8242316,33.2728302 59.7345695,33.4452782 59.5958852,33.4452782 C59.522479,33.4452782 59.4615189,33.3974232 59.4124968,33.3019963 C59.3634747,33.2065694 59.3022606,33.1111426 59.2288545,33.0157157 C59.1554483,32.9200057 59.0574041,32.8724338 58.9352299,32.8724338 C58.6985014,32.8724338 58.498857,33.1451225 58.3360427,33.690783 C58.1727203,34.2361603 58.0668021,34.749823 58.018034,35.231488 L57.9568199,35.6817216 C57.8100076,36.96333 57.7040894,37.6774742 57.6388113,37.8227382 C57.5572771,37.9411015 57.4348489,38 57.2717805,38 L57.2108204,38 C56.9662179,38 56.8437897,37.8819199 56.8437897,37.6454764 C56.8437897,37.5002124 56.9314199,36.9636132 57.1069342,36.0362452 C57.2819406,35.1088772 57.3698247,34.4541979 57.3698247,34.0724904 C57.3698247,33.4540563 57.2311405,33.1451225 56.9537719,33.1451225 C56.8072136,33.1451225 56.6845314,33.2111001 56.5869952,33.3427722 C56.488951,33.4747275 56.4155448,33.6248053 56.3667767,33.7930058 C56.3180086,33.9612063 56.2788926,34.0611638 56.2506985,34.0931615 C56.2219964,34.1248761 56.1874524,34.1407334 56.1468123,34.1407334 C56.0487681,34.1407334 56,34.0637123 56,33.9091038 C56,33.3271981 56.1262383,32.8817783 56.3789688,32.5725612 C56.6644653,32.2089764 56.9131318,32.0269008 57.1252223,32.0269008 C57.3370587,32.0269008 57.496063,32.1860399 57.6022352,32.5043183 C57.8059436,33.1043466 57.9202438,33.4045023 57.9448819,33.4045023 C57.9527559,33.4045023 58.0304801,33.2886875 58.1772924,33.0567747 C58.3241046,32.824862 58.521463,32.5906838 58.7706375,32.3545236 C59.019304,32.1180801 59.2476505,32 59.4554229,32 C59.6634493,32 59.8059436,32.0430412 59.8836678,32.1294068 C59.9611379,32.2160555 60,32.3046864 60,32.3952994 C60,32.4861957 59.977394,32.5952145 59.9324359,32.7223559 C59.8874778,32.8500637 59.8651257,32.9183067 59.8651257,32.9270848" id="Fill-15"></path>
                <path d="M1.76546455e-15,35 L28,35 L28,36 L0,36 L1.76546455e-15,35 Z" id="Fill-16"></path>
                <path d="M62,35 L90,35 L90,36 L62,36 L62,35 Z" id="Fill-17"></path>
            </g>
            <g id="Imported-Layers" sketch:type="MSShapeGroup">
                <path d="M0,0 L0,37.071 L25.9281053,60 L51,34.74168 L51,0.0696 L0.000119934248,0 L0,0" id="Fill-1" fill="#000000"></path>
                <path d="M48,33.9717109 C47.5603715,34.4164608 42.8417723,39.2005589 37.8953547,44.2132275 L38.8477238,39.3918362 C41.5902647,36.1576858 46.9079772,29.8551586 46.7361876,29.8551586 C46.5092055,29.8551586 45.1217477,30.3983139 44.8131715,30.3983139 C44.505551,30.3983139 46.5861405,13.2536113 46.2005099,13.2536113 C45.8111759,13.2536113 44.6593015,14.9605508 44.2737904,14.8821151 C43.8892349,14.8046417 42.1162659,6.27198949 41.8076897,6.27198949 C41.4999498,6.27198949 41.0375036,9.06427732 40.8058624,9.14175065 C40.5750575,9.21922397 37.8773156,4.56517032 37.4926407,4.64264364 C37.1071296,4.72011697 37.1840646,11.8575276 36.8753689,12.0899475 C36.5677485,12.3222472 34.9486494,10.9261634 34.6410289,11.0820725 C34.3323333,11.2368988 39.6501652,21.3215439 39.418524,21.4764906 C39.1877191,21.6313169 37.0301946,20.3127065 36.7216184,20.4686155 C36.4129228,20.6234419 41.7307547,31.3296781 41.5768848,31.7169244 C41.472473,31.9742465 40.5656198,33.0423919 39.9587414,33.7384489 L40.3889322,31.5468199 C40.3889322,31.5468199 40.3708931,31.3172871 40.212364,30.9366573 C40.058494,30.5560275 35.5611426,22.1936 34.8356362,20.3194433 C34.8356362,20.3194433 36.4908135,17.9603565 35.0445792,15.0810916 C34.1101298,13.2230551 32.5281841,12.2018267 32.2204441,11.9933465 C31.9070894,11.7858286 32.1834102,11.2312447 31.7712585,11.1259821 C31.3591068,11.0218021 29.4276087,11.6461601 27.9130409,12.6522306 C26.3946502,13.6591433 25.3614038,15.2196774 25.2256924,15.6710437 L25.2569921,15.775344 C25.2930703,16.1214477 25.5333129,16.1568159 25.6016464,16.2945597 C25.6739223,16.4342282 25.7061777,16.1568159 25.8096337,17.6486587 C25.9141649,19.1403811 27.5008892,20.8405837 28.7068809,21.6036479 C29.6764528,22.2185022 31.1369033,22.0903825 31.7437817,22.0903825 C32.224267,23.0361826 33.095042,24.741077 33.983856,26.4843471 C34.137726,26.8783302 34.2240987,27.1393817 34.1832419,27.1556222 C34.0104966,27.2244339 23.1213295,17.5099525 22.9854987,17.5443584 C22.8497873,17.5787642 23.3302725,20.2161054 23.1213295,20.3548115 C22.9181208,20.4943598 20.0892072,16.3299279 19.8489646,16.5040023 C19.608722,16.676994 20.5374371,20.875952 20.4016063,20.980132 C20.2611163,21.0834698 16.4399326,20.980132 16.3668204,21.1532439 C16.2993231,21.3263559 19.0599032,23.998103 19.0599032,24.2409891 C19.0599032,24.4838751 17.2650722,25.211571 17.3011504,25.4200513 C17.3372286,25.6285315 25.5693911,27.1192915 25.5693911,27.1192915 C25.5693911,27.1192915 23.846836,28.7153142 23.8107578,28.8893886 C23.7794581,29.0633427 31.5670941,29.410529 31.5670941,29.410529 C31.5670941,29.410529 29.9442916,31.6998418 29.9128725,31.94357 C29.8767943,32.186456 35.9419947,30.4155169 35.9419947,30.4155169 C35.9419947,30.4155169 36.1137843,30.695696 36.3000291,31.0236344 C36.5354931,31.4846247 36.7083579,31.8221871 36.7985534,31.9951787 C36.7985534,32.0009531 36.8032125,32.0086524 36.8032125,32.0134644 C36.8346316,32.2562302 33.5480504,48.2983815 33.5480504,48.2983815 C33.5480504,48.2983815 33.5983449,48.1865023 33.6885404,47.9847589 C33.6392017,48.250502 33.5935663,48.4657191 33.5660895,48.6043049 C30.0164481,52.2065739 27.0109663,55.2551012 26.2720798,56 C24.1601907,54.118144 5.03802493,37.0987942 4,36.175009 L4,22.7253269 L8.13465794,25.7728917 L7.98556655,25.8982445 C7.98556655,25.8982445 5.14243669,32.1052534 5.19273114,32.0592987 C5.32378343,31.926367 7.29135975,37.9689255 7.40437293,37.8838733 C7.52312041,37.7987008 8.03968385,35.4090577 8.18017382,35.199615 C8.31600468,34.9911348 11.8115288,42.5360021 11.9653988,42.2797627 C12.1191493,42.0253278 13.1209766,40.3749294 13.2122473,40.2257572 C13.2976642,40.0756226 18.2298655,47.7925192 18.5660379,48.2448479 C18.8964761,48.6971766 20.0483504,46.9405532 20.2887125,46.9261172 C20.5241766,46.9137263 23.6977446,51.3994799 23.5885542,51.2207138 C23.4755411,51.0418275 24.4004333,49.6571722 24.3633994,49.4841805 C24.3273212,49.3091437 29.2234443,50.4107326 29.2234443,50.4107326 C29.2234443,50.4107326 22.7319955,43.4760279 22.6730996,43.2379538 C22.6095447,42.998797 24.6815327,42.884993 24.7262124,42.6583474 C24.7717282,42.4308598 15.0392141,35.5419894 14.9119847,35.330622 C14.7895338,35.1193748 16.3127031,33.275654 16.3127031,33.275654 L9.82113486,29.3492962 C9.82113486,29.3492962 10.4013728,27.6759205 10.6463939,27.9895431 C10.8866366,28.3012409 16.5034875,31.7226988 17.8899897,33.1733989 C17.8899897,33.1733989 17.268895,35.9972053 19.7084746,38.0962031 C21.2857612,39.4511442 23.0719908,39.3995355 23.4394628,39.4712344 C23.8059792,39.5429333 23.692966,39.8470522 24.1146748,39.7819698 C24.5362642,39.7179701 25.8324514,38.6287721 26.8523177,37.1111851 C27.8637021,35.5898689 28.4438206,34.0244024 28.5616123,33.7337572 L28.4846774,33.6505094 C28.3213697,33.3436236 28.0859057,33.4037737 27.9681139,33.3044058 C27.8503221,33.2020303 28.0725257,33.3884956 27.2606466,32.1329225 C25.786816,29.8580458 24.4773683,29.838918 23.0672122,29.6018064 C21.9381555,29.4143786 20.6466274,30.0923905 20.0845481,30.3304646 C18.4113317,29.1006357 14.2548118,26.0377928 10.741368,23.4492935 L11.1990356,22.2366675 C11.1990356,22.2366675 15.9774864,22.626801 16.0638591,22.4097795 C16.149276,22.1927579 14.5130936,20.502059 14.5995857,20.2858795 C14.6850026,20.068858 19.1643149,18.551271 19.1643149,18.2481145 C19.1643149,17.9450783 17.99918,16.8606924 17.8719506,16.6006034 C17.7408983,16.340394 20.7141247,13.8695483 20.455843,13.7393835 C20.1974418,13.609339 18.5157435,13.6524065 18.216605,13.3923174 C17.9126879,13.1322284 20.5830725,5.4161739 20.4111634,5.19915235 C20.2382986,4.98213079 15.3744308,9.83792788 15.2472014,9.83792788 C15.1161491,9.83792788 14.2548118,8.6234974 13.9965301,8.71059475 C13.7382484,8.79757179 11.9748365,14.2596819 11.715599,14.302629 C11.4573173,14.3466589 11.0679833,12.8290719 10.8542618,12.916049 C10.6548759,12.9964095 8.36164003,20.4456382 8.04828528,21.4668666 C6.85650985,20.5899984 5.91823758,19.8967084 5.44157519,19.5457927 C6.86116896,17.5548245 14.3137077,7.12311337 16.5443443,4 C28.8740114,4.01720293 45.9963455,4.04018027 48,4.04306747" id="Fill-2" fill="#FFFFFF"></path>
                <path d="M35,35.0257154 C35,35.0257154 34.2355608,38.4177724 32.2395528,41.1847639 C30.2386606,43.9518744 27.2253624,45.9453265 26.3413229,45.9982679 C25.4673024,46.048473 26.2228499,45.0034454 25.3816411,43.3617859 C24.5405576,41.7228627 23.9222685,40.7318472 24.0079298,40.5541068 C24.2030471,40.1427105 25.4145781,39.7540373 26.7405746,37.9600969 C28.0714553,36.1661565 28.9365842,34.4299164 28.9794148,34.0800272 C29.017236,33.7291863 30.8419214,34.6398974 31.8215157,34.7343592 C32.8049924,34.8289399 34.6107672,34.7693362 35,35.0257154" id="Fill-3" fill="#916CAF"></path>
                <path d="M18,10.9339871 C18,10.9339871 19.9106412,8.05433212 22.6530553,6.2157119 C25.3954693,4.37612944 28.9437865,3.78723211 29.7137273,4.0654428 C30.4836682,4.34172898 29.4454023,5.03683471 29.5467927,6.8743724 C29.6473711,8.71395486 29.9166242,9.30297247 29.7800835,9.4424988 C29.6473711,9.58118316 27.9045925,9.68438453 26.099982,10.864224 C24.2907312,12.0440634 23.0883149,13.6388734 22.9213803,13.9514845 C22.7535177,14.2640957 21.6183856,12.9810549 20.8124825,12.5287971 C20.0111036,12.0775016 18.2378151,11.3155195 18,10.9339871" id="Fill-4" fill="#916CAF"></path>
                <path d="M4,4.00011295 L13,4.010843 L4,15 L4,4 L4,4.00011295" id="Fill-5" fill="#FFF200"></path>
            </g>
        </g>
    </g>
</svg>