<?xml version="1.0" encoding="utf-8"?>
<!-- Generator: Adobe Illustrator 17.1.0, SVG Export Plug-In . SVG Version: 6.00 Build 0)  -->
<!DOCTYPE svg PUBLIC "-//W3C//DTD SVG 1.1//EN" "http://www.w3.org/Graphics/SVG/1.1/DTD/svg11.dtd">
<svg version="1.1" id="Layer_1" xmlns="http://www.w3.org/2000/svg" xmlns:xlink="http://www.w3.org/1999/xlink" x="0px" y="0px"
	 viewBox="0 0 420 299" enable-background="new 0 0 420 299" xml:space="preserve">
<path fill="#FFFFFF" d="M29.9,92.9c0-10.8,2.1-20.6,6.3-29.3s10.7-15.7,19.4-21.1c8.8-5.4,19.1-8,31.1-8c6.1,0,12.3,0.9,18.5,2.7
	c6.2,1.8,11.2,3.6,14.9,5.4l5.6,2.9c0.3,0,0.8-0.2,1.5-0.8c0.7-0.5,1.3-0.8,1.7-0.8c0.5,0,0.9,0.2,1.4,0.6c0.5,0.4,0.8,1.5,0.8,3.4
	c0,1.9,0.2,4.4,0.6,7.7c0.4,3.3,0.7,5.9,1,8c0.3,2.1,0.4,3.4,0.4,3.8c0,1.8-0.6,2.7-1.8,2.7c-0.9,0-1.8-0.7-2.6-2.1
	c-9.7-18.2-23.7-27.3-42-27.3c-12.5,0-22.8,4-30.8,12c-8,8-12,18.5-12,31.4c0,14.4,3.7,26.7,11.1,36.9c3.8,5.2,9,9.3,15.6,12.3
	c6.6,3,14.3,4.5,23.1,4.5c14.4,0,26.5-7.5,36.3-22.5c0.4-0.7,1.1-1.1,2.3-1.1c0.9,0,1.4,0.6,1.4,1.9c0,1.3-0.2,2.8-0.5,4.7
	c-0.4,1.9-0.8,3.9-1.3,6.2c-0.5,2.3-0.8,3.6-0.9,4.1c-0.2,1.1-1,2-2.4,2.7c-5.4,2.6-9.6,4.6-12.6,5.9c-8,3.4-16.5,5.1-25.6,5.1
	c-9.1,0-17.1-1.1-24.1-3.2c-7-2.1-12.7-4.9-17.2-8.3c-4.5-3.4-8.2-7.4-11.2-12C32.6,113.1,29.9,103.7,29.9,92.9L29.9,92.9z"/>
<path fill="#FFFFFF" d="M157.4,81.3l0.1-16.2v-6.9c0-4.4-0.2-7.9-0.5-10.6c-0.4-2.7-1.7-4.6-4.1-5.9c-2.4-1.3-4.7-2-7-2.1
	c-2.3-0.1-3.5-0.9-3.5-2.3c0-1.4,1.4-2.2,4.2-2.2l17,0.6l13.2-0.3c2.7,0,4.1,0.7,4.1,2.1c0,0.8-2.3,2.2-6.9,4.1
	c-3.2,1.3-4.8,7.1-4.8,17.3l-0.4,55.5c0,8.4,1.2,14.3,3.5,17.7c2.4,3.4,4.8,5.1,7.4,5.1l3,0.1c0.7,0,1.4,0.2,2.1,0.5
	c0.7,0.4,1.1,0.9,1.1,1.7c0,1.4-1.3,2.1-3.8,2.1l-14.3-0.6l-16.5,0.8c-4.5,0-6.8-0.8-6.8-2.3c0-1.4,1.6-2.3,4.7-2.7
	c1.2-0.1,2.5-0.7,3.8-1.9c1.3-1.1,2.1-2.5,2.5-3.9c0.3-1.4,0.8-7.5,1.2-18.2c0.4-10.7,0.7-18.3,0.7-23L157.4,81.3L157.4,81.3z"/>
<path fill="#FFFFFF" d="M192.5,33.9c1.3,0,5.4,0.2,12.2,0.6c6.9,0.4,20.3,0.6,40.5,0.6s32.3-0.3,36.5-0.9c1.1,0,1.9,0.3,2.3,0.9
	c0.4,0.6,0.6,1.2,0.6,1.7l0.9,12.2c0,2.5-0.1,4.1-0.5,4.7c-0.3,0.7-1,1-2,1c-0.8,0-1.5-1-2-3.1c-0.6-2-1.1-3.6-1.7-4.7
	c-1.5-2.6-5.9-3.9-13.1-3.9h-19.5c-2.4,0-3.9,0.5-4.4,1.4c-0.6,1-0.8,3.7-0.8,8.2v7.4l-0.5,54.9l-0.1,9.8c0,4.3,0.7,7.1,2,8.4
	c1.4,1.3,2.8,2.3,4.4,2.9c1.6,0.7,3,1,4.1,1.1c2.8,0.2,4.2,1.1,4.2,2.7c0,1.1-0.3,1.8-0.8,2.1c-0.5,0.3-1.5,0.4-2.9,0.4l-16.7-1.2
	l-15.3,1.1c-3.7,0-5.6-0.8-5.6-2.4c0-1,0.3-1.7,0.9-2c0.6-0.4,1.8-0.6,3.5-0.9c1.8-0.2,2.9-0.4,3.4-0.5c3.4-0.8,5.3-2.8,5.7-6
	c1-8.8,1.5-27.7,1.5-56.7l-0.1-26.9c0-1.9-0.6-3.1-1.6-3.5c-1.1-0.5-4.8-0.7-11-0.7c-6.2,0-11.1,0.2-14.6,0.6
	c-3.6,0.4-5.6,0.8-6.2,1.1c-0.6,0.4-1.3,1.1-2.2,2.2c-0.9,1.1-1.6,2.4-2.1,3.8c-0.6,1.5-0.9,2.6-1.1,3.5c-0.3,2.3-1.3,3.5-2.9,3.5
	c-1.1,0-1.7-0.8-1.7-2.6c0-4,0.2-7.6,0.8-10.9c0.5-3.2,0.8-5.1,0.8-5.6c0-0.5,0.1-0.8,0.1-1c0-0.2,0.1-0.4,0.1-0.8
	c0-0.3,0.1-0.6,0.2-0.8c0.1-0.2,0.2-0.3,0.4-0.6c0.1-0.2,0.3-0.4,0.5-0.5c0.2-0.1,0.4-0.2,0.8-0.3C190.2,34,191.2,33.9,192.5,33.9
	L192.5,33.9z"/>
<path fill="#FFFFFF" d="M335.2,128.3l0.3-30.5c0-4.2-1.3-8.3-3.9-12.3c-2.4-3.8-5.6-8.6-9.5-14.3s-7.4-10.8-10.4-15.4
	c-3-4.6-5.8-8.1-8.3-10.5c-2.5-2.5-4.4-3.9-5.8-4.4s-3.1-0.7-5.3-0.7c-2.2,0-3.2-0.6-3.2-1.8s0.6-2,1.7-2.3c1.1-0.3,3.7-0.5,7.6-0.5
	l8.7,0.3l12.8-0.2c5,0,7.5,0.6,7.5,1.7c0,1.2-1.1,2.1-3.2,2.9s-3.2,1.6-3.2,2.6c0,1,0.3,2.2,1,3.8c0.6,1.6,1.3,2.9,2,3.9
	c0.6,1,1.6,2.5,2.9,4.4c1.3,1.9,2.9,4.3,4.7,7.2c1.8,2.9,4.5,6.8,8.2,11.7c3.7,4.9,5.8,7.4,6.3,7.4c0.5,0,1.3-0.6,2.2-1.7
	c0.9-1.1,2.1-3.1,3.8-5.8c1.6-2.7,2.8-4.6,3.5-5.6c0.7-1.1,1.6-2.4,2.8-4.1c1.1-1.7,2-2.9,2.4-3.6c0.5-0.7,1.1-1.8,2-3.2
	c0.9-1.4,1.5-2.6,2-3.3c0.4-0.8,0.9-1.7,1.4-2.8c1-1.8,1.5-3.3,1.5-4.5c0-3.6-2.3-5.7-6.9-6.3c-2.2-0.3-3.5-0.7-3.8-1.3
	c-0.3-0.5-0.5-1.1-0.5-1.6c0-1.2,1.4-1.8,4.2-1.8l6.2,0.2l15.9,0.2c4.9,0,7.4,0.8,7.4,2.3c0,0.4-0.3,0.8-0.9,1.1s-1.5,0.7-2.6,1.2
	c-1.1,0.5-2.1,1.1-3,1.8c-4.1,3.2-10.1,10.8-18.1,22.8c-8,12-12.6,18.9-14,20.6c-1.4,1.7-2.2,3.8-2.6,6.2c-0.4,2.4-0.6,6.5-0.6,12.3
	l0.1,17.4v3.6c0,3.3,0.6,5.9,1.7,7.8c1.1,1.9,2.2,3,3.2,3.4c1,0.4,2,0.5,3,0.5l3,0.1c0.7,0,1.2,0.2,1.6,0.7c0.4,0.4,0.6,1.1,0.6,1.8
	c0,0.8-0.3,1.3-0.8,1.6c-0.5,0.3-1.5,0.4-2.9,0.4l-15-0.1l-16.5,0.6c-2.8,0-4.2-0.5-4.2-1.5c0-1,0.3-1.7,0.8-2
	c0.5-0.4,1.5-0.6,2.8-0.7c1.3-0.1,2.3-0.2,2.9-0.4C333.1,136.1,335.2,133.1,335.2,128.3L335.2,128.3z"/>
<path fill="#FFFFFF" d="M31.6,236.9c0-5.9,1.1-11.2,3.4-16c2.3-4.7,5.8-8.6,10.6-11.5c4.8-2.9,10.4-4.4,17-4.4
	c3.3,0,6.7,0.5,10.1,1.5c3.4,1,6.1,2,8.1,2.9l3,1.6c0.2,0,0.4-0.1,0.8-0.4c0.4-0.3,0.7-0.4,0.9-0.4c0.2,0,0.5,0.1,0.8,0.3
	c0.3,0.2,0.4,0.8,0.4,1.8c0,1,0.1,2.4,0.3,4.2c0.2,1.8,0.4,3.2,0.5,4.4c0.2,1.1,0.2,1.8,0.2,2c0,1-0.3,1.5-1,1.5
	c-0.5,0-1-0.4-1.4-1.1c-5.3-9.9-12.9-14.9-22.9-14.9c-6.8,0-12.4,2.2-16.8,6.5c-4.4,4.4-6.5,10.1-6.5,17.1c0,7.9,2,14.6,6.1,20.1
	c2.1,2.8,4.9,5.1,8.5,6.7c3.6,1.6,7.8,2.5,12.6,2.5c7.9,0,14.5-4.1,19.8-12.3c0.2-0.4,0.6-0.6,1.2-0.6c0.5,0,0.7,0.3,0.7,1
	s-0.1,1.5-0.3,2.5c-0.2,1-0.4,2.1-0.7,3.4c-0.3,1.2-0.4,2-0.5,2.2c-0.1,0.6-0.5,1.1-1.3,1.5c-2.9,1.4-5.2,2.5-6.9,3.2
	c-4.4,1.9-9,2.8-13.9,2.8c-4.9,0-9.3-0.6-13.1-1.7c-3.8-1.1-6.9-2.6-9.4-4.5s-4.5-4-6.1-6.5C33.1,247.9,31.6,242.8,31.6,236.9
	L31.6,236.9z"/>
<path fill="#FFFFFF" d="M101.4,263.5l-7,0.3c-1.6,0-2.4-0.3-2.4-1c0-0.8,0.4-1.3,1.2-1.6c1.7-0.7,3.3-2.1,4.6-4.4
	c1.3-2.3,4.6-9.1,9.9-20.5c5.3-11.4,9.9-21.5,14-30.2c0.4-0.8,0.7-1.3,1-1.6c0.3-0.2,0.7-0.3,1.3-0.3s0.9,0.1,1.1,0.3
	c0.2,0.2,0.5,1,0.9,2.2c0.4,1.3,0.8,2.2,1,2.9c0.2,0.7,0.6,1.7,1.2,3.2c0.5,1.5,1.4,3.7,2.6,6.6c1.2,2.9,3.9,9.4,8.2,19.3
	c4.3,10,6.7,15.6,7.4,16.9c0.7,1.3,1.6,2.5,2.7,3.4c1.1,1,2.1,1.5,3,1.6c0.8,0.1,1.6,0.2,2.1,0.4c0.6,0.2,0.9,0.6,0.9,1.3
	c0,0.8-0.7,1.2-2.2,1.2l-7.4-0.5l-7.6,0.3c-1.7,0-2.8-0.1-3.2-0.2c-0.5-0.1-0.7-0.4-0.7-0.9c0-0.4,0.2-0.8,0.7-1
	c0.4-0.2,0.9-0.4,1.4-0.5c0.5-0.1,1-0.3,1.4-0.7c0.4-0.4,0.7-1.1,0.7-2c0-1-0.7-3.3-2-7c-1.4-3.7-2.5-6.4-3.4-8.2
	c-0.5-0.9-1.6-1.4-3.4-1.4l-9.9,0.2H115c-2.5,0-4,0.1-4.6,0.4c-0.6,0.3-1.1,0.8-1.6,1.7c-0.4,0.9-1,2.1-1.8,3.6
	c-0.8,1.6-1.3,2.6-1.6,3.2c-0.3,0.6-0.6,1.4-1,2.3c-0.7,1.6-1.1,3-1.1,4.1c0,1.1,0.3,2,0.9,2.6c0.6,0.7,1.3,1,2.1,1.1
	c2,0.2,3,0.7,3,1.6c0,0.4-0.1,0.7-0.2,0.9c-0.2,0.2-0.5,0.3-1.1,0.3L101.4,263.5L101.4,263.5z M116.4,225.9c-2.6,6-3.9,9.4-3.9,10
	s0.2,1.1,0.7,1.2c0.5,0.2,1.6,0.2,3.4,0.2h2.5l7.8-0.1c2.1,0,3.2-0.4,3.2-1.2c0-0.8-1.3-4.2-4-10.2c-2.7-6-4.4-9-5.1-9
	C120.6,216.9,119,219.9,116.4,225.9L116.4,225.9z"/>
<path fill="#FFFFFF" d="M161.8,263.7c-1.1,0-1.7-0.4-1.7-1.3c0-0.7,0.8-1.1,2.5-1.1c0.6-0.1,1.3-0.5,2-1.4c0.8-0.8,1.3-2,1.6-3.4
	c0.3-1.4,0.7-6.3,1.1-14.6c0.4-8.3,0.6-14.8,0.6-19.5c0-4.7-0.5-8.1-1.6-10.2c-1.1-2.1-3.4-3.5-6.9-4.3c-0.7-0.2-1.1-0.6-1.1-1.2
	c0-0.8,0.5-1.2,1.5-1.2l4.3,0.3l6.1-0.2c1,0,1.7,0.4,2,1.1c0.7,1.4,1.8,4,3.5,7.6c1.7,3.7,3,6.6,4,8.8c1,2.2,2.3,5,3.9,8.3
	c1.6,3.4,2.9,6.1,3.8,8.2c1,2.1,2,4.2,3.1,6.3s1.9,3.7,2.5,4.7c0.6,1,0.9,1.5,1.1,1.5s0.3-0.1,0.5-0.3c0.2-0.2,0.4-0.4,0.6-0.8
	c0.2-0.3,0.4-0.7,0.5-1c0.1-0.3,0.3-0.7,0.6-1.3c0.2-0.5,0.4-0.9,0.5-1.2l10.6-21.8c2.9-5.9,4.8-10,5.8-12.4l1.9-4.1
	c0.2-0.4,0.3-0.8,0.4-1l0.2-0.6l0.2-0.4c0.1-0.1,0.1-0.4,0.3-0.7c0.1-0.4,0.3-0.7,0.4-0.8c0.4-0.4,1.2-0.7,2.4-0.7l7,0.2
	c0.9,0,1.4,0.4,1.4,1.1c0,0.5-0.2,0.9-0.5,1.2c-0.4,0.2-1.1,0.4-2.4,0.6c-1.2,0.2-2.1,0.8-2.7,2c-0.5,1.2-0.8,4.5-0.8,9.9
	c0,5.4,0.2,11,0.5,17c0.3,6,0.5,9.7,0.5,11.2c0,5.5,0.4,8.9,1.3,10.4s2.7,2.2,5.5,2.2c0.4,0,0.7,0.1,1,0.4c0.3,0.3,0.5,0.5,0.5,0.7
	c0,0.9-0.3,1.3-0.9,1.3h-0.9l-8.3-0.3l-8.5,0.4c-1,0-1.5-0.4-1.5-1.1c0-0.8,0.7-1.3,2.2-1.5c0.5-0.1,1.1-0.4,1.8-1
	c0.6-0.6,1.1-1.5,1.3-2.7c0.2-1.2,0.4-2.8,0.4-4.9c0-2.1,0-4.3-0.1-6.8s-0.2-4.8-0.3-7.2c-0.1-2.3-0.2-4.5-0.3-6.5s-0.2-3.7-0.2-5
	l-0.2-2c0-2.3-0.2-3.5-0.7-3.5c-0.2,0-0.3,0.1-0.5,0.2l-0.4,0.4c-0.1,0.1-0.2,0.3-0.3,0.5c-0.1,0.2-0.2,0.4-0.3,0.6
	c-0.1,0.2-0.2,0.4-0.4,0.7l-0.4,0.8l-0.4,0.9c-0.2,0.4-0.4,0.7-0.5,1l-11.4,23c-1.3,2.7-2.6,5.3-3.8,7.9s-2,4-2.2,4.4
	c-0.2,0.4-0.5,0.5-0.9,0.5c-0.4,0-0.8-0.2-1.1-0.7c-0.3-0.5-0.8-1.5-1.5-3.1c-0.7-1.6-1.2-2.9-1.7-3.9c-10-20.3-15.1-30.6-15.3-30.9
	c-0.2-0.3-0.4-0.4-0.6-0.4c-0.4,0-0.7,1.1-0.7,3.3l-0.7,21.6v3.7c0,4.5,0.9,7.2,2.7,8.3c0.9,0.5,1.8,0.8,2.7,0.9
	c1.4,0.2,2,0.5,2,1.1c0,0.6-0.1,1-0.2,1.1s-0.5,0.3-1,0.3l-8.5-0.3L161.8,263.7L161.8,263.7z"/>
<path fill="#FFFFFF" d="M241.1,228.2l-0.1-13.9c0-1.5-0.5-2.9-1.4-4.4c-0.9-1.4-2.5-2.2-4.6-2.2c-1.1,0-1.6-0.4-1.6-1.1
	c0-0.9,0.6-1.3,1.9-1.3l3-0.1l4.9,0.2l13.5-0.2c5.1,0,9.5,1.3,13.3,3.9c3.7,2.6,5.6,6.3,5.6,11.2c0,2.7-0.5,5.1-1.5,7.2
	c-1,2.1-2.2,3.8-3.6,4.9c-1.4,1.2-3,2.2-4.7,3c-2.8,1.3-5.3,1.9-7.4,1.9c-2.2,0-4.2-0.2-6-0.6c-1.8-0.4-2.7-0.8-2.7-1.3
	c0-0.8,0.4-1.2,1.1-1.2c0.3,0,0.8,0.1,1.7,0.3c0.8,0.2,1.8,0.3,2.8,0.3s2.3-0.2,3.7-0.5c1.4-0.4,2.9-0.9,4.4-1.7
	c1.5-0.8,2.8-2,3.8-3.6c1-1.6,1.5-3.5,1.5-5.6c0-3.7-1.5-7-4.4-10.2c-2.9-3.1-7-4.7-12.2-4.7c-1.7,0-2.8,0.5-3.4,1.5
	c-0.6,1-0.9,3.3-0.9,6.8l-0.2,33.8c0,6.3,1.9,9.7,5.6,10.1c0.9,0.1,1.7,0.2,2.3,0.2c1.5-0.1,2.3,0.4,2.3,1.6c0,0.9-0.6,1.4-1.9,1.4
	l-11.7-0.4l-7.6,0.3c-1.7,0-2.5-0.3-2.5-0.9c0-0.9,0.3-1.5,0.9-1.7c0.3-0.1,0.5-0.2,0.6-0.2c0.1-0.1,0.4-0.1,0.8-0.2
	c0.4-0.1,0.7-0.1,0.8-0.2c0.1-0.1,0.3-0.1,0.5-0.1c0.2,0,0.4-0.1,0.4-0.1c0.1,0,0.2-0.1,0.4-0.2c0.2-0.1,0.3-0.3,0.4-0.6
	c0.1-0.2,0.3-0.6,0.4-1c0.2-0.4,0.4-1,0.7-1.9c0.3-0.8,0.6-4.8,0.8-12C241,237.7,241.1,232.2,241.1,228.2L241.1,228.2z"/>
<path fill="#FFFFFF" d="M287.1,228.2l0.2-11.8c0-3-0.4-5.1-1.1-6.2c-0.7-1.1-2.4-1.9-5-2.2c-1.2-0.2-1.8-0.7-1.8-1.6
	c0-0.4,0.2-0.7,0.5-0.9c0.3-0.1,0.8-0.2,1.4-0.2l9.2,0.3l7.7-0.2c1.1,0,1.7,0.4,1.7,1.1c0,0.5-0.2,0.8-0.6,0.9
	c-0.4,0.1-0.9,0.2-1.4,0.2c-0.6,0.1-1.1,0.2-1.7,0.6c-1.4,0.8-2,3.3-2,7.6v2.3l-0.1,17.7c0,5.4,0.2,8.9,0.5,10.6s0.7,3.1,1.1,4.5
	c0.4,1.4,1,2.5,1.6,3.3c0.6,0.8,1.4,1.7,2.4,2.7c1,1,2.1,1.7,3.3,2.3c2.9,1.2,6.3,1.8,10.1,1.8c5.9,0,10-0.7,12.3-2
	c1-0.5,2.1-1.4,3.4-2.6c1.3-1.2,2.3-2.6,3-4.3c1.7-4,2.5-9.2,2.5-15.4l-0.1-17.3c0-1.9,0-3.4-0.1-4.5c-0.1-1.1-0.4-2.3-0.8-3.6
	c-0.5-1.3-1.1-2.2-1.8-2.7c-0.7-0.5-1.5-0.8-2.4-0.9l-2.1-0.3c-0.5-0.1-0.8-0.3-0.8-0.7c0-0.9,0.5-1.3,1.6-1.3l6.3,0.2l7-0.2
	c1.1,0,1.7,0.4,1.7,1.1c0,0.4-0.6,1-1.8,1.7c-1.2,0.7-1.9,1.3-2.2,1.8c-0.6,1.1-0.9,2.9-0.9,5.4l0.1,5.5c0,10.5-0.4,18.5-1.3,24.1
	c-0.9,5.6-2.2,9.6-4,12.1c-3.7,5.3-10.1,7.9-19.4,7.9s-15.8-1.7-19.6-5.2c-3-2.8-4.9-6.1-5.6-10c-0.7-3.9-1.1-10.6-1.1-20.2
	L287.1,228.2L287.1,228.2z"/>
<path fill="#FFFFFF" d="M381.6,207.1l1.9-0.7c0.7,0,1.1,0.2,1.2,0.7c1.1,6.6,1.7,10.5,1.7,11.7s-0.4,1.8-1.1,1.8
	c-0.5,0-1-0.6-1.4-1.8c-0.5-1.2-1-2.2-1.6-3.2c-0.6-1-1.1-1.6-1.4-1.9c-0.3-0.3-1-0.9-2.1-2c-2.9-2.6-6.3-3.9-10.1-3.9
	c-3.8,0-6.8,0.8-9.1,2.5c-2.3,1.6-3.4,3.8-3.4,6.4c0,2.6,0.7,4.7,2,6.3c1.3,1.6,3.1,2.8,5.4,3.7c2.2,0.9,4.6,1.7,7,2.5
	c6.6,2.1,11.5,4.8,14.6,8.1c2.2,2.3,3.3,5.3,3.3,8.8c0,5.7-1.8,10.3-5.5,13.6c-3.7,3.4-8.2,5-13.6,5c-3.8,0-6.8-0.2-9.1-0.6
	c-2.3-0.4-4.6-1.2-7-2.5c-0.7-0.4-1.6-2.6-2.5-6.4c-1-3.8-1.5-6.2-1.5-7.2c0-1,0.4-1.4,1.1-1.4s1.2,0.3,1.4,0.8
	c2,4.9,4.4,8.3,7.1,10.3c2.9,2.2,6.5,3.4,10.7,3.4s7.5-1.1,10-3.2c2.5-2.2,3.7-5,3.7-8.5c0-2.6-0.8-4.7-2.5-6.4
	c-1.7-1.7-3.6-3-5.8-3.7c-8.1-2.7-13.6-4.9-16.5-6.6c-5-2.9-7.4-6.9-7.4-11.9c0-5,1.8-8.9,5.3-11.8c3.5-2.9,8.1-4.4,13.7-4.4
	c2.1,0,4.5,0.4,7.4,1.4C380.1,206.7,381.6,207.1,381.6,207.1L381.6,207.1z"/>
<path fill="#FFFFFF" d="M158.9,184.6c-1.9,0-3.1-0.6-3.8-1.7c-0.7-1.1-1-2.7-1-4.9s0.9-4.7,2.8-7.6c1.9-3,4-5,6.4-6.2
	c1.2-0.6,2.2-0.9,3-0.9s1.7,0.1,2.5,0.3c0.9,0.2,1.5,0.3,1.9,0.3s0.9-0.4,1.4-1.2c0.5-0.8,0.9-1.2,1.3-1.2s0.5,0.2,0.5,0.6
	c0,0.4-0.1,1-0.4,1.7c-0.3,0.8-0.4,1.3-0.5,1.5c-0.1,0.3-0.4,2.2-1.1,5.8c-0.6,3.6-1,5.8-1,6.6c0,0.8,0.2,1.5,0.5,2.1
	c0.3,0.6,0.7,0.9,1.3,0.9c0.5,0,1.1-0.5,1.9-1.6c0.8-1,1.3-1.6,1.5-1.6c0.3,0,0.4,0.2,0.4,0.7c0,0.5-0.3,1.1-0.9,2
	c-0.6,0.9-1.4,1.8-2.3,2.6c-0.9,0.8-1.8,1.2-2.5,1.2c-0.8,0-1.4-0.4-1.8-1.3c-0.4-0.9-0.7-1.8-0.8-2.7c-0.1-0.9-0.1-1.3-0.2-1.3
	c0,0-0.2,0.2-0.6,0.6c-0.3,0.4-0.8,0.9-1.3,1.4c-0.6,0.6-1.2,1.1-1.9,1.7C162.6,183.9,160.8,184.6,158.9,184.6L158.9,184.6z
	 M157.7,175.5c-0.2,1-0.2,1.9-0.2,2.9s0.4,1.8,1.1,2.5c0.7,0.7,1.7,1.1,3,1.1c1.3,0,2.5-0.5,3.6-1.5c1.1-1,1.9-1.9,2.2-2.7
	s0.8-2.1,1.2-4c0.9-4.2,1.3-6.6,1.3-7.3s-0.4-1.2-1.1-1.4c-0.7-0.3-1.5-0.4-2.4-0.4s-1.9,0.4-3,1.1s-2,1.7-2.7,2.8
	C159,171.3,158,173.6,157.7,175.5L157.7,175.5z"/>
<path fill="#FFFFFF" d="M183.7,184.5c-1.4,0-2.6-0.2-3.8-0.7c-1.1-0.5-1.7-1.3-1.7-2.5c0-1.1,0.5-1.7,1.5-1.7c0.5,0,1,0.2,1.3,0.5
	c0.4,0.4,0.6,0.7,0.8,1.1s0.4,0.8,0.9,1.1c0.4,0.4,1,0.5,1.7,0.5s1.4-0.1,2-0.4c0.6-0.3,1-0.6,1.2-1c0.4-0.7,0.6-1.3,0.6-1.8
	s-0.1-1-0.2-1.4c-0.1-0.4-0.4-0.9-0.9-1.5c-0.5-0.6-0.8-0.9-0.9-1.1l-2.5-2.5c0,0-1.1-1.1-1.4-1.5c-0.3-0.4-0.5-0.7-0.6-1
	c-0.4-0.8-0.5-1.6-0.5-2.4c0-1.6,0.6-2.9,1.9-3.9c1.2-1,2.8-1.5,4.7-1.5c3,0,4.5,0.8,4.5,2.5c0,0.4-0.1,0.8-0.4,1.1
	c-0.4,0.4-0.9,0.5-1.4,0.5s-1.2-0.4-1.8-1.3c-0.7-0.9-1.3-1.3-1.9-1.3c-1.7,0-2.6,0.9-2.6,2.6c0,1,0.8,2.2,2.5,3.8
	c0.9,0.8,1.3,1.3,1.4,1.3s0.4,0.4,0.8,0.9c0.5,0.5,0.8,0.9,1,1.1c0.2,0.2,0.4,0.6,0.7,1.1c0.5,0.8,0.8,1.7,0.8,2.6s-0.1,1.7-0.3,2.3
	c-0.2,0.6-0.6,1.3-1.1,2c-0.5,0.7-1.3,1.3-2.3,1.8C186.3,184.2,185.1,184.5,183.7,184.5L183.7,184.5z"/>
<path fill="#FFFFFF" d="M212.8,184.4c-2.2,0-4-0.7-5.4-2.2c-1.4-1.5-2.1-3.7-2.1-6.8s1-5.9,3.1-8.5s4.8-3.9,8.3-3.9
	c2.3,0,4,0.8,5.2,2.4c1.2,1.6,1.8,3.6,1.8,5.8c0,2.3-0.4,4.4-1.2,6.3c-0.8,1.9-2.1,3.6-3.8,4.9C217,183.7,215,184.4,212.8,184.4
	L212.8,184.4z M216,164.4c-1.2,0-2.4,0.5-3.5,1.6c-1.1,1.1-2,2.6-2.6,4.7c-0.6,2.1-0.9,4-0.9,5.8s0.4,3.4,1.2,4.6
	c0.8,1.2,1.8,1.8,3,1.8c1.2,0,2.3-0.4,3.2-1.3c0.9-0.9,1.7-1.9,2.1-3.2c1-2.7,1.5-5.1,1.5-7.4c0-2.2-0.4-3.9-1.2-5
	C218.2,164.9,217.2,164.4,216,164.4z"/>
<path fill="#FFFFFF" d="M226,169.7c0-1.2,0.5-2.6,1.6-4.1c1.1-1.5,2.4-2.3,3.8-2.3c0.5,0,0.9,0.3,1.2,0.8c0.4,0.7,0.6,1.7,0.6,3
	c0,1.3-0.3,3.5-0.9,6.6c-0.6,3.1-0.9,5.1-0.9,5.9s0.1,1.3,0.3,1.5c0.2,0.2,0.4,0.4,0.6,0.4s0.4,0,0.5-0.1c0.2,0,0.4-0.1,0.6-0.2
	c0.2-0.1,0.4-0.2,0.5-0.4c0.2-0.1,0.4-0.3,0.6-0.5c0.2-0.2,0.4-0.4,0.6-0.6l0.6-0.7c0.3-0.3,0.5-0.6,0.6-0.7l1.4-1.7
	c2.3-2.8,4.1-6.9,5.6-12.5c0.1-0.5,0.7-0.8,1.6-0.8c0.9,0,1.4,0.4,1.4,1.1c0,0.3-0.5,2.7-1.5,7.3c-1,4.5-1.5,7.2-1.5,8
	s0.4,1.3,1.1,1.3c1.3,0,2.5-0.9,3.3-2.7c0.3-0.6,0.6-0.9,0.8-0.9c0.4,0,0.7,0.4,0.7,1.2s-0.8,1.9-2.3,3.5c-1.5,1.6-3.3,2.4-5.2,2.4
	c-1,0-1.4-0.9-1.4-2.6c0-1.6,0.1-3.2,0.4-4.8c0.3-1.6,0.4-2.5,0.4-2.7c0-0.2-0.1-0.3-0.2-0.3c-0.1,0-0.2,0.1-0.4,0.3
	c-0.1,0.2-0.3,0.6-0.6,1.1c-0.3,0.5-0.6,1.1-1.1,1.7c-3.5,5-6.6,7.5-9.2,7.5c-1.1,0-1.6-1-1.6-3c0-2,0.4-4.5,1.1-7.7s1.1-5,1.1-5.8
	c0-0.7-0.3-1.1-1-1.1c-0.2,0-0.6,0.3-1,0.8c-0.4,0.6-0.8,1.1-1.1,1.7c-0.3,0.6-0.5,0.9-0.8,0.9C226.2,170.3,226,170.1,226,169.7
	L226,169.7z"/>
<path fill="#FFFFFF" d="M265.2,166.2c-0.2,1.2-0.5,1.8-1.1,1.8c-0.3,0-0.5-0.2-0.7-0.5c-0.2-0.3-0.4-0.7-0.7-1
	c-0.3-0.3-0.7-0.5-1.2-0.5c-0.9,0-1.7,1-2.4,2.9c-0.6,1.9-1.1,3.7-1.3,5.4l-0.2,1.6c-0.6,4.5-1,7-1.3,7.6c-0.3,0.4-0.8,0.6-1.4,0.6
	h-0.2c-1,0-1.4-0.4-1.4-1.3c0-0.5,0.3-2.4,1-5.7c0.7-3.3,1-5.6,1-6.9c0-2.2-0.5-3.3-1.6-3.3c-0.6,0-1.1,0.2-1.4,0.7
	c-0.4,0.5-0.7,1-0.9,1.6s-0.3,0.9-0.5,1.1c-0.1,0.1-0.2,0.2-0.4,0.2c-0.4,0-0.6-0.3-0.6-0.8c0-2.1,0.5-3.6,1.5-4.7
	c1.1-1.3,2.1-1.9,2.9-1.9c0.8,0,1.5,0.6,1.9,1.7c0.8,2.1,1.3,3.2,1.3,3.2c0,0,0.3-0.4,0.9-1.2s1.4-1.6,2.3-2.5
	c1-0.8,1.9-1.3,2.7-1.3c0.8,0,1.4,0.2,1.7,0.5c0.3,0.3,0.5,0.6,0.5,0.9c0,0.3-0.1,0.7-0.3,1.2C265.3,165.9,265.2,166.1,265.2,166.2
	L265.2,166.2z"/>
<rect x="29.8" y="172.3" fill="#FFFFFF" width="112.7" height="3"/>
<rect x="277.3" y="172.2" fill="#FFFFFF" width="112.7" height="3"/>
<path fill="#FFFFFF" d="M420,299H0V0h420V299z M3,296h414V3H3V296z"/>
</svg>
