<svg xmlns="http://www.w3.org/2000/svg" width="420" height="299"><path fill="#222" d="M29.85 92.864c0-10.807 2.102-20.563 6.304-29.269s10.68-15.734 19.438-21.088c8.755-5.352 19.137-8.03 31.145-8.03 6.102 0 12.256.9 18.461 2.702 6.204 1.801 11.157 3.603 14.86 5.403l5.553 2.852c.3 0 .8-.249 1.501-.75.699-.5 1.276-.75 1.726-.75.451 0 .924.202 1.426.601.5.401.774 1.526.825 3.377.049 1.853.249 4.404.601 7.655.35 3.253.675 5.929.976 8.03.3 2.101.45 3.354.45 3.752 0 1.801-.6 2.702-1.801 2.702-.9 0-1.751-.699-2.551-2.102-9.707-18.21-23.715-27.317-42.027-27.317-12.51 0-22.766 4.003-30.77 12.008-8.006 8.007-12.007 18.462-12.007 31.37 0 14.409 3.701 26.717 11.107 36.923 3.802 5.204 9.006 9.306 15.61 12.308 6.604 3.002 14.309 4.503 23.115 4.503 14.409 0 26.516-7.505 36.323-22.515.399-.699 1.149-1.051 2.251-1.051.901 0 1.351.626 1.351 1.876 0 1.252-.176 2.803-.525 4.653-.352 1.853-.776 3.903-1.276 6.154-.502 2.251-.802 3.628-.9 4.128-.202 1.102-1.001 2.003-2.402 2.702-5.403 2.603-9.606 4.555-12.608 5.854-8.007 3.4-16.536 5.104-25.591 5.104-9.058 0-17.087-1.051-24.09-3.152-7.005-2.101-12.735-4.852-17.186-8.255-4.454-3.401-8.18-7.404-11.182-12.008-5.405-8.106-8.107-17.562-8.107-28.37z"/><path fill="#222" d="M157.4 81.307l.15-16.21v-6.904c0-4.402-.176-7.93-.525-10.582-.352-2.65-1.703-4.627-4.053-5.929-2.353-1.299-4.679-2-6.979-2.102-2.303-.098-3.452-.875-3.452-2.326 0-1.449 1.4-2.176 4.203-2.176l16.961.6 13.208-.3c2.702 0 4.052.701 4.052 2.102 0 .802-2.303 2.153-6.904 4.053-3.204 1.301-4.803 7.054-4.803 17.261l-.45 55.536c0 8.405 1.175 14.311 3.527 17.711 2.35 3.403 4.827 5.103 7.43 5.103l3.002.15c.699 0 1.4.176 2.102.525.699.352 1.05.926 1.05 1.726 0 1.402-1.252 2.102-3.752 2.102l-14.259-.601-16.511.751c-4.503 0-6.754-.751-6.754-2.252 0-1.399 1.55-2.3 4.653-2.702 1.201-.098 2.451-.725 3.752-1.876 1.299-1.149 2.125-2.451 2.477-3.902.349-1.45.75-7.505 1.201-18.162.45-10.657.675-18.335.675-23.04v-8.556z"/><path fill="#222" d="M192.478 33.877c1.299 0 5.378.202 12.233.601 6.853.401 20.337.601 40.451.601s32.271-.3 36.473-.901c1.102 0 1.852.3 2.252.901.398.6.602 1.151.602 1.651l.9 12.158c0 2.502-.15 4.079-.451 4.728-.301.652-.951.976-1.951.976-.803 0-1.477-1.025-2.025-3.077-.553-2.049-1.127-3.625-1.727-4.728-1.502-2.601-5.854-3.902-13.059-3.902h-19.512c-2.402 0-3.879.476-4.428 1.426-.553.952-.826 3.678-.826 8.181v7.354l-.451 54.935-.148 9.756c0 4.303.674 7.106 2.025 8.405 1.352 1.302 2.826 2.277 4.428 2.927 1.6.652 2.951 1.027 4.053 1.126 2.801.202 4.203 1.102 4.203 2.702 0 1.103-.252 1.801-.752 2.102-.5.3-1.451.45-2.852.45l-16.66-1.201-15.311 1.051c-3.703 0-5.553-.8-5.553-2.401 0-.999.301-1.675.9-2.026.602-.35 1.775-.649 3.527-.9 1.75-.249 2.875-.425 3.377-.525 3.4-.8 5.303-2.8 5.703-6.004 1-8.804 1.502-27.716 1.502-56.736l-.15-26.867c0-1.899-.551-3.077-1.65-3.527-1.104-.45-4.754-.675-10.957-.675-6.205 0-11.084.202-14.635.601-3.553.401-5.628.776-6.229 1.125-.6.352-1.327 1.077-2.176 2.176-.852 1.103-1.553 2.378-2.102 3.828-.551 1.452-.926 2.626-1.125 3.527-.3 2.303-1.252 3.452-2.852 3.452-1.102 0-1.651-.849-1.651-2.552 0-4.001.249-7.629.75-10.882.5-3.25.774-5.127.826-5.629.049-.5.098-.825.15-.976.049-.15.099-.398.15-.75.049-.349.125-.6.225-.75.099-.15.226-.349.375-.6.15-.249.324-.424.525-.525.199-.099.45-.199.75-.3.601-.205 1.551-.306 2.853-.306z"/><path fill="#222" d="M335.216 128.287l.3-30.47c0-4.203-1.302-8.304-3.902-12.308-2.401-3.802-5.554-8.556-9.456-14.259s-7.354-10.83-10.356-15.385c-3.002-4.552-5.756-8.054-8.256-10.507-2.502-2.451-4.428-3.902-5.778-4.353s-3.103-.676-5.254-.676c-2.152 0-3.227-.6-3.227-1.801s.574-1.951 1.726-2.251c1.149-.3 3.678-.45 7.58-.45l8.706.3 12.758-.15c5.003 0 7.505.577 7.505 1.726 0 1.151-1.051 2.102-3.152 2.852s-3.151 1.602-3.151 2.551c0 .952.323 2.228.976 3.828.649 1.602 1.299 2.903 1.951 3.902.649 1.001 1.625 2.453 2.927 4.353 1.299 1.902 2.852 4.303 4.653 7.205 1.801 2.903 4.526 6.806 8.18 11.708 3.651 4.904 5.753 7.354 6.304 7.354.549 0 1.276-.575 2.177-1.726.9-1.149 2.15-3.077 3.753-5.779 1.599-2.702 2.751-4.578 3.452-5.628.698-1.051 1.625-2.425 2.776-4.128 1.149-1.7 1.951-2.901 2.401-3.602.45-.699 1.126-1.775 2.026-3.227.9-1.449 1.55-2.552 1.951-3.302.398-.75.85-1.674 1.351-2.777.999-1.801 1.501-3.302 1.501-4.503 0-3.602-2.303-5.704-6.904-6.304-2.202-.3-3.452-.725-3.752-1.276-.301-.549-.45-1.074-.45-1.576 0-1.201 1.399-1.801 4.202-1.801l6.154.15 15.91.15c4.901 0 7.354.75 7.354 2.251 0 .401-.3.75-.9 1.051s-1.452.701-2.552 1.201c-1.103.502-2.102 1.103-3.002 1.801-4.104 3.204-10.131 10.807-18.086 22.814-7.956 12.008-12.608 18.863-13.959 20.563-1.352 1.703-2.229 3.752-2.627 6.154-.401 2.401-.601 6.506-.601 12.308l.15 17.411v3.603c0 3.302.574 5.905 1.726 7.805 1.149 1.902 2.226 3.028 3.228 3.377.999.352 2 .525 3.002.525l3.002.15c.698 0 1.25.225 1.65.676.399.45.601 1.051.601 1.801 0 .751-.251 1.276-.75 1.576-.502.3-1.452.45-2.853.45l-15.009-.15-16.511.601c-2.803 0-4.203-.499-4.203-1.501 0-.999.274-1.675.826-2.026.549-.35 1.475-.574 2.776-.675 1.299-.099 2.251-.249 2.852-.45 4.202-1.299 6.304-4.353 6.304-9.156z"/><path fill="#222" d="M31.585 236.901c0-5.89 1.145-11.207 3.436-15.951 2.291-4.745 5.821-8.576 10.594-11.494 4.771-2.917 10.43-4.376 16.975-4.376 3.326 0 6.68.49 10.062 1.472 3.381.982 6.081 1.964 8.099 2.945l3.027 1.555c.164 0 .436-.136.818-.409.381-.272.695-.409.941-.409.245 0 .503.109.777.327.272.219.422.832.45 1.841.027 1.01.135 2.4.327 4.172.19 1.772.368 3.231.532 4.377.164 1.145.246 1.827.246 2.045 0 .981-.328 1.473-.982 1.473-.491 0-.955-.381-1.391-1.146-5.291-9.926-12.925-14.889-22.905-14.889-6.818 0-12.408 2.182-16.77 6.544-4.364 4.364-6.544 10.062-6.544 17.098 0 7.854 2.017 14.562 6.054 20.124 2.072 2.836 4.908 5.072 8.507 6.708 3.6 1.636 7.798 2.454 12.598 2.454 7.854 0 14.451-4.09 19.797-12.271.217-.381.626-.573 1.227-.573.491 0 .736.342.736 1.023s-.096 1.527-.287 2.535c-.191 1.01-.423 2.127-.695 3.354-.273 1.227-.437 1.978-.491 2.249-.11.602-.546 1.092-1.309 1.473-2.945 1.419-5.236 2.482-6.872 3.19-4.364 1.854-9.012 2.781-13.947 2.781-4.937 0-9.313-.572-13.13-1.718-3.818-1.146-6.94-2.645-9.367-4.499-2.427-1.854-4.458-4.035-6.094-6.544-2.947-4.418-4.419-9.571-4.419-15.461z"/><path fill="#222" d="M101.365 263.487l-7.035.327c-1.583 0-2.372-.327-2.372-.981 0-.764.409-1.281 1.227-1.555 1.745-.654 3.272-2.112 4.581-4.376 1.309-2.263 4.594-9.107 9.857-20.533 5.262-11.425 9.939-21.501 14.029-30.227.381-.818.722-1.336 1.023-1.555.299-.218.736-.327 1.309-.327s.941.109 1.104.327c.164.219.463.955.9 2.209.436 1.255.777 2.208 1.022 2.863.246.654.641 1.718 1.186 3.19.544 1.472 1.417 3.681 2.618 6.626 1.199 2.944 3.939 9.395 8.222 19.347 4.281 9.953 6.749 15.598 7.403 16.934.654 1.337 1.554 2.482 2.7 3.436 1.145.955 2.14 1.473 2.986 1.555.845.082 1.554.219 2.127.409.572.191.859.613.859 1.268 0 .818-.736 1.228-2.209 1.228l-7.362-.491-7.608.327c-1.691 0-2.769-.067-3.231-.204-.464-.136-.695-.422-.695-.859 0-.436.217-.777.655-1.022.436-.245.9-.409 1.391-.491.491-.081.954-.327 1.391-.736.436-.408.654-1.09.654-2.045 0-.953-.683-3.285-2.045-6.994-1.364-3.708-2.509-6.435-3.436-8.181-.491-.927-1.609-1.391-3.354-1.391l-9.898.164h-4.335c-2.454 0-3.996.137-4.622.409-.627.273-1.145.846-1.554 1.718-.409.873-.996 2.086-1.759 3.64-.764 1.555-1.282 2.632-1.554 3.231-.273.601-.601 1.364-.982 2.291-.709 1.636-1.063 3-1.063 4.09 0 1.092.313 1.964.941 2.618.626.654 1.322 1.036 2.086 1.145 2.017.164 3.027.683 3.027 1.555 0 .382-.082.669-.246.859-.164.191-.545.286-1.145.286l-6.793-.084zm15.052-37.588c-2.618 6.026-3.927 9.366-3.927 10.021s.246 1.063.736 1.228c.491.163 1.636.245 3.436.245h2.536l7.771-.082c2.127 0 3.19-.395 3.19-1.186 0-.79-1.337-4.199-4.008-10.226-2.673-6.026-4.364-9.04-5.072-9.04-.49 0-2.045 3.013-4.662 9.04z"/><path fill="#222" d="M161.818 263.651c-1.146 0-1.718-.437-1.718-1.31 0-.708.818-1.09 2.454-1.146.599-.053 1.281-.503 2.045-1.35.763-.845 1.309-1.976 1.636-3.395.327-1.418.681-6.271 1.063-14.562.381-8.289.572-14.792.572-19.511 0-4.716-.532-8.111-1.595-10.185-1.063-2.071-3.368-3.518-6.913-4.335-.709-.164-1.063-.573-1.063-1.228 0-.818.491-1.227 1.472-1.227l4.336.327 6.135-.164c1.035 0 1.69.382 1.963 1.146.654 1.419 1.827 3.968 3.518 7.648 1.69 3.682 3.04 6.613 4.049 8.794 1.008 2.183 2.303 4.964 3.886 8.345 1.581 3.382 2.863 6.122 3.845 8.221.982 2.101 2.004 4.213 3.068 6.34s1.881 3.695 2.454 4.704c.573 1.01.941 1.514 1.104 1.514s.34-.095.532-.286c.19-.19.381-.45.572-.777.19-.327.354-.654.491-.981.135-.328.327-.749.572-1.269.246-.518.422-.912.532-1.186l10.553-21.761c2.891-5.89 4.826-10.007 5.809-12.353l1.881-4.09c.164-.437.287-.777.367-1.022l.205-.573.164-.368c.053-.108.15-.354.287-.736.135-.381.285-.654.449-.817.436-.437 1.227-.654 2.373-.654l7.035.163c.926 0 1.391.355 1.391 1.063 0 .546-.178.94-.533 1.187-.355.245-1.145.449-2.371.613-1.229.164-2.115.846-2.66 2.045-.545 1.2-.816 4.486-.816 9.857 0 5.373.162 11.044.49 17.016.326 5.972.49 9.722.49 11.248 0 5.454.436 8.931 1.309 10.431s2.701 2.249 5.482 2.249c.381 0 .721.137 1.021.409.299.273.451.52.451.736 0 .873-.301 1.309-.9 1.309h-.9l-8.344-.327-8.508.409c-.982 0-1.473-.381-1.473-1.146 0-.817.736-1.309 2.209-1.473.545-.053 1.131-.395 1.758-1.022.627-.626 1.064-1.525 1.311-2.699.244-1.172.367-2.794.367-4.867 0-2.072-.041-4.336-.123-6.79s-.178-4.839-.285-7.158c-.111-2.317-.219-4.499-.328-6.544s-.191-3.723-.246-5.031l-.162-1.963c0-2.345-.246-3.518-.736-3.518-.164 0-.314.081-.451.245l-.367.409c-.109.109-.219.286-.328.531-.109.246-.219.45-.326.614-.109.163-.246.396-.41.695l-.408.776-.408.9c-.219.382-.383.709-.492.981l-11.371 22.987c-1.309 2.673-2.577 5.29-3.804 7.854s-1.951 4.022-2.168 4.376c-.218.355-.532.532-.94.532-.409 0-.777-.231-1.104-.695-.327-.463-.818-1.485-1.473-3.068-.654-1.581-1.227-2.89-1.718-3.926-9.98-20.288-15.08-30.581-15.297-30.882-.219-.299-.409-.45-.573-.45-.437 0-.654 1.092-.654 3.272l-.736 21.597v3.681c0 4.473.9 7.228 2.699 8.263.927.546 1.827.847 2.7.899 1.363.164 2.045.532 2.045 1.104 0 .573-.082.955-.246 1.146s-.491.286-.981.286l-8.508-.327-6.708.25z"/><path fill="#222" d="M241.087 228.23l-.082-13.907c0-1.472-.464-2.931-1.391-4.376-.929-1.444-2.454-2.168-4.581-2.168-1.092 0-1.637-.354-1.637-1.063 0-.872.627-1.309 1.882-1.309l3.026-.082 4.909.245 13.497-.245c5.126 0 9.543 1.296 13.253 3.886 3.708 2.591 5.562 6.312 5.562 11.166 0 2.673-.491 5.06-1.473 7.158-.981 2.1-2.168 3.75-3.559 4.949-1.391 1.2-2.959 2.209-4.703 3.026-2.782 1.256-5.264 1.882-7.444 1.882-2.183 0-4.173-.204-5.972-.613-1.8-.409-2.7-.831-2.7-1.269 0-.817.354-1.227 1.063-1.227.272 0 .831.109 1.677.327.846.219 1.786.327 2.822.327s2.263-.177 3.682-.532c1.418-.354 2.89-.927 4.418-1.718 1.525-.79 2.781-1.99 3.763-3.6.981-1.607 1.473-3.477 1.473-5.604 0-3.652-1.473-7.048-4.418-10.185-2.944-3.135-7.008-4.703-12.188-4.703-1.691 0-2.837.505-3.437 1.513-.601 1.01-.899 3.286-.899 6.831l-.164 33.785c0 6.327 1.854 9.708 5.563 10.144.927.11 1.689.164 2.29.164 1.526-.108 2.291.438 2.291 1.636 0 .927-.628 1.391-1.882 1.391l-11.698-.408-7.607.327c-1.691 0-2.536-.301-2.536-.9 0-.927.299-1.499.899-1.718.272-.108.463-.19.573-.245.108-.054.368-.123.777-.205.408-.081.681-.149.817-.204.136-.054.313-.095.532-.123.217-.026.368-.054.449-.082.082-.026.218-.108.409-.245.19-.136.34-.327.45-.572.108-.246.258-.573.45-.981.19-.409.436-1.036.736-1.882.299-.845.559-4.84.776-11.984.221-7.144.332-12.681.332-16.607z"/><path fill="#222" d="M287.142 228.23l.163-11.78c0-2.998-.355-5.058-1.063-6.176-.709-1.117-2.372-1.867-4.99-2.25-1.2-.163-1.8-.681-1.8-1.554 0-.437.164-.723.491-.859.327-.136.79-.204 1.391-.204l9.244.327 7.689-.164c1.146 0 1.718.382 1.718 1.146 0 .491-.191.791-.572.899-.383.11-.859.192-1.432.246-.573.055-1.133.245-1.677.572-1.364.765-2.046 3.301-2.046 7.607v2.291l-.081 17.67c0 5.399.163 8.917.49 10.553s.708 3.149 1.146 4.54c.436 1.391.968 2.495 1.595 3.313.627.817 1.418 1.718 2.373 2.699.953.981 2.058 1.746 3.312 2.291 2.945 1.2 6.3 1.799 10.062 1.799 5.89 0 9.98-.654 12.271-1.963.981-.545 2.113-1.403 3.395-2.577 1.281-1.172 2.277-2.604 2.986-4.294 1.689-4.036 2.536-9.163 2.536-15.38l-.082-17.343c0-1.908-.041-3.407-.123-4.499-.081-1.09-.354-2.29-.817-3.6-.464-1.309-1.051-2.209-1.759-2.699-.71-.491-1.501-.804-2.373-.94l-2.127-.328c-.545-.081-.817-.312-.817-.695 0-.871.544-1.309 1.636-1.309l6.299.164 6.954-.246c1.145 0 1.718.355 1.718 1.063 0 .438-.587.996-1.759 1.678-1.174.683-1.896 1.296-2.168 1.84-.601 1.146-.9 2.945-.9 5.399l.082 5.481c0 10.471-.437 18.487-1.309 24.05-.873 5.563-2.209 9.6-4.009 12.107-3.654 5.291-10.117 7.936-19.388 7.936s-15.816-1.745-19.633-5.236c-3-2.781-4.854-6.121-5.562-10.021-.71-3.898-1.063-10.621-1.063-20.165v-1.389z"/><path fill="#222" d="M381.626 207.124l1.881-.654c.708 0 1.117.218 1.228.654 1.145 6.599 1.718 10.484 1.718 11.657s-.383 1.759-1.146 1.759c-.491 0-.969-.586-1.432-1.759-.464-1.173-1.01-2.25-1.636-3.231-.628-.981-1.078-1.608-1.35-1.882-.273-.272-.982-.927-2.127-1.963-2.945-2.618-6.313-3.927-10.104-3.927-3.791 0-6.83.818-9.121 2.454-2.29 1.636-3.436 3.763-3.436 6.381 0 2.617.667 4.718 2.004 6.299 1.336 1.582 3.121 2.81 5.358 3.682 2.235.873 4.581 1.69 7.035 2.454 6.598 2.073 11.479 4.772 14.644 8.099 2.18 2.345 3.271 5.264 3.271 8.753 0 5.727-1.827 10.267-5.48 13.62-3.654 3.354-8.181 5.031-13.58 5.031-3.763 0-6.789-.204-9.08-.613-2.29-.409-4.636-1.24-7.035-2.495-.709-.437-1.555-2.563-2.536-6.381-.981-3.816-1.473-6.203-1.473-7.158 0-.953.368-1.432 1.104-1.432s1.187.273 1.35.818c2.018 4.854 4.39 8.29 7.117 10.308 2.945 2.236 6.504 3.354 10.676 3.354s7.498-1.076 9.98-3.231c2.48-2.153 3.722-4.976 3.722-8.467 0-2.562-.846-4.703-2.536-6.421-1.69-1.719-3.627-2.958-5.808-3.723-8.127-2.727-13.635-4.935-16.524-6.626-4.964-2.945-7.444-6.898-7.444-11.862 0-4.962 1.759-8.902 5.276-11.82 3.518-2.917 8.084-4.377 13.702-4.377 2.072 0 4.54.45 7.403 1.351 2.865.898 4.323 1.348 4.379 1.348z"/><path fill="#222" d="M158.948 184.597c-1.862 0-3.139-.554-3.829-1.662-.691-1.107-1.036-2.729-1.036-4.863s.931-4.68 2.793-7.634c1.861-2.953 3.997-5.009 6.405-6.164 1.188-.578 2.191-.867 3.01-.867s1.653.089 2.504.265c.85.177 1.493.266 1.926.266.433 0 .907-.394 1.42-1.181.513-.786.939-1.18 1.276-1.18s.506.192.506.578c0 .385-.137.963-.41 1.733-.273.771-.441 1.285-.505 1.541-.065.258-.418 2.176-1.06 5.756-.643 3.58-.963 5.771-.963 6.573 0 .803.161 1.51.482 2.119.32.61.738.915 1.252.915.513 0 1.147-.521 1.902-1.565.754-1.043 1.268-1.565 1.541-1.565.272 0 .409.233.409.698 0 .466-.313 1.148-.939 2.047-.626.899-1.396 1.758-2.312 2.577-.915.818-1.75 1.228-2.504 1.228-.755 0-1.357-.449-1.806-1.349-.45-.898-.715-1.797-.794-2.696-.081-.898-.137-1.349-.168-1.349-.032 0-.217.201-.554.602-.337.402-.787.884-1.349 1.445-.562.562-1.18 1.116-1.854 1.661-1.699 1.379-3.481 2.071-5.343 2.071zm-1.252-9.103c-.161.963-.241 1.927-.241 2.89s.361 1.799 1.083 2.504c.723.707 1.717 1.06 2.986 1.06 1.268 0 2.457-.505 3.564-1.517 1.108-1.012 1.854-1.902 2.239-2.673s.787-2.103 1.204-3.997c.867-4.174 1.3-6.605 1.3-7.296s-.354-1.172-1.06-1.445c-.707-.272-1.493-.409-2.36-.409-.867 0-1.862.354-2.986 1.06-1.124.706-2.039 1.654-2.745 2.842-1.668 2.76-2.663 5.088-2.984 6.981z"/><path fill="#222" d="M183.697 184.452c-1.365 0-2.617-.249-3.756-.747-1.14-.497-1.71-1.315-1.71-2.456 0-1.139.513-1.709 1.542-1.709.545 0 .995.177 1.348.529.353.354.61.73.771 1.132s.449.779.867 1.132c.417.354.987.529 1.709.529s1.373-.128 1.951-.385c.578-.257.979-.578 1.204-.963.385-.675.578-1.269.578-1.782s-.065-.987-.193-1.421c-.128-.434-.426-.939-.891-1.517-.466-.578-.779-.947-.939-1.108l-2.48-2.479s-1.092-1.132-1.396-1.518c-.306-.385-.522-.722-.65-1.011-.354-.803-.53-1.605-.53-2.408 0-1.605.618-2.914 1.854-3.925 1.236-1.012 2.801-1.518 4.696-1.518 2.986 0 4.479.836 4.479 2.505 0 .45-.144.818-.433 1.107-.385.354-.859.529-1.421.529s-1.172-.449-1.83-1.348c-.658-.898-1.309-1.349-1.95-1.349-1.702 0-2.553.851-2.553 2.553 0 .995.819 2.247 2.457 3.756.867.803 1.34 1.252 1.42 1.349.08.097.353.394.819.891.465.498.786.867.963 1.107.176.241.41.603.699 1.084.513.803.771 1.654.771 2.553s-.113 1.67-.337 2.312c-.225.643-.586 1.324-1.083 2.047-.498.722-1.276 1.324-2.336 1.806-1.063.482-2.276.723-3.64.723z"/><path fill="#222" d="M212.809 184.356c-2.184 0-3.974-.738-5.37-2.215-1.397-1.477-2.095-3.732-2.095-6.767s1.036-5.867 3.106-8.5 4.823-3.949 8.259-3.949c2.279 0 4.021.812 5.226 2.432 1.204 1.622 1.806 3.564 1.806 5.828 0 2.263-.409 4.358-1.228 6.284-.818 1.927-2.095 3.557-3.829 4.889-1.734 1.332-3.693 1.998-5.875 1.998zm3.202-19.987c-1.204 0-2.368.538-3.491 1.613-1.124 1.076-1.982 2.642-2.576 4.696-.595 2.055-.892 3.997-.892 5.827s.394 3.355 1.181 4.575c.786 1.221 1.789 1.83 3.01 1.83 1.22 0 2.303-.434 3.25-1.301.947-.866 1.662-1.942 2.144-3.227 1.027-2.664 1.541-5.12 1.541-7.368 0-2.247-.394-3.917-1.18-5.009-.788-1.089-1.783-1.636-2.987-1.636z"/><path fill="#222" d="M226.032 169.715c0-1.22.537-2.601 1.613-4.142 1.075-1.541 2.352-2.312 3.829-2.312.513 0 .915.273 1.204.819.417.706.626 1.693.626 2.961 0 1.27-.298 3.468-.891 6.599-.595 3.13-.892 5.08-.892 5.851s.097 1.276.289 1.518c.192.24.377.361.554.361s.354-.024.53-.072c.176-.049.361-.128.554-.241.192-.112.368-.232.529-.361.16-.128.361-.305.603-.529.24-.225.434-.417.577-.578l.627-.698c.272-.305.488-.554.649-.746l1.445-1.734c2.279-2.761 4.142-6.918 5.586-12.473.128-.514.658-.771 1.59-.771.931 0 1.396.354 1.396 1.06 0 .321-.49 2.744-1.469 7.271-.98 4.527-1.469 7.208-1.469 8.043s.353 1.252 1.06 1.252c1.348 0 2.456-.898 3.322-2.697.289-.578.562-.866.819-.866.449 0 .674.385.674 1.155s-.755 1.95-2.264 3.54c-1.509 1.589-3.259 2.384-5.249 2.384-.963 0-1.445-.867-1.445-2.601 0-1.605.145-3.21.434-4.816.289-1.604.434-2.512.434-2.721 0-.208-.057-.313-.168-.313-.113 0-.233.105-.361.313-.129.209-.338.578-.626 1.107-.289.53-.643 1.084-1.06 1.662-3.5 4.977-6.582 7.464-9.247 7.464-1.092 0-1.638-.994-1.638-2.985 0-1.99.361-4.543 1.084-7.657s1.084-5.04 1.084-5.779c0-.738-.321-1.107-.964-1.107-.225 0-.562.281-1.011.843-.45.562-.803 1.14-1.06 1.733-.258.595-.538.891-.843.891-.302-.002-.455-.21-.455-.628z"/><path fill="#222" d="M265.248 166.151c-.161 1.221-.514 1.83-1.06 1.83-.289 0-.529-.169-.722-.506-.193-.337-.434-.674-.723-1.011-.289-.338-.675-.506-1.156-.506-.932 0-1.718.963-2.359 2.89-.643 1.926-1.06 3.74-1.252 5.441l-.241 1.59c-.578 4.526-.995 7.048-1.252 7.561-.321.418-.803.626-1.445.626h-.24c-.963 0-1.445-.417-1.445-1.252 0-.513.345-2.408 1.036-5.683.689-3.275 1.035-5.587 1.035-6.935 0-2.184-.546-3.275-1.638-3.275-.577 0-1.06.233-1.444.698-.386.466-.675.996-.867 1.59s-.346.947-.457 1.06c-.113.112-.249.168-.409.168-.386 0-.578-.272-.578-.818 0-2.055.497-3.628 1.492-4.72 1.124-1.284 2.103-1.927 2.938-1.927.834 0 1.46.562 1.878 1.686.802 2.119 1.252 3.179 1.349 3.179.031 0 .337-.409.915-1.228.578-.819 1.355-1.646 2.336-2.48.979-.835 1.878-1.252 2.696-1.252.819 0 1.38.152 1.686.457.305.306.458.619.458.939 0 .321-.089.706-.266 1.155-.177.451-.265.692-.265.723z"/><rect x="29.85" y="172.285" fill="#222" width="112.691" height="3"/><rect x="277.322" y="172.155" fill="#222" width="112.691" height="3"/><path fill="#222" d="M420 299h-420v-299h420v299zm-417-3h414v-293h-414v293z"/></svg>