<svg xmlns="http://www.w3.org/2000/svg" viewBox="0 0 506.9 337.5" enable-background="new 0 0 506.9 337.5"><g class="brandmark"><path fill="#fff" d="M176 4.7h162.6v108.5L258.8 193 176 122.8z"/><path fill="#FFF200" d="M176 4.7v61.9l48.1-61.9H176z"/><path fill="#916CAF" d="M288.4 116.7s-2.5 11.6-9 21.1c-6.5 9.5-16.3 16.3-19.2 16.5-2.9.2-.4-3.4-3.1-9s-4.8-9-4.5-9.6c.6-1.4 4.6-2.7 8.9-8.9 4.3-6.1 7.1-12.1 7.3-13.3.1-1.2 6.1 1.9 9.3 2.2 3.1.3 9 .1 10.3 1zM235.1 38s6.7-9.7 16.3-16c9.6-6.2 22.1-8.2 24.8-7.3 2.7.9-.9 3.3-.6 9.5.3 6.2 1.3 8.2.8 8.7s-6.6.8-12.9 4.8c-6.3 4-10.6 9.4-11.2 10.5-.6 1.1-4.6-3.3-7.4-4.8-2.8-1.5-9-4.1-9.8-5.4z"/><path d="M170.7 0v125.8l88 77.8 85.1-85.7V.2L170.7 0zm11.6 11.6h28.5l-28.5 39.6V11.6zm150 101.5c-1.5 1.5-17.6 17.7-34.4 34.7l3.2-16.3c9.3-10.9 27.5-32.3 26.9-32.3-.8 0-5.5 1.8-6.6 1.8-1 0 6-58 4.7-58-1.3 0-5.3 5.8-6.6 5.5-1.3-.3-7.4-29.1-8.4-29.1-1.1 0-2.6 9.5-3.4 9.7-.8.3-10-15.5-11.3-15.2-1.3.3-1.1 24.4-2.1 25.2-1 .8-6.6-3.9-7.6-3.4s17.1 34.7 16.3 35.2c-.8.5-8.1-3.9-9.2-3.4-1.1.5 17.1 36.8 16.5 38.1-.3.9-3.4 4.5-5.5 6.8l1.5-7.4s-.1-.8-.6-2.1-15.9-29.6-18.3-35.9c0 0 5.6-8 .7-17.7-3.2-6.3-8.6-9.7-9.6-10.5-1.1-.7-.1-2.6-1.5-2.9-1.4-.4-8 1.8-13.2 5.2-5.2 3.4-8.7 8.7-9.2 10.2l.1.4c.1 1.2.9 1.3 1.2 1.8.2.5.4-.5.7 4.6.4 5 5.8 10.8 9.9 13.4 3.3 2.1 8.3 1.6 10.4 1.6 1.6 3.2 4.6 9 7.6 14.9.5 1.3.8 2.2.7 2.3-.6.2-37.7-32.6-38.2-32.5-.5.1 1.2 9 .5 9.5s-10.3-13.6-11.2-13c-.8.6 2.3 14.8 1.9 15.2-.5.4-13.5 0-13.7.6-.2.6 9.2 9.6 9.2 10.4 0 .8-6.1 3.3-6 4 .1.7 28.2 5.8 28.2 5.8s-5.9 5.4-6 6c-.1.6 26.4 1.8 26.4 1.8s-5.5 7.8-5.6 8.6c-.1.8 20.6-5.2 20.6-5.2s.6.9 1.2 2.1c.8 1.6 1.4 2.7 1.7 3.3v.1c.1.8-11.1 55.1-11.1 55.1s.2-.4.5-1.1c-.2.9-.3 1.6-.4 2.1-12.1 12.2-22.4 22.5-24.9 25-7.2-6.4-72.4-64-75.9-67.1V75.5l14.1 10.3-.5.4s-9.7 21-9.5 20.9c.5-.5 7.2 20 7.5 19.7.4-.3 2.2-8.4 2.6-9.1.5-.7 12.4 24.8 12.9 24 .5-.9 3.9-6.4 4.2-7 .3-.5 17.1 25.6 18.3 27.1 1.1 1.5 5.1-4.4 5.9-4.5.8 0 11.6 15.1 11.3 14.5-.4-.6 2.8-5.3 2.6-5.9-.1-.6 16.6 3.1 16.6 3.1s-22.1-23.5-22.3-24.3c-.2-.8 6.8-1.2 7-2 .2-.8-33-24.1-33.4-24.8-.4-.7 4.8-7 4.8-7l-22.1-13.3s2-5.7 2.8-4.6c.8 1.1 20 12.6 24.7 17.5 0 0-2.1 9.6 6.2 16.7 5.4 4.6 11.5 4.4 12.7 4.7 1.2.2.9 1.3 2.3 1.1 1.4-.2 5.9-3.9 9.3-9 3.5-5.1 5.4-10.4 5.8-11.4l-.3-.3c-.6-1-1.4-.8-1.8-1.2-.4-.3.3.3-2.4-4-5-7.7-9.5-7.8-14.3-8.6-3.8-.6-8.3 1.7-10.2 2.5-5.7-4.2-19.9-14.5-31.8-23.3l1.6-4.1s16.3 1.3 16.6.6c.3-.7-5.3-6.5-5-7.2.3-.7 15.6-5.9 15.6-6.9s-4-4.7-4.4-5.6c-.4-.9 9.7-9.2 8.8-9.7-.9-.4-6.6-.3-7.6-1.2-1-.9 8.1-27 7.5-27.7-.6-.7-17.2 15.7-17.6 15.7-.4 0-3.4-4.1-4.3-3.8-.9.3-6.9 18.8-7.8 18.9-.9.1-2.2-5-2.9-4.7-.7.3-8.5 25.5-9.6 28.9-4.1-3-7.3-5.3-8.9-6.5 4.8-6.7 30.2-42 37.8-52.6 42 .1 100.4.1 107.2.1-.1 10.1-.1 96.9-.1 101.2z"/></g><g class="wordmark"><path d="M100.6 268.5l-21.3-52.6h12.4l9.9 27.5 10.7-29.1h.9l10.7 29.1 9.8-27.5H145l-21.2 52.6h-.8l-10.9-29.1-10.7 29.1h-.8zM147 223.4c0-1.7.6-3.1 1.8-4.3 1.2-1.2 2.6-1.8 4.3-1.8 1.7 0 3.2.6 4.3 1.7 1.2 1.2 1.7 2.6 1.7 4.3 0 1.7-.6 3.1-1.8 4.3-1.2 1.2-2.6 1.8-4.3 1.8-1.6 0-3.1-.6-4.3-1.8-1.1-1.1-1.7-2.5-1.7-4.2zm11.7 43.5h-11.1v-31.7l11.1-1.5v33.2zM177.4 266.9h-11v-31.6h10.2v5.3c1.7-2.1 3.5-3.6 5.4-4.7 1.9-1 4-1.5 6.2-1.5 3.4 0 5.9 1 7.6 2.9 1.7 1.9 2.6 4.7 2.6 8.4v21.2h-10.9v-18.1c0-1.7-.3-2.9-1-3.8s-1.7-1.3-3.1-1.3c-1.9 0-3.4.6-4.5 1.9-1 1.3-1.6 3.2-1.6 5.6v15.7zM233.4 265.1c-1.9 1.1-3.9 1.9-5.7 2.4-1.9.5-3.8.8-5.8.8-5.3 0-9.6-1.6-13-4.8s-5.1-7.2-5.1-12c0-5 1.8-9.3 5.5-12.7 3.6-3.4 8.2-5.1 13.7-5.1 2 0 4 .2 5.9.7 1.9.5 3.8 1.1 5.6 2.1l-1.2 9.9c-1.7-1.1-3.4-1.9-5-2.4-1.6-.6-3.1-.8-4.5-.8-2.5 0-4.5.8-6.2 2.3s-2.5 3.4-2.5 5.6c0 2.4.8 4.3 2.3 5.8 1.5 1.5 3.5 2.2 6 2.2 1.5 0 3.2-.3 5-1 1.8-.7 3.8-1.8 6.1-3.2l-1.1 10.2zM251.2 266.9h-11v-50.1l11-1.5v24.5c1.6-1.8 3.2-3.1 5-4 1.8-.9 3.7-1.3 5.8-1.3 3.4 0 5.9 1 7.6 2.9 1.7 1.9 2.6 4.7 2.6 8.4V267h-10.9v-18.1c0-1.7-.3-2.9-1-3.8s-1.7-1.3-3.1-1.3c-1.9 0-3.4.6-4.5 1.9-1 1.3-1.6 3.2-1.6 5.6v15.6zM309 255.6l-1.2 9.7c-2.2 1-4.3 1.8-6.4 2.3-2.1.5-4.2.7-6.3.7-5.3 0-9.5-1.5-12.8-4.6-3.2-3-4.8-7-4.8-11.9 0-5.1 1.8-9.4 5.3-12.9s7.8-5.3 12.9-5.3c4.3 0 7.9 1.3 10.7 3.9 2.8 2.6 4.2 5.9 4.2 10 0 .6 0 1.6-.1 3v.2l-1 1.4-21.6.6c.2 2.2 1.1 3.9 2.7 5.2 1.6 1.3 3.7 2 6.1 2 1.7 0 3.7-.4 5.8-1.1 1.9-.6 4.1-1.7 6.5-3.2zm-21-7.5l13.8-.4v-.5c0-1.7-.6-3-1.8-4.1-1.2-1.1-2.7-1.6-4.4-1.6-2 0-3.7.6-5 1.7-1.4 1.2-2.2 2.8-2.6 4.9zM315.9 265.4v-8.7c2.8 1.8 5 3 6.5 3.6 1.5.6 3 .9 4.3.9 1.1 0 2.1-.2 2.8-.8.7-.5 1.1-1.2 1.1-2 0-.7-.2-1.3-.7-1.7-.5-.5-1.3-.9-2.5-1.3l-4.1-1.4c-2.7-.9-4.7-2.2-6.1-3.9-1.4-1.7-2.1-3.6-2.1-5.9 0-3.2 1.1-5.8 3.3-7.7 2.2-1.9 5.2-2.9 8.9-2.9 1.7 0 3.5.2 5.4.7 1.9.5 4 1.2 6.4 2.2l-1.4 7.8c-1.4-1.2-2.9-2.2-4.6-2.8-1.7-.7-3.2-1-4.7-1-1.1 0-2 .3-2.6.8-.7.5-1 1.2-1 1.9s.2 1.2.6 1.6c.4.4 1.2.8 2.6 1.3l3.8 1.4c3 1.1 5.1 2.3 6.4 3.8 1.3 1.5 1.9 3.4 1.9 5.9 0 3.5-1.2 6.2-3.4 8.3-2.3 2-5.4 3-9.4 3-1.9 0-3.8-.2-5.7-.7-2-.6-3.8-1.4-5.7-2.4zM347.7 256.3v-12.7h-4.6v-8.4h4.6v-9.5l11.2-1.5v11h7.5v8.4h-7.5V257c0 2.8.4 4.9 1.2 6.2.8 1.3 2.2 2.4 4.3 3.5l-12.5.9c-1.6-.8-2.7-1.9-3.3-3.4-.6-1.4-.9-4.1-.9-7.9zM400.2 255.6l-1.2 9.7c-2.2 1-4.3 1.8-6.4 2.3-2.1.5-4.2.7-6.3.7-5.3 0-9.5-1.5-12.8-4.6-3.2-3-4.8-7-4.8-11.9 0-5.1 1.8-9.4 5.3-12.9s7.8-5.3 12.9-5.3c4.3 0 7.9 1.3 10.7 3.9 2.8 2.6 4.2 5.9 4.2 10 0 .6 0 1.6-.1 3v.2l-1 1.4-21.6.6c.2 2.2 1.1 3.9 2.7 5.2 1.6 1.3 3.7 2 6.1 2 1.7 0 3.7-.4 5.8-1.1 1.9-.6 4.2-1.7 6.5-3.2zm-21-7.5l13.8-.4v-.5c0-1.7-.6-3-1.8-4.1-1.2-1.1-2.7-1.6-4.4-1.6-2 0-3.7.6-5 1.7-1.4 1.2-2.2 2.8-2.6 4.9zM418.5 266.9h-11.1v-31.6h10.3l.2 5.6c1.3-2.2 2.8-3.9 4.5-4.9 1.7-1 3.8-1.5 6.4-1.5h.9v11.9h-2.4c-3.5 0-5.8.4-7 1.2-1.2.8-1.8 2.7-1.8 5.7v13.6zM16.2 335.9v-40.4H0v-10.6h44.5v10.6H28.4v40.4H16.2zM59.2 335.9h-11v-50.1l11-1.5v24.5c1.6-1.8 3.2-3.1 5-4 1.8-.9 3.7-1.3 5.8-1.3 3.4 0 5.9 1 7.6 2.9 1.7 1.9 2.6 4.7 2.6 8.4V336H69.3v-18.1c0-1.7-.3-2.9-1-3.8-.7-.8-1.7-1.3-3.1-1.3-1.9 0-3.4.6-4.5 1.9-1 1.3-1.6 3.2-1.6 5.6v15.6zM108.1 304.3H119v31.6l-10.1 1.5v-6.2c-1.7 2.1-3.5 3.7-5.4 4.7-1.9 1-3.9 1.5-6.2 1.5-3.4 0-5.9-1-7.7-2.9-1.8-1.9-2.6-4.7-2.6-8.4v-21.8h11V323c0 1.7.3 2.9 1 3.8.7.9 1.7 1.3 3.1 1.3 1.9 0 3.4-.6 4.5-1.9 1-1.3 1.6-3.2 1.6-5.6v-16.3zM137.6 335.9h-11.1v-31.6h10.3l.2 5.6c1.3-2.2 2.8-3.9 4.5-4.9 1.7-1 3.8-1.5 6.4-1.5h.9v11.9h-2.4c-3.5 0-5.8.4-7 1.2-1.2.8-1.8 2.7-1.8 5.7v13.6zM153.5 334.4v-8.7c2.8 1.8 5 3 6.5 3.6 1.5.6 3 .9 4.3.9 1.1 0 2.1-.2 2.8-.8.7-.5 1.1-1.2 1.1-2 0-.7-.2-1.3-.7-1.7-.5-.5-1.3-.9-2.5-1.3l-4.1-1.4c-2.7-.9-4.7-2.2-6.1-3.9-1.4-1.7-2.1-3.6-2.1-5.9 0-3.2 1.1-5.8 3.3-7.7 2.2-1.9 5.2-2.9 8.9-2.9 1.7 0 3.5.2 5.4.7 1.9.5 4 1.2 6.4 2.2l-1.4 7.8c-1.4-1.2-2.9-2.2-4.6-2.8-1.7-.7-3.2-1-4.7-1-1.1 0-2 .3-2.6.8-.7.5-1 1.2-1 1.9s.2 1.2.6 1.6c.4.4 1.2.8 2.6 1.3l3.8 1.4c3 1.1 5.1 2.3 6.4 3.8 1.3 1.5 1.9 3.4 1.9 5.9 0 3.5-1.2 6.2-3.4 8.3-2.3 2-5.4 3-9.4 3-1.9 0-3.8-.2-5.7-.7-1.9-.6-3.8-1.4-5.7-2.4zM185.3 325.3v-12.7h-4.6v-8.4h4.6v-9.5l11.2-1.5v11h7.5v8.4h-7.5V326c0 2.8.4 4.9 1.2 6.2.8 1.3 2.2 2.4 4.3 3.5l-12.5.9c-1.6-.8-2.7-1.9-3.3-3.4-.5-1.4-.9-4.1-.9-7.9zM206.2 320c0-5 1.6-9.2 4.9-12.5 3.3-3.3 7.5-4.9 12.5-4.9 5.1 0 9.3 1.6 12.6 4.9 3.3 3.3 5 7.4 5 12.5s-1.7 9.2-5 12.5c-3.3 3.3-7.5 4.9-12.6 4.9-5 0-9.2-1.6-12.5-4.9-3.2-3.3-4.9-7.5-4.9-12.5zm11.3 0c0 2.7.6 4.9 1.7 6.5 1.2 1.7 2.6 2.5 4.4 2.5 1.8 0 3.3-.8 4.4-2.5 1.2-1.7 1.7-3.8 1.7-6.5 0-2.6-.6-4.8-1.7-6.5-1.2-1.7-2.6-2.5-4.4-2.5-1.8 0-3.3.8-4.4 2.5-1.1 1.7-1.7 3.8-1.7 6.5zM257.9 335.9h-11v-31.6h10.2v5.3c1.7-2.1 3.5-3.6 5.4-4.7 1.9-1 4-1.5 6.2-1.5 3.4 0 5.9 1 7.6 2.9 1.7 1.9 2.6 4.7 2.6 8.4v21.2H268v-18.1c0-1.7-.3-2.9-1-3.8-.7-.8-1.7-1.3-3.1-1.3-1.9 0-3.4.6-4.5 1.9-1 1.3-1.6 3.2-1.6 5.6v15.7zM305.5 321.4c3.1 1.9 5.8 3.3 8 4.1 2.2.8 4.3 1.2 6.4 1.2 2.1 0 3.8-.5 5.1-1.4 1.3-.9 1.9-2.1 1.9-3.6 0-2.1-2.3-4.4-6.8-7.1-.7-.4-1.3-.8-1.7-1l-3.4-1.9c-3.3-1.9-5.8-4-7.4-6.4-1.6-2.4-2.4-5.1-2.4-8.1 0-4.1 1.5-7.5 4.6-10.1 3.1-2.6 7.1-3.9 12-3.9 1.8 0 3.8.2 5.9.6 2.1.4 4.4 1.1 7 2v11.9c-2.5-1.5-4.8-2.7-7-3.5-2.2-.8-4.1-1.2-5.6-1.2-1.7 0-3.1.4-4 1.1-1 .7-1.5 1.7-1.5 3 0 .9.3 1.7.9 2.5.6.8 1.5 1.5 2.6 2.1l5.9 3.3c5 2.8 8.4 5.3 10.1 7.7 1.7 2.3 2.6 5.1 2.6 8.3 0 5-1.7 9-5.1 12.1-3.4 3.1-7.9 4.6-13.5 4.6-1.9 0-4-.2-6.2-.6-2.2-.4-4.7-1-7.3-1.9l-1.1-13.8zM372.9 334.1c-1.9 1.1-3.9 1.9-5.7 2.4-1.9.5-3.8.8-5.8.8-5.3 0-9.6-1.6-13-4.8-3.4-3.2-5.1-7.2-5.1-12 0-5 1.8-9.3 5.5-12.7 3.6-3.4 8.2-5.1 13.7-5.1 2 0 4 .2 5.9.7 1.9.5 3.8 1.1 5.6 2.1l-1.2 9.9c-1.7-1.1-3.4-1.9-5-2.4-1.6-.6-3.1-.8-4.5-.8-2.5 0-4.5.8-6.2 2.3s-2.5 3.4-2.5 5.6c0 2.4.8 4.3 2.3 5.8 1.5 1.5 3.5 2.2 6 2.2 1.5 0 3.2-.3 5-1 1.8-.7 3.8-1.8 6.1-3.2l-1.1 10.2zM390.7 335.9h-11v-50.1l11-1.5v24.5c1.6-1.8 3.2-3.1 5-4 1.8-.9 3.7-1.3 5.8-1.3 3.4 0 5.9 1 7.6 2.9 1.7 1.9 2.6 4.7 2.6 8.4V336h-10.9v-18.1c0-1.7-.3-2.9-1-3.8-.7-.8-1.7-1.3-3.1-1.3-1.9 0-3.4.6-4.5 1.9-1 1.3-1.6 3.2-1.6 5.6v15.6zM416.9 320c0-5 1.6-9.2 4.9-12.5 3.3-3.3 7.5-4.9 12.5-4.9 5.1 0 9.3 1.6 12.6 4.9 3.3 3.3 5 7.4 5 12.5s-1.7 9.2-5 12.5c-3.3 3.3-7.5 4.9-12.6 4.9-5 0-9.2-1.6-12.5-4.9-3.3-3.3-4.9-7.5-4.9-12.5zm11.2 0c0 2.7.6 4.9 1.7 6.5 1.2 1.7 2.6 2.5 4.4 2.5 1.8 0 3.3-.8 4.4-2.5 1.2-1.7 1.7-3.8 1.7-6.5 0-2.6-.6-4.8-1.7-6.5-1.2-1.7-2.6-2.5-4.4-2.5-1.8 0-3.3.8-4.4 2.5-1.1 1.7-1.7 3.8-1.7 6.5zM455.5 320c0-5 1.6-9.2 4.9-12.5 3.3-3.3 7.5-4.9 12.5-4.9 5.1 0 9.3 1.6 12.6 4.9 3.3 3.3 5 7.4 5 12.5s-1.7 9.2-5 12.5c-3.3 3.3-7.5 4.9-12.6 4.9-5 0-9.2-1.6-12.5-4.9-3.3-3.3-4.9-7.5-4.9-12.5zm11.2 0c0 2.7.6 4.9 1.7 6.5 1.2 1.7 2.6 2.5 4.4 2.5s3.3-.8 4.4-2.5c1.2-1.7 1.7-3.8 1.7-6.5 0-2.6-.6-4.8-1.7-6.5-1.2-1.7-2.6-2.5-4.4-2.5s-3.3.8-4.4 2.5c-1.1 1.7-1.7 3.8-1.7 6.5zM506.9 335.9h-11.1v-50.1l11.1-1.5v51.6z"/></g></svg>