<?xml version="1.0" encoding="utf-8"?>
<!-- Generator: Adobe Illustrator 18.0.0, SVG Export Plug-In . SVG Version: 6.00 Build 0)  -->
<!DOCTYPE svg PUBLIC "-//W3C//DTD SVG 1.1//EN" "http://www.w3.org/Graphics/SVG/1.1/DTD/svg11.dtd">
<svg version="1.1" id="Layer_1" xmlns="http://www.w3.org/2000/svg" xmlns:xlink="http://www.w3.org/1999/xlink" x="0px" y="0px"
	 viewBox="0 0 112 207.7" enable-background="new 0 0 112 207.7" xml:space="preserve">
<g>
	<path fill="#E8E8E8" d="M111,207.7"/>
</g>
<g>
	<path fill="#E8E8E8" d="M112,207.7h-2v-17.4c0-4.6-3.5-8.3-7.9-8.3H63.5v-24.9l0.8-0.1c24.2-4,41.7-24.8,41.7-49.3v-1.3l0.8-0.2
		c0.6-0.1,1-0.6,1-1.1v-8.5c0-0.5-0.4-0.9-1-1.1l-0.8-0.2v-1.6c0-1.6-1.3-2.8-2.8-2.8h-0.5c-1.6,0-2.8,1.3-2.8,2.8v1.8h-5.5v-46
		c0-8.8-3-17.4-8.6-24.2l-0.6-0.8l6-5c0,0,0.1-0.1,0.1-0.4c0-1-0.7-2.7-2.3-4.2c-18.5-17.5-47.4-17.5-65.9,0
		c-1.6,1.5-2.4,3.2-2.3,4.2c0,0.2,0.1,0.3,0.1,0.3l6,5l-0.6,0.8c-5.5,6.8-8.6,15.4-8.6,24.2v46h-5.5v-1.8c0-1.6-1.3-2.8-2.8-2.8H8.9
		c-1.6,0-2.8,1.3-2.8,2.8v1.6l-0.8,0.2c-0.6,0.1-1,0.6-1,1.1v8.5c0,0.5,0.4,0.9,1,1.1l0.8,0.2v1.3c0,24.4,17.5,45.2,41.5,49.3
		l0.8,0.1v24.9H9.9c-4.3,0-7.9,3.7-7.9,8.3v17.4H0v-17.4c0-5.7,4.4-10.3,9.9-10.3h36.5v-21.2C21.8,154.2,4.1,133,4,107.9
		c-1.1-0.5-1.8-1.6-1.8-2.7v-8.5c0-1.2,0.7-2.2,1.8-2.7v-0.1c0-2.7,2.2-4.8,4.8-4.8h0.5c2.6,0,4.7,2,4.8,4.6h1.5v-44
		c0-8.9,3-17.6,8.4-24.7l-4.5-3.7c-0.3-0.3-0.8-0.8-0.8-1.8c-0.1-1.7,1.1-4,2.9-5.7c19.2-18.2,49.4-18.2,68.6,0c1.9,1.8,3,4,2.9,5.7
		c0,1-0.5,1.5-0.9,1.8L88,24.9c5.4,7,8.4,15.8,8.4,24.7v44h1.5c0.1-2.6,2.2-4.6,4.8-4.6h0.5c2.7,0,4.8,2.2,4.8,4.8v0.1
		c1.1,0.5,1.8,1.6,1.8,2.7v8.5c0,1.2-0.7,2.2-1.8,2.7c-0.1,25.1-17.9,46.4-42.5,51v21.2h36.7c5.5,0,9.9,4.6,9.9,10.3V207.7z"/>
</g>
<g>
	<path fill="#E8E8E8" d="M1,207.7"/>
</g>
<g>
	<rect x="24" y="96.3" fill="#E8E8E8" width="64" height="2.9"/>
</g>
<g>
	<rect x="24" y="101.9" fill="#E8E8E8" width="64" height="2.9"/>
</g>
<g>
	<path fill="#E8E8E8" d="M63.5,151v-5.6l0.8-0.2c17.5-3.8,30.1-19.6,30.1-37.5v-1.5h5.5v1.5c0,20.8-14.8,38.9-35.2,43L63.5,151z
		 M65.5,147v1.5c18.7-4.3,32.2-21,32.4-40.3h-1.5C96.1,126.6,83.2,142.7,65.5,147z"/>
</g>
<g>
	<path fill="#E8E8E8" d="M92.7,90.6H19.3l0-41c0-8.7,3.1-17.1,8.7-23.7l0.2-0.3l0.3-0.1c0.8-0.2,1.9-0.8,2.8-1.6
		c6.6-6.3,15.4-9.8,24.6-9.8c9.2,0,18,3.5,24.6,9.8c0.9,0.9,2,1.5,2.8,1.6l0.3,0.1l0.2,0.3c5.6,6.6,8.7,15,8.7,23.7V90.6z
		 M21.3,88.7h69.5v-39c0-8.1-2.9-16-8.1-22.2c-1.1-0.3-2.3-1-3.4-2c-6.3-6-14.6-9.2-23.3-9.2c-8.7,0-17,3.3-23.3,9.2
		c-1.1,1-2.3,1.7-3.4,2c-5.2,6.2-8.1,14.1-8.1,22.2V88.7z"/>
</g>
<g>
	<path fill="#E8E8E8" d="M48.4,151l-1.2-0.2c-20.3-4.2-35-22.2-35-43v-1.5h5.5v1.5c0,17.8,12.6,33.6,30,37.4l0.8,0.2V151z
		 M14.2,108.3c0.2,19.2,13.7,35.8,32.2,40.2V147c-17.7-4.3-30.5-20.4-30.8-38.7H14.2z"/>
</g>
<g>
	<g>
		<path fill="#E8E8E8" d="M80.7,11.5c-1.5,2.3-2.2,3.4-3.7,5.7c-0.7-0.5-1.1-0.7-1.8-1.1c1.4-2.4,2.1-3.6,3.4-5.9
			C79.5,10.7,79.9,11,80.7,11.5z"/>
	</g>
	<g>
		<path fill="#E8E8E8" d="M63.6,4.8c-0.1,0.6-0.2,1-0.3,1.6c-0.8-0.1-1.2-0.2-1.9-0.3c0,0.3-0.1,0.5-0.1,0.9c0.7,0.1,1,0.1,1.7,0.2
			c-0.1,0.6-0.2,1-0.3,1.6c-0.7-0.1-1-0.2-1.6-0.2c-0.1,0.4-0.1,0.6-0.1,1c0.7,0.1,1.1,0.1,1.8,0.3c-0.1,0.6-0.2,1-0.3,1.6
			c-1.5-0.2-2.2-0.3-3.7-0.4C58.9,8.4,59,7,59.2,4.3C61,4.4,61.8,4.5,63.6,4.8z"/>
	</g>
	<g>
		<path fill="#E8E8E8" d="M53,4.3c0.1,1,0.1,1.5,0.2,2.5c0.4,0,0.6,0,1.1-0.1c0-1-0.1-1.5-0.1-2.5c0.9,0,1.4,0,2.4,0
			c0,2.7,0,4.1-0.1,6.9c-0.8,0-1.2,0-2,0c0-1.1-0.1-1.7-0.1-2.8c-0.4,0-0.6,0-1,0.1c0.1,1.1,0.1,1.7,0.2,2.8c-0.8,0.1-1.2,0.1-2,0.2
			c-0.3-2.7-0.5-4.1-0.8-6.8C51.6,4.4,52.1,4.3,53,4.3z"/>
	</g>
	<g>
		<path fill="#E8E8E8" d="M48.6,4.8c0.1,0.6,0.2,1,0.3,1.6c-0.5,0.1-0.8,0.1-1.3,0.2c0.4,2,0.6,3.1,1,5.1c-0.8,0.2-1.2,0.2-2,0.4
			c-0.5-2-0.8-3-1.3-5.1c-0.5,0.1-0.7,0.2-1.2,0.3c-0.2-0.6-0.3-0.9-0.4-1.6C45.6,5.3,46.6,5.1,48.6,4.8z"/>
	</g>
	<g>
		<path fill="#E8E8E8" d="M33.5,10.2c0.9,0.6,1.3,0.9,2.2,1.5c0.1,0.1,0.3,0.2,0.4,0.3c0.2,0.1,0.3,0.3,0.5,0.4
			c0.2,0.2,0.3,0.3,0.5,0.4c-0.3-0.5-0.6-0.9-0.9-1.3c-0.2-0.4-0.4-0.7-0.6-0.9c-0.3-0.5-0.4-0.8-0.7-1.4c0.8-0.4,1.2-0.6,2.1-1
			c1.1,2.5,1.7,3.7,2.9,6.2c-0.7,0.3-1.1,0.5-1.8,0.9c-0.9-0.7-1.3-1-2.2-1.7c-0.2-0.2-0.5-0.3-0.7-0.5c-0.2-0.2-0.6-0.4-0.6-0.4
			c0,0,0.6,0.7,0.8,1c0.2,0.3,0.4,0.6,0.5,0.8c0.3,0.6,0.5,0.9,0.9,1.5c-0.7,0.4-1,0.6-1.7,1c-1.5-2.3-2.2-3.5-3.7-5.8
			C32.2,10.9,32.6,10.6,33.5,10.2z"/>
	</g>
	<g>
		<path fill="#E8E8E8" d="M25.4,17c0.1-0.8,0.6-1.5,1.2-2c0.8-0.7,1.7-1,2.5-0.9c0.9,0.1,1.6,0.6,2.2,1.5c0.6,0.8,0.8,1.6,0.8,2.5
			c-0.1,0.8-0.4,1.5-1.1,2.1c-0.6,0.5-1.2,0.8-2,0.8c-0.9,0.1-1.9-0.3-2.7-1.2C25.5,19,25.2,18.1,25.4,17z M28.2,18.2
			c0.4,0.4,0.7,0.7,1,0.8c0.3,0.1,0.6,0.1,0.8,0c0.2-0.2,0.3-0.4,0.2-0.7c-0.1-0.3-0.3-0.7-0.6-1.1c-0.8-0.9-1.4-1.2-1.8-0.9
			c-0.2,0.2-0.3,0.5-0.2,0.8C27.6,17.4,27.8,17.8,28.2,18.2z"/>
	</g>
	<g>
		<path fill="#E8E8E8" d="M75,8.3c-0.5,2.8-0.7,4.2-1.4,6.9c-0.8-0.4-1.1-0.6-1.9-0.9c0.1-0.3,0.1-0.5,0.2-0.9
			c-0.5-0.2-0.8-0.3-1.3-0.5c-0.2,0.3-0.3,0.4-0.5,0.7c-0.8-0.3-1.2-0.5-2-0.7c1.6-2.4,2.4-3.5,4.2-5.8C73.4,7.6,73.9,7.8,75,8.3z
			 M72.4,11.3c0,0,0,0,0-0.1c0-0.1,0.1-0.3,0.2-0.8c0,0,0-0.1,0.1-0.2c0-0.1,0.1-0.2,0.1-0.3c0.1-0.2,0.1-0.4,0.2-0.6
			c0,0.1-0.1,0.1-0.1,0.2c0,0.1-0.1,0.1-0.1,0.2c-0.1,0.2-0.2,0.3-0.2,0.3c0,0.1-0.1,0.1-0.1,0.1c-0.2,0.3-0.3,0.4-0.5,0.7
			c-0.2,0.4-0.4,0.5-0.6,0.9c0.3,0.1,0.5,0.2,0.8,0.4C72.3,11.7,72.3,11.6,72.4,11.3z"/>
	</g>
	<g>
		<path fill="#E8E8E8" d="M85,14.7c0.9,0.7,1.4,1.4,1.6,2.1c0.2,0.8,0.1,1.5-0.5,2c-0.6,0.6-1.3,0.7-2.2,0.3
			c-0.3,1.3-0.4,1.9-0.8,3.2c-0.7-0.7-1-1-1.7-1.6c0.3-1,0.5-1.5,0.8-2.6c0,0,0-0.1,0.1-0.2c0-0.1,0-0.2,0.1-0.3
			c-0.1,0.1-0.2,0.2-0.3,0.4c-0.6,0.7-0.9,1.1-1.5,1.8c-0.7-0.5-1-0.8-1.7-1.3c1.6-2.2,2.5-3.3,4.1-5.5C83.8,13.7,84.2,14,85,14.7z
			 M83.8,17.4c0.2,0,0.4-0.1,0.6-0.3c0.3-0.4,0.2-0.8-0.3-1.3c0,0,0,0-0.1-0.1c-0.4,0.5-0.6,0.8-1,1.3c0,0,0.1,0.1,0.1,0.1
			C83.3,17.3,83.6,17.4,83.8,17.4z"/>
	</g>
</g>
</svg>
