<?xml version="1.0" encoding="UTF-8" standalone="no"?>
<svg width="60px" height="60px" viewBox="0 0 60 60" version="1.1" xmlns="http://www.w3.org/2000/svg" xmlns:xlink="http://www.w3.org/1999/xlink" xmlns:sketch="http://www.bohemiancoding.com/sketch/ns">
    <title>Slice 1</title>
    <description>Created with Sketch (http://www.bohemiancoding.com/sketch)</description>
    <defs></defs>
    <g id="Page-1" stroke="none" stroke-width="1" fill="none" fill-rule="evenodd" sketch:type="MSPage">
        <g id="Path-+-" sketch:type="MSLayerGroup">
            <path d="M30,60 C46.5685433,60 60,46.5685433 60,30 C60,13.4314567 46.5685433,0 30,0 C13.4314567,0 0,13.4314567 0,30 C0,46.5685433 13.4314567,60 30,60 Z" id="Path" fill="#B1D7CA" sketch:type="MSShapeGroup"></path>
            <path d="M42.8,17 L17.2,17 C15.472,17 14,18.408 14,20.2 L14,39.4 C14,41.128 15.472,42.6 17.2,42.6 L42.8,42.6 C44.592,42.6 46,41.128 46,39.4 L46,20.2 C46,18.408 44.592,17 42.8,17 Z M42.8,39.4 L17.2,39.4 L17.2,20.2 L42.8,20.2 L42.8,39.4 Z M28.4,33.128 L20.4,33.128 L20.4,36.008 L28.4,36.008 L28.4,33.128 Z M28.4,28.328 L20.4,28.328 L20.4,31.208 L28.4,31.208 L28.4,28.328 Z M28.4,23.528 L20.4,23.528 L20.4,26.408 L28.4,26.408 L28.4,23.528 Z M39.472,33.768 C39.472,33.768 36.72,33.064 36.72,31.656 C36.72,30.312 38.512,29.8 38.512,27.048 C38.512,24.872 37.808,23.528 35.632,23.528 C33.392,23.528 32.752,24.872 32.752,27.048 C32.752,29.8 34.48,30.312 34.48,31.656 C34.48,33.064 31.792,33.768 31.792,33.768 C31.6,33.768 31.6,36.008 31.6,36.008 L39.6,36.008 C39.6,36.008 39.6,33.768 39.472,33.768 Z" id="" fill="#FFFFFF" sketch:type="MSShapeGroup"></path>
        </g>
    </g>
</svg>