<?xml version="1.0" encoding="utf-8"?>
<!-- Generator: Adobe Illustrator 18.0.0, SVG Export Plug-In . SVG Version: 6.00 Build 0)  -->
<!DOCTYPE svg PUBLIC "-//W3C//DTD SVG 1.1//EN" "http://www.w3.org/Graphics/SVG/1.1/DTD/svg11.dtd">
<svg version="1.1" id="Layer_1" xmlns="http://www.w3.org/2000/svg" xmlns:xlink="http://www.w3.org/1999/xlink" x="0px" y="0px"
	 viewBox="0 0 210.7 204.3" enable-background="new 0 0 210.7 204.3" xml:space="preserve">
<path fill-rule="evenodd" clip-rule="evenodd" fill="#E8E8E8" d="M210.1,108.2c-0.2-0.4-1.2-0.6-1.8-0.8c-0.5-0.2-1.1-0.3-1.6-0.6
	c-2.3-1.4-4.6-1.7-7.1-0.4c-1,0.5-2.3,0.6-3.2,0.8c1.6-3,3.1-6,4.8-8.9c0.7-1.1,1.1-2.2,0.5-3.4c-0.6-1.2-1.4-2.2-2.2-3.6
	c-2.8,5.3-5,10.7-10,14.3c-0.4-1.7-0.7-3.2-1.1-4.7c-1-3.2-2-6.3-3-9.5c-0.2-0.5-0.8-1.2-1.2-1.2c-2.6,0-4.2,2.4-3.4,5
	c0.5,1.5,0.9,3.1,1.3,4.7c-4,0.2-7.7,0.7-11.5,0.6c-6.5-0.1-13-0.9-19.4-0.7c-5.5,0.2-11,1.3-16.4,2.2c-1.4,0.2-2.1,0.2-2.9-1.1
	c-2.1-3.2-4.2-6.4-7.2-6.9c1.5-1.8,3.4-4.2,5.4-6.5c6-6.6,11.9-13.2,16.2-21c1-1.9,2.5-3.6,3-5.7c1.2-4.6,1.1-9.3,0.3-14
	c-0.1-0.6,0.4-1.4,0.5-2.1c0.1-0.6,0.3-1.2,0.1-1.7c-1.9-4.1-4-8.1-5.9-12.2c-1.3-2.8-2-5.8-4.7-7.7c-3.2-2.3-6.2-4.7-9.6-6.7
	c-7.2-4.2-14.6-8.2-22-12.1c-5.3-2.8-11.1-3.6-16.9-4.3C85-0.5,79.9,0.6,75.1,3.8c-2.3,1.5-4.8,2.9-7.3,4c-9,3.8-18.1,7.5-27.2,11.2
	c-7.5,3-14,7.5-19.7,13.3c-0.7,0.7-1.6,1-2.4,1.6c-0.5,0.3-1.3,0.7-1.2,1c0.1,1.6,0.2,3.2,0.7,4.7c0.5,1.5,0.4,2.7-0.2,4.1
	c-0.2,0.5-0.4,1-0.8,1.8c15.1,15,26.9,32.9,40.9,49c-0.4,0.8-0.9,1.7-1.4,2.6c-2.3,4.4-3.5,8.9-2.4,13.9c0.6,2.9,1.2,5.8,1.9,8.7
	c0.9,3.9,1.9,7.9,2.9,11.8c-4,1.7-20,3.4-34.3,3.8c-1.2-3.2-2.5-6.4-3.7-9.7c-0.3-0.9-0.8-1.6-1.7-1.4c-1.6,0.3-3.1,0.9-4.7,1.5
	c0.9,2.3,1.7,4.4,2.5,6.5c-1.8-0.7-3.2-1.8-4.7-2.5c-2.6-1.3-5.2-2.5-7.8-3.7c-0.4-0.2-1.3,0-1.6,0.4c-1,1.2-1.9,2.5-2.7,3.5
	c4.2,2.3,8.2,4.6,12.3,6.8c-1.2,0.6-2.2,0.9-3.2,1.1c-1,0.2-2.1,0.2-3.2,0.3c-3.9,0.2-3.9,0.2-4,4.1c0,0.1,0,0.2,0,0.3
	c0.1,1.2,0.7,1.8,2,1.6c3.3-0.4,6.6-0.6,9.9-0.9c1.2-0.1,2.4-0.2,3.4-0.3c-3.1,3.6-6.2,7.1-9.2,10.7c-1.4,1.7-2.4,3.6-5.1,3.2
	c0.8,3.6,3.2,4.7,6.1,5c3.6-4.3,7.2-8.7,11-13.2c0.2,1,0.3,1.4,0.4,1.9c1,3.7,2,7.4,3,11.1c0.1,0.4,0.7,1,1,0.9
	c1.6-0.3,3.1-0.7,4.7-1.1c-0.5-1.9-0.8-3.3-1.2-4.6c3-0.5,6-0.9,9-1.5c5.7-1.3,11.4-3,17.2-4.3c5-1.1,10-2,14.8-4.1
	c0.3-0.2,1.1,0.2,1.4,0.5c1.9,1.7,3.7,3.5,5.7,5c1.3,1,1.5,1.8,0.9,3.3c-1.9,4.3-2.4,9-2.3,13.6c0.2,7.6,0.9,15.1,1.3,22.7
	c0.2,3.3,0,6.6,0,10c0.4,0.1,0.8,0.3,1,0.3c0,0.7-0.2,1.4,0.1,1.7c0.2,0.3,0.9,0.5,1.4,0.4c1.4-0.2,3-0.2,4-1.5
	c0.2-0.3,0.8-0.6,1.1-0.5c2.9,0.6,5.3-0.9,7.7-2.2c0.6-0.3,1.3-1,1.4-1.7c0.7-3.3,1.6-6.6,1.9-9.9c0.3-3.1-0.2-6.2-0.2-9.3
	c-0.1-4.5,0-9-0.1-13.5c0-1,0.2-2.3-1.4-2.5c0-0.6-0.1-1.2,0-1.6c0.1-0.3,0.6-0.8,0.9-0.7c4.3,0.8,8.6,1.6,12.9,2.4
	c0.6,4.2,1.1,8.4,1.8,12.6c0.8,4.8,1.7,9.6,2.9,14.3c0.3,1.4,1.5,2.9,2.7,3.7c2.2,1.3,4.7,2,7.1,3c1.8,0.7,3.8,1.1,5.2,2.2
	c1.5,1.2,3,0.9,4.5,0.6c1.3-0.3,2.5-1,3.7-1.7c0.3-0.2,0.5-0.9,0.5-1.3c0-0.6-0.2-1.1-0.3-1.7c-0.6-5.4-1.4-10.8-1.9-16.2
	c-0.6-6.5-0.9-13.1-1.2-19.6c-0.1-1.8,0.3-3.8,1.3-5.2c2.4-3.5,4.4-7.1,5.6-11.1c1.4-4.9,2.3-10,1.6-15.1c-0.2-1.8-0.4-3.6-0.5-5.6
	c15.2-2.3,30.3-4.6,45.2-6.9c0.6,3.1,0.9,5.9,1.6,8.6c0.3,1,1.6,2.3,2.3,2.3c1.6-0.1,3.1-1,4.8-1.6c-0.6-1.7-1.1-3.2-1.7-5
	c0.8,0.4,1.2,0.6,1.5,0.8c1.8,1.2,3.6,2.4,5.5,3.5c3.5,2,3.6,2,6.2-1.1c1.2-1.4,1-1.7-0.5-2.5c-2.9-1.6-5.8-3.3-8.7-5
	c0.1-0.2,0.1-0.3,0.2-0.5c1.6-0.1,3.1-0.2,4.7-0.4c0.6-0.1,1.5-0.6,1.6-1.1c0.4-1.4,1.2-1.5,2.4-1c1.2,0.5,2.5,1,3.7,1.1
	c0.8,0.1,2.3-0.6,2.3-1.1C210.8,110.8,210.5,109.4,210.1,108.2z M56.9,84.3c-3.5-4.1-6.7-8.4-10.1-12.6c-3.8-4.8-7.6-9.6-11.5-14.3
	c-2.6-3.2-5.7-5.9-8.1-9.3c-2-2.9-4.7-5.8-3-10c1.1-2.8,2.9-4.8,5.2-6.7c5.1-4.1,10.6-7.4,16.8-9.7c7-2.6,13.8-5.4,20.7-8.2
	c3.1-1.2,6.1-2.7,9.2-3.9c2.6-1,5.2-1.8,8-1.3c0.5,0.1,1.2-0.1,1.6-0.4c1.6-1.3,3.5-1.2,5.3-1c3.9,0.4,7.9,0.8,11.8,1.3
	c0.9,0.1,1.7,0.5,2.5,0.9c6.8,3.7,13.5,7.3,20.2,11.2c3.1,1.8,6,4,8.8,6.2c1.2,0.9,2.2,2.3,2.9,3.7c2.1,4.3,3.9,8.7,6.1,13
	c2.1,4,1.9,8.2,1.4,12.4c-0.2,2.1-0.4,4.3-2.4,5.7c-3.6,2.6-5.7,6.3-8,10.1c-2.3,3.7-5.3,6.9-8.2,10.3c-2.1,2.5-4.2,5.1-6.7,7.1
	c-3.1,2.4-6.5,4.6-10,6.3c-6.2,2.9-12.8,4.4-19.6,4.5c-1.8,0-3.7,0.3-5.5,0.4c-5,0.3-9.3-1.4-13.2-4.4c-2.4-1.8-5.2-3-7.6-4.9
	C61.2,88.8,58.9,86.6,56.9,84.3z M135,133.7c-0.6,5.5-2,10.7-4.7,15.5c-0.3,0.6-1.2,1.1-1.9,1.3c-1,0.3-1.8,0.5-1.7,1.8
	c0.1,1.5-0.5,2.8-1.9,3.6c-1.7,1-3.4,1.8-5,2.9c-6.2,4.1-12.8,2-19.1,0.8c-4.2-0.8-8.4-2.4-12.4-4.1c-5.8-2.5-10.4-6.8-14.5-11.5
	c-1.4-1.6-2.7-3.3-4.1-4.8c-1.8-1.9-2.8-4.1-3.1-6.8c-0.1-1,0.1-2.5-1.7-2.5c-0.2,0-0.5-0.7-0.6-1c-1-4-2.1-8.1-3.1-12.1
	c-0.6-2.4-1.1-4.7-1.6-7.1c-0.7-2.9,0.1-5.5,1.2-8.2c0.5-1.3,1.2-2.5,2-4.1c2.5,1.7,4.9,3.2,7.1,4.8c2.1,1.5,4.1,3,6,4.6
	c3.5,3,7.4,3.1,11.6,1.8c3.9-1.3,7.9-2.5,12-3.3c7-1.5,13.5-4.3,19.6-8c0.5-0.3,1.1-0.3,1.6-0.6c0.4-0.2,0.8-0.6,1.5-1.2
	c1.5,1.7,3.3,3.3,4.5,5.2c3.1,5,5.4,10.3,6.8,16C134.7,122,135.6,127.8,135,133.7z"/>
<path fill-rule="evenodd" clip-rule="evenodd" fill="#E8E8E8" d="M79.2,44.9c0,1,0.1,2,0,3c-0.1,0.5-0.5,1.1-0.9,1.3
	c-2.1,0.9-6.6-0.4-7.3-2.6c-0.7-2.2-0.6-4.7-0.8-7.1c0-0.2,0.6-0.7,1-0.7c1.6-0.3,3.3-0.6,5-0.7c1.1-0.1,2,0.3,2.3,1.5
	c0.4,1.8,0.7,3.6,1.1,5.4C79.5,44.8,79.3,44.9,79.2,44.9z"/>
<path fill-rule="evenodd" clip-rule="evenodd" fill="#E8E8E8" d="M116.5,48.4c-0.2,3.2-0.2,3.2-3.4,2.7c-1.5-0.2-3.1-0.5-4.6-1.1
	c-0.5-0.2-1-1.2-0.9-1.7c0.4-1.8,0.6-4,1.8-5.1c1-1,3.2-0.9,4.9-0.8c0.6,0,1.5,1.2,1.8,2.1C116.4,45.7,116.4,47.1,116.5,48.4z"/>
<path fill-rule="evenodd" clip-rule="evenodd" fill="#E8E8E8" d="M87.8,69.6c0,0.8,0,1.6,0,2.4c0.1,1.1-0.6,1.5-1.6,1.4
	c-1.2-0.1-2.4-0.1-3.6-0.3c-0.4,0-0.8-0.2-1.1-0.5c-0.9-1-1.1-4.2-0.3-5.3c0.6-0.7,1.4-1.3,2.2-1.7c0.7-0.4,1.6-0.5,2.4-0.6
	c1.1-0.1,1.8,0.4,1.9,1.6C87.9,67.6,87.8,68.6,87.8,69.6C87.8,69.6,87.8,69.6,87.8,69.6z"/>
<path fill-rule="evenodd" clip-rule="evenodd" fill="#E8E8E8" d="M95.3,109.9c2.3,0.2,4.5,0.3,6.7,0.5c1.1,0.1,2.4,1.5,2.3,2.8
	c-0.1,1.6-0.3,3.1-0.7,4.7c-0.2,1-1.2,1.6-2.2,1.2c-1.9-0.7-3.9-1.5-5.6-2.6c-0.7-0.4-1-1.8-1-2.7C94.7,112.5,95.1,111.3,95.3,109.9
	z"/>
<path fill-rule="evenodd" clip-rule="evenodd" fill="#E8E8E8" d="M106.6,136.5c0,1.6-0.6,2.2-2,2.1c-1-0.1-2.1-0.2-3.1-0.4
	c-2.8-0.5-4.7-3.4-4.3-6.3c0-0.3,0.4-0.7,0.6-0.8c1.6-0.2,3.3-0.6,5-0.5c2.1,0.2,3.6,2.5,3.9,5.1C106.5,136,106.6,136.4,106.6,136.5
	z"/>
<path fill-rule="evenodd" clip-rule="evenodd" fill="#E8E8E8" d="M98.7,145.2c1.8-0.2,3.5-0.5,5.2-0.5c1.5,0,2,1.2,1.3,2.5
	c-0.2,0.5,0.3,1.4,0.6,2.1c0.2,0.5,0.6,0.9,1,1.4c-0.5,0.2-1.1,0.5-1.7,0.6c-0.4,0.1-0.8,0-1.3,0C100,151.2,98.6,149.7,98.7,145.2z"
	/>
<path fill-rule="evenodd" clip-rule="evenodd" fill="#E8E8E8" d="M109.3,80.4c-0.5-0.5-1.7-0.4-2.5-0.3c-1.1,0.1-2.3,0.4-3.4,0.7
	c-0.7,0.2-1.6,0.2-2,0.7c-0.7,0.8-1.4,1-2.3,0.6c-5.2-2.1-10.6-2.9-16.1-2.4c-1.8,0.2-3-0.6-3.9-1.8c-0.5-0.7-0.7-1.6-1.1-2.4
	c-0.2-0.5-0.7-1.3-0.9-1.3c-1.7,0.2-3.4,0.7-5,1c0.1,0.7,0.2,1.1,0.3,1.6c-1.3,0.4-2.6,0.8-4.2,1.2c1.4,1.7,2.4,3.1,3.6,4.4
	c3.1,3.2,6.2,6.6,10.4,8.4c6,2.6,12.3,2.5,18.6,1.3c5-1,7.8-4.4,9.1-9.1C110.1,82.3,109.9,81,109.3,80.4z M97.9,90.3
	C90,90.8,83.6,88.1,78.3,82c5.3-0.3,10.4-0.3,15.2,1.9c2.2,1,4.6,1.5,7.2,0.9c-0.3,0.3-0.5,0.6-1,1.2c1.4-0.2,2.4-0.3,3.4-0.5
	C102.8,88.2,100.7,90.1,97.9,90.3z"/>
</svg>
