<?xml version="1.0" encoding="utf-8"?>
<!-- Generator: Adobe Illustrator 18.0.0, SVG Export Plug-In . SVG Version: 6.00 Build 0)  -->
<!DOCTYPE svg PUBLIC "-//W3C//DTD SVG 1.1//EN" "http://www.w3.org/Graphics/SVG/1.1/DTD/svg11.dtd">
<svg version="1.1" id="Your_Icon" xmlns="http://www.w3.org/2000/svg" xmlns:xlink="http://www.w3.org/1999/xlink" x="0px" y="0px"
	 viewBox="0 6.2 100 76.5" enable-background="new 0 6.2 100 76.5" xml:space="preserve">
<g>
	<g>
		<path fill="#E8E8E8" d="M13.3,61L13.3,61c-3.6,0-6.6-2.6-7.2-6.1c-0.7-3.9,2-7.7,6-8.4c0.4-0.1,0.8-0.1,1.2-0.1
			c3.6,0,6.6,2.6,7.2,6.1c0.3,1.9-0.1,3.8-1.3,5.4c-1.1,1.6-2.8,2.6-4.7,2.9C14.1,61,13.7,61,13.3,61z M13.3,47.9
			c-0.3,0-0.7,0-1,0.1c-3.2,0.5-5.4,3.6-4.8,6.8c0.5,2.9,2.9,4.9,5.8,4.9h0c0.3,0,0.7,0,1-0.1c1.6-0.3,2.9-1.1,3.8-2.4
			s1.3-2.8,1-4.4C18.6,50,16.2,47.9,13.3,47.9z"/>
	</g>
	<g>
		<path fill="#E8E8E8" d="M62,55.1C62,55.1,62,55.1,62,55.1c-2.5,0-4.9-0.8-6.9-2.4c-2.4-1.9-4-4.5-4.4-7.5c-0.4-3,0.4-6,2.3-8.4
			c1.9-2.4,4.5-4,7.5-4.4c3-0.4,6,0.4,8.4,2.3c2.4,1.8,4,4.5,4.4,7.5c0.4,3-0.4,6-2.3,8.4c-1.9,2.4-4.5,4-7.5,4.4
			C63,55,62.5,55.1,62,55.1z M62,33.7c-0.4,0-0.9,0-1.3,0.1c-2.7,0.3-5,1.7-6.6,3.8c-1.6,2.1-2.3,4.8-2,7.4c0.3,2.7,1.7,5,3.8,6.6
			c1.7,1.3,3.9,2.1,6.1,2.1c0,0,0,0,0,0c0.4,0,0.9,0,1.3-0.1c2.7-0.3,5-1.7,6.6-3.8c1.6-2.1,2.3-4.7,2-7.4c-0.3-2.7-1.7-5-3.8-6.6
			C66.4,34.4,64.2,33.7,62,33.7z"/>
	</g>
	<g>
		<path fill="#E8E8E8" d="M62,53.4c-2.1,0-4.2-0.7-5.9-2c-2.1-1.6-3.4-3.9-3.7-6.4c-0.3-2.6,0.3-5.1,1.9-7.2
			c1.6-2.1,3.9-3.4,6.4-3.7c2.5-0.3,5.2,0.4,7.2,1.9c2.1,1.6,3.4,3.9,3.7,6.4c0.3,2.6-0.3,5.1-1.9,7.2c-1.6,2.1-3.9,3.4-6.4,3.7
			C62.8,53.4,62.4,53.4,62,53.4z M62,35.3c-0.4,0-0.7,0-1.1,0.1c-2.2,0.3-4.2,1.4-5.5,3.2c-1.4,1.8-1.9,4-1.7,6.2
			c0.3,2.2,1.4,4.2,3.2,5.5c1.7,1.3,4,1.9,6.2,1.7c2.2-0.3,4.2-1.4,5.5-3.2c1.4-1.8,1.9-4,1.7-6.2c-0.3-2.2-1.4-4.2-3.2-5.5
			C65.6,36,63.8,35.3,62,35.3z"/>
	</g>
	<g>
		<path fill="#E8E8E8" d="M62.1,72.7c-12.6,0-23.8-8.5-27.2-20.7c-2-7.3-1.1-14.9,2.6-21.5c3.7-6.6,9.7-11.3,17-13.4
			c2.5-0.7,5.1-1.1,7.6-1.1c12.6,0,23.8,8.5,27.2,20.7c2,7.3,1.1,14.9-2.6,21.5c-3.7,6.6-9.7,11.3-17,13.4
			C67.2,72.3,64.6,72.7,62.1,72.7z M62.1,17.5c-2.4,0-4.9,0.3-7.3,1c-6.9,1.9-12.7,6.4-16.2,12.7c-3.5,6.3-4.4,13.5-2.5,20.4
			c3.2,11.6,13.9,19.7,25.9,19.7c2.4,0,4.9-0.3,7.3-1c6.9-1.9,12.7-6.4,16.2-12.7c3.5-6.3,4.4-13.5,2.5-20.4
			C84.7,25.6,74.1,17.5,62.1,17.5z"/>
	</g>
	<g>
		<path fill="#E8E8E8" d="M72.3,59.3L72.3,59.3c-0.8,0-1.5-0.4-2-1c-0.8-1.1-0.6-2.6,0.5-3.5c0.4-0.3,1-0.5,1.5-0.5
			c0.8,0,1.5,0.4,2,1c0.4,0.5,0.6,1.2,0.5,1.8c-0.1,0.7-0.4,1.2-0.9,1.6C73.3,59.2,72.8,59.3,72.3,59.3z M72.3,55.8
			c-0.2,0-0.5,0.1-0.7,0.2c-0.5,0.4-0.6,1.1-0.2,1.5c0.2,0.3,0.5,0.4,0.9,0.4l0,0c0.2,0,0.5-0.1,0.7-0.2c0.2-0.2,0.4-0.4,0.4-0.7
			c0-0.3,0-0.6-0.2-0.8C72.9,55.9,72.6,55.8,72.3,55.8z"/>
	</g>
	<g>
		<path fill="#E8E8E8" d="M78.7,44.2L78.7,44.2c-1.2,0-2.3-0.9-2.4-2.1c-0.1-0.7,0.1-1.3,0.5-1.8c0.4-0.5,1-0.9,1.6-0.9
			c1.4-0.2,2.6,0.8,2.8,2.1c0.2,1.4-0.8,2.6-2.1,2.8C78.9,44.2,78.8,44.2,78.7,44.2z M78.7,40.6c0,0-0.1,0-0.1,0
			c-0.3,0-0.6,0.2-0.7,0.4c-0.2,0.2-0.3,0.5-0.2,0.8c0.1,0.6,0.6,1,1.2,0.9c0.6-0.1,1-0.6,0.9-1.2C79.7,41.1,79.2,40.6,78.7,40.6z"
			/>
	</g>
	<g>
		<path fill="#E8E8E8" d="M68.8,31.1L68.8,31.1c-0.3,0-0.6-0.1-0.9-0.2c-0.6-0.3-1.1-0.7-1.3-1.3c-0.3-0.6-0.3-1.3,0-1.9
			c0.4-0.9,1.3-1.5,2.3-1.5c0.3,0,0.6,0.1,0.9,0.2c0.6,0.3,1.1,0.7,1.3,1.3c0.3,0.6,0.3,1.3,0,1.9C70.7,30.5,69.8,31.1,68.8,31.1z
			 M68.8,27.5c-0.4,0-0.8,0.3-1,0.7c-0.1,0.3-0.1,0.6,0,0.8c0.1,0.3,0.3,0.5,0.6,0.6c0.6,0.2,1.2,0,1.4-0.6c0.1-0.3,0.1-0.6,0-0.8
			c-0.1-0.3-0.3-0.5-0.6-0.6C69.1,27.6,68.9,27.5,68.8,27.5z"/>
	</g>
	<g>
		<path fill="#E8E8E8" d="M52.5,33.1L52.5,33.1c-0.8,0-1.5-0.4-2-1C50.1,31.6,50,31,50,30.3c0.1-0.7,0.4-1.2,0.9-1.6
			c0.4-0.3,1-0.5,1.5-0.5c0.8,0,1.5,0.4,2,1c0.8,1.1,0.6,2.6-0.5,3.5C53.6,32.9,53,33.1,52.5,33.1z M52.5,29.5
			c-0.2,0-0.5,0.1-0.7,0.2c-0.2,0.2-0.4,0.4-0.4,0.7c0,0.3,0,0.6,0.2,0.8c0.2,0.3,0.5,0.4,0.9,0.4l0,0c0.2,0,0.5-0.1,0.7-0.2
			c0.5-0.4,0.6-1.1,0.2-1.5C53.1,29.7,52.8,29.5,52.5,29.5z"/>
	</g>
	<g>
		<path fill="#E8E8E8" d="M46.1,48.2C46.1,48.2,46.1,48.2,46.1,48.2c-1.2,0-2.3-0.9-2.4-2.1c-0.1-0.7,0.1-1.3,0.5-1.8
			c0.4-0.5,1-0.9,1.6-0.9c1.4-0.2,2.6,0.8,2.8,2.1c0.2,1.4-0.8,2.6-2.1,2.8C46.3,48.2,46.2,48.2,46.1,48.2z M46.1,44.6
			c0,0-0.1,0-0.1,0c-0.3,0-0.6,0.2-0.7,0.4c-0.2,0.2-0.3,0.5-0.2,0.8c0.1,0.6,0.6,1,1.2,0.9c0.6-0.1,1-0.6,0.9-1.2
			C47.1,45.1,46.6,44.6,46.1,44.6z"/>
	</g>
	<g>
		<path fill="#E8E8E8" d="M55.9,61.3L55.9,61.3c-0.3,0-0.6-0.1-0.9-0.2c-1.3-0.5-1.9-2-1.3-3.2c0.4-0.9,1.3-1.5,2.3-1.5
			c0.3,0,0.6,0.1,0.9,0.2c1.3,0.5,1.9,2,1.3,3.2C57.8,60.7,57,61.3,55.9,61.3z M55.9,57.8c-0.4,0-0.8,0.3-1,0.7
			c-0.2,0.6,0,1.2,0.6,1.4c0.6,0.2,1.2,0,1.4-0.6c0.2-0.6,0-1.2-0.6-1.4C56.2,57.8,56.1,57.8,55.9,57.8z"/>
	</g>
	<g>
		<path fill="#E8E8E8" d="M79.6,56.2L79.6,56.2c-0.7,0-1.4-0.1-2.1-0.4c-2.8-1.1-4.1-4.3-2.9-7.1c0.8-2,2.8-3.4,5-3.4
			c0.7,0,1.4,0.1,2.1,0.4c2.8,1.1,4.1,4.3,2.9,7.1C83.7,54.9,81.8,56.2,79.6,56.2z M79.6,46.8c-1.6,0-3.1,1-3.8,2.5
			C75,51.3,76,53.7,78,54.6c0.5,0.2,1,0.3,1.5,0.3c1.6,0,3.1-1,3.8-2.5c0.9-2.1-0.1-4.4-2.2-5.3C80.6,46.9,80.1,46.8,79.6,46.8z"/>
	</g>
	<g>
		<path fill="#E8E8E8" d="M77.1,37.7L77.1,37.7c-1.7,0-3.3-0.8-4.3-2.1c-1.8-2.4-1.4-5.8,1-7.6c1-0.7,2.1-1.1,3.3-1.1
			c1.7,0,3.3,0.8,4.3,2.1c1.8,2.4,1.4,5.8-1,7.6C79.5,37.3,78.3,37.7,77.1,37.7z M77.1,28.2c-0.9,0-1.8,0.3-2.5,0.8
			c-1.8,1.4-2.1,3.9-0.7,5.7c0.8,1,1.9,1.6,3.2,1.6c0.9,0,1.8-0.3,2.5-0.8c1.8-1.4,2.1-3.9,0.7-5.7C79.6,28.7,78.4,28.2,77.1,28.2z"
			/>
	</g>
	<g>
		<path fill="#E8E8E8" d="M59.8,30.5C59.8,30.5,59.8,30.5,59.8,30.5c-2.7,0-5-2-5.4-4.7c-0.2-1.4,0.2-2.9,1.1-4
			c0.9-1.2,2.2-1.9,3.6-2.1c0.2,0,0.5,0,0.7,0c2.7,0,5,2,5.4,4.7c0.4,3-1.7,5.7-4.7,6.1C60.3,30.5,60,30.5,59.8,30.5z M59.8,21
			c-0.2,0-0.4,0-0.5,0c-1.1,0.1-2,0.7-2.7,1.6c-0.7,0.9-0.9,1.9-0.8,3c0.3,2,2,3.5,4,3.5l0,0c0.2,0,0.4,0,0.5,0
			c2.2-0.3,3.8-2.3,3.5-4.6C63.6,22.5,61.8,21,59.8,21z"/>
	</g>
	<g>
		<path fill="#E8E8E8" d="M44.9,41.9C44.9,41.9,44.9,41.9,44.9,41.9c-0.7,0-1.4-0.1-2.1-0.4c-1.3-0.6-2.4-1.6-2.9-2.9
			c-0.6-1.3-0.6-2.8,0-4.2c0.8-2,2.8-3.4,5-3.4c0.7,0,1.4,0.1,2.1,0.4c1.3,0.6,2.4,1.6,2.9,2.9c0.6,1.3,0.6,2.8,0,4.2
			C49.1,40.6,47.1,41.9,44.9,41.9z M44.9,32.4c-1.6,0-3.1,1-3.8,2.5c-0.4,1-0.4,2.1,0,3.1c0.4,1,1.2,1.8,2.2,2.2
			c0.5,0.2,1,0.3,1.5,0.3c1.6,0,3.1-1,3.8-2.5c0.4-1,0.4-2.1,0-3.1c-0.4-1-1.2-1.8-2.2-2.2C46,32.5,45.5,32.4,44.9,32.4z"/>
	</g>
	<g>
		<path fill="#E8E8E8" d="M47.4,60.5C47.4,60.5,47.4,60.5,47.4,60.5c-1.7,0-3.3-0.8-4.3-2.1c-0.9-1.2-1.3-2.6-1.1-4
			c0.2-1.4,0.9-2.7,2.1-3.6c1-0.7,2.1-1.1,3.3-1.1c1.7,0,3.3,0.8,4.3,2.1c1.8,2.4,1.4,5.8-1,7.6C49.7,60.1,48.6,60.5,47.4,60.5z
			 M47.4,51c-0.9,0-1.8,0.3-2.5,0.8c-0.9,0.7-1.4,1.6-1.6,2.7c-0.1,1.1,0.1,2.1,0.8,3c0.8,1,1.9,1.6,3.2,1.6c0,0,0,0,0,0
			c0.9,0,1.8-0.3,2.5-0.8c1.8-1.4,2.1-3.9,0.7-5.7C49.8,51.6,48.6,51,47.4,51z"/>
	</g>
	<g>
		<path fill="#E8E8E8" d="M64.7,67.7C64.7,67.7,64.7,67.7,64.7,67.7c-2.7,0-5-2-5.4-4.7c-0.2-1.4,0.2-2.9,1.1-4
			c0.9-1.2,2.2-1.9,3.6-2.1c0.2,0,0.5,0,0.7,0c2.7,0,5,2,5.4,4.7c0.4,3-1.7,5.7-4.7,6.1C65.2,67.6,64.9,67.7,64.7,67.7z M64.7,58.2
			c-0.2,0-0.4,0-0.5,0c-1.1,0.1-2,0.7-2.7,1.6c-0.7,0.9-0.9,1.9-0.8,3c0.3,2,2,3.5,4,3.5c0,0,0,0,0,0c0.2,0,0.4,0,0.5,0
			c2.2-0.3,3.8-2.3,3.5-4.6C68.5,59.7,66.7,58.2,64.7,58.2z"/>
	</g>
	<g>
		<path fill="#E8E8E8" d="M25.4,51.7l-0.6-1.2c3.4-1.5,4.9-3.2,4.9-5.2c-0.1-2.3-1.5-3.8-5.1-5.3l-0.5-0.2l0.4-2.4l0.5,0
			c3.8-0.3,5.8-1.3,6.4-3.3c0.8-2.5-0.5-4.3-3.1-6.7L28,27.1l1.1-2.1l0.5,0.1c3.6,1,6,0.7,7.3-0.9c1.3-1.7,1.1-3.8-0.7-7.3L36,16.5
			l1.8-1.6l0.4,0.3c3.1,2.3,5.3,2.7,7.2,1.6c2.1-1.3,2.3-3.5,1.8-7l-0.1-0.5l2.2-0.9l0.3,0.5c1.6,2.3,3.5,4.4,6.3,3.9
			c2.5-0.5,3.6-4.3,4-5.9l0.1-0.5l2.4-0.1l0.1,0.5c0.9,3.6,2.4,5.4,4.7,5.8c2.5,0.4,4.3-1.9,5.7-4.2l0.3-0.5l2.3,0.8l-0.1,0.5
			c-0.4,3.5,0.5,5.9,2.5,7c1.7,0.9,3.9,0.3,6.7-1.9l0.4-0.3l1.9,1.5l-0.2,0.5c-1.6,3.3-1.6,5.5,0.1,7.4c1.7,1.9,4.5,1.3,6.9,0.5
			l0.5-0.2l1.2,2L95,26c-1.7,1.6-3.4,4.2-2.4,6.9c0.9,2.2,3.1,2.8,6.2,2.9l0.5,0l0.5,2.3l-0.5,0.2c-3.1,1.4-4.6,3.2-4.5,5.6
			c0.1,2.5,1.9,3.7,4.7,4.9L100,49v0.5h-0.7L99,50.1c-2.9-1.2-5.5-2.7-5.6-6.1c-0.1-2.9,1.5-5,4.8-6.7l0-0.2
			c-2.9-0.2-5.7-0.8-6.9-3.7c-1-2.6-0.2-5.3,2.3-8l-0.1-0.2c-2.6,0.8-5.7,1.3-7.8-1.1c-2.4-2.8-1.6-5.9-0.5-8.4l-0.2-0.1
			c-3.1,2.3-5.7,2.9-7.8,1.7c-2.4-1.3-3.5-4-3.3-7.8l-0.2-0.1c-1.5,2.4-3.7,4.8-6.8,4.3c-3.6-0.5-5-3.7-5.7-6.3l-0.2,0
			c-0.6,2.4-1.9,5.9-4.9,6.5c-3.4,0.7-5.8-1.7-7.4-4l-0.2,0.1c0.4,3.2,0.4,6.1-2.5,7.8c-2.9,1.8-5.9,0.3-8.3-1.3l-0.2,0.2
			c1.3,2.6,2.4,5.7,0.3,8.3c-1.6,2-4.3,2.5-8.2,1.5l-0.1,0.2c2.2,2,4.2,4.4,3.1,7.8c-1.1,3.1-4.4,3.9-7.1,4.1l0,0.2
			c2.6,1.1,5.4,2.9,5.5,6.3C31.2,48.7,27.9,50.6,25.4,51.7z"/>
	</g>
	<g>
		<path fill="#E8E8E8" d="M62.1,72.7C62.1,72.7,62.1,72.7,62.1,72.7c-7.4,0-14.4-2.9-19.8-8.1c-11.1-10.9-11.3-28.8-0.4-40
			c5.4-5.5,12.5-8.5,20.2-8.5c7.4,0,14.4,2.9,19.8,8.1c5.4,5.3,8.4,12.3,8.5,19.9c0.1,7.5-2.8,14.7-8.1,20.1
			C76.9,69.7,69.8,72.7,62.1,72.7z M62.1,17.5c-7.3,0-14.1,2.9-19.2,8.1c-10.4,10.6-10.2,27.7,0.4,38c5.1,4.9,11.7,7.7,18.8,7.7
			c0,0,0,0,0,0c7.3,0,14.1-2.9,19.2-8.1c5-5.1,7.7-11.9,7.7-19.1c-0.1-7.2-3-13.9-8.1-18.9C75.8,20.2,69.2,17.5,62.1,17.5z"/>
	</g>
	<g>
		<path fill="#E8E8E8" d="M13.5,67.2l-1.8-0.1l-0.1-0.5c-0.2-0.9-0.6-2.5-1.8-2.9c-1.1-0.4-2.5,0.6-3.2,1.2l-0.4,0.4l-1.5-1.1
			L5,63.6c0.4-0.9,0.9-2.4,0.1-3.4l-0.4-0.5l1.1-0.8l0.4,0.5c0.7,0.9,0.9,2.2,0.4,3.7c1.3-0.9,2.6-1.1,3.7-0.8
			c1.1,0.4,1.9,1.4,2.4,2.9c0.5-1,1.3-2.3,2.7-2.7c1.4-0.3,2.7,0.5,3.6,1.2c-0.3-1.6,0-2.8,0.8-3.7c0.8-0.8,2.1-1.2,3.7-1
			c-0.7-0.8-1.6-2.1-1.3-3.5c0.2-1.2,1.1-2.1,2.6-2.8c-1.1-0.3-2.5-0.9-3-2.3c-0.4-1.1-0.2-2.4,0.6-3.7c-1.5,0.5-2.8,0.4-3.8-0.3
			c-1.2-0.8-1.4-2.4-1.5-3.5c-1,1.2-2.2,1.8-3.3,1.8c-1.2-0.1-2.3-0.8-3.1-2.1c-0.1,1.1-0.6,2.6-1.8,3.3c-1,0.6-2.3,0.5-3.8-0.1
			c0.5,1,0.9,2.5,0.2,3.8c-0.7,1.3-2.2,1.8-3.3,2c0.9,0.6,2.1,1.6,2.3,3c0.2,2-1.7,3.5-2.5,4L1.2,59l-0.8-1.1L1,57.5
			c1-0.7,2-1.8,1.9-2.8c-0.1-1-1.3-1.9-2.4-2.4L0,52.1l0.3-1.8l0.5,0c1.1,0,2.7-0.4,3.1-1.3c0.5-0.9-0.1-2.3-0.7-3.3l-0.3-0.5
			l1.2-1.3l0.5,0.3c0.8,0.5,2.3,1.2,3.4,0.6c0.9-0.5,1.2-2,1.2-3.2l0-0.5l1.7-0.4l0.2,0.5c0.4,0.8,1.3,2.2,2.5,2.3
			c1.2,0.1,2.2-1.2,2.7-2l0.3-0.5l1.7,0.6L18.5,42c-0.1,1.1,0,2.7,0.9,3.3c1,0.7,2.6,0.2,3.4-0.2l0.5-0.2l1.1,1.4l-0.3,0.4
			c-0.6,0.7-1.5,2.1-1,3.2c0.4,1,1.8,1.5,3,1.7l0.5,0.1l0.2,1.8l-0.5,0.2c-0.9,0.3-2.4,1-2.6,2.2c-0.2,1,0.7,2.3,1.6,3l0.4,0.4
			l-0.8,1.6l-0.5-0.1c-0.9-0.2-2.5-0.5-3.4,0.4c-0.8,0.9-0.5,2.5-0.3,3.4l0.2,0.5l-1.6,0.9l-0.4-0.4c-0.8-0.8-2.1-1.7-3.1-1.5
			c-1,0.2-1.8,1.6-2.1,2.7L13.5,67.2z"/>
	</g>
	<g>
		<path fill="#E8E8E8" d="M61.7,82.7l-0.1-0.5c-0.9-3.5-2.1-5-4.3-5.4c-2.3-0.4-4.2,0.8-6.1,3.8L50.9,81l-2.3-0.8l0.1-0.5
			c0.3-3.1,0.1-5.3-2.1-6.6c-2-1.1-4.4-0.6-7.1,1.5L39.1,75l-1.9-1.5l0.2-0.5c1.2-2.4,2-5,0.3-6.9c-2-2.3-5.7-1.4-7.2-0.9L30,65.3
			l-1.2-2l0.4-0.4c2.3-2.2,3.6-4.2,2.8-6.5c-1.1-2.8-4.9-3.2-6.6-3.3l0-1.4c1.9,0.1,6.4,0.6,7.8,4.2c1.2,3-0.5,5.4-2.7,7.6l0.1,0.2
			c2-0.6,5.8-1.2,8.2,1.5c2.1,2.4,1.3,5.3,0.1,8l0.2,0.1c3-2.2,5.7-2.6,8.1-1.3c2.9,1.6,3.1,4.5,2.9,7.4l0.2,0.1
			c1.4-2.1,3.6-4.5,7.1-3.9c3.3,0.5,4.6,3.2,5.3,5.8l0.2,0c0.6-2.7,1.8-5.4,5.3-6.1c3.3-0.7,5.4,1.4,7,3.6l0.2-0.1
			c-0.3-2.8-0.1-5.6,2.8-7.4c3-1.8,5.7-0.6,7.9,0.9l0.2-0.2c-1.3-2.5-2-5.2,0.1-7.9c2.2-2.8,5.2-2.6,7.8-1.9l0.1-0.2
			c-2.1-2-3.7-4.2-2.7-7.4c1.3-3.7,4.8-4.4,7.3-4.6l0.1,1.4c-3.5,0.3-5.3,1.4-6.1,3.7c-0.8,2.4,0.4,4.2,2.7,6.3l0.4,0.4L95,63.8
			l-0.5-0.1c-3.4-1-5.4-0.6-6.9,1.3c-1.7,2.1-1.1,4.2,0.3,6.9l0.3,0.5l-1.8,1.6l-0.4-0.3c-2.4-1.7-4.5-2.6-6.8-1.2
			c-2.3,1.4-2.6,3.6-2.1,6.6l0.1,0.5l-2.2,0.9L74.5,80c-1.7-2.5-3.3-4-5.9-3.5c-2.3,0.5-3.6,2.1-4.3,5.5l-0.1,0.5L61.7,82.7z"/>
	</g>
</g>
</svg>
