<?xml version="1.0" encoding="UTF-8" standalone="no"?>
<svg width="60px" height="60px" viewBox="0 0 60 60" version="1.1" xmlns="http://www.w3.org/2000/svg" xmlns:xlink="http://www.w3.org/1999/xlink" xmlns:sketch="http://www.bohemiancoding.com/sketch/ns">
    <title>Slice 1</title>
    <description>Created with Sketch (http://www.bohemiancoding.com/sketch)</description>
    <defs></defs>
    <g id="Page-1" stroke="none" stroke-width="1" fill="none" fill-rule="evenodd" sketch:type="MSPage">
        <path d="M30,60 C46.5685433,60 60,46.5685433 60,30 C60,13.4314567 46.5685433,0 30,0 C13.4314567,0 0,13.4314567 0,30 C0,46.5685433 13.4314567,60 30,60 Z" id="Oval-1" fill="#4D5080" sketch:type="MSShapeGroup"></path>
        <path d="M18.9159289,25.216 C20.4519289,24.064 21.6679289,24.832 23.3319289,26.752 C23.5239289,26.944 23.7799289,26.688 23.9079289,26.624 C24.0359289,26.496 26.2119289,24.512 26.3399289,24.384 C26.4679289,24.32 26.5959289,24.128 26.4039289,23.936 C26.2119289,23.744 25.6359289,22.976 25.1879289,22.4 C22.3079289,18.624 33.1239289,16.064 31.4599289,16.064 C30.6279289,16 27.2359289,16 26.7239289,16 C24.6759289,16.256 22.1159289,18.176 20.7719289,19.072 C19.1079289,20.224 18.4679289,20.928 18.3399289,20.992 C17.8919289,21.44 18.2759289,22.4 17.4439289,23.168 C16.4839289,23.936 15.9079289,23.36 15.3959289,23.808 C15.1399289,24.064 14.3719289,24.576 14.1799289,24.768 C13.9879289,24.96 13.9239289,25.28 14.1159289,25.536 C14.1159289,25.536 16.1639289,27.776 16.3559289,27.968 C16.4839289,28.16 16.9319289,28.352 17.2519289,28.096 C17.5079289,27.84 18.2759289,27.2 18.4039289,27.072 C18.5319289,27.008 18.2759289,25.728 18.9159289,25.216 Z M28.0679289,26.048 C27.8759289,25.792 27.6839289,25.792 27.4279289,25.984 L25.1239289,27.968 C24.9959289,28.16 24.9319289,28.416 25.1239289,28.608 L38.3719289,43.712 C38.6919289,44.096 39.2039289,44.096 39.5879289,43.84 L41.1239289,42.496 C41.5079289,42.176 41.5079289,41.664 41.1879289,41.28 L28.0679289,26.048 Z M45.7959289,19.584 C45.6679289,18.816 45.2199289,19.008 45.0279289,19.328 C44.8359289,19.648 43.8759289,21.056 43.4919289,21.696 C43.1079289,22.336 42.1479289,23.616 40.4199289,22.4 C38.5639289,21.056 39.2039289,20.16 39.5239289,19.584 C39.8439289,18.944 40.8039289,17.216 40.9959289,17.024 C41.1239289,16.832 40.9319289,16.192 40.3559289,16.448 C39.7799289,16.704 36.3239289,18.048 35.8759289,20.032 C35.3639289,22.08 36.2599289,23.872 34.5319289,25.664 L32.3559289,27.904 L34.5319289,30.4 L37.1559289,27.904 C37.7959289,27.264 39.1399289,26.624 40.3559289,26.88 C42.9799289,27.52 44.3879289,26.496 45.2839289,24.896 C46.0519289,23.424 45.9239289,20.416 45.7959289,19.584 Z M18.3399289,41.472 C17.9559289,41.792 17.9559289,42.368 18.3399289,42.688 L19.8119289,44.16 C20.1959289,44.48 20.7079289,44.352 21.0279289,44.032 L28.8999289,36.288 L26.4679289,33.536 L18.3399289,41.472 Z" id="⚒" fill="#FFFFFF" sketch:type="MSShapeGroup"></path>
    </g>
</svg>