<?xml version="1.0" encoding="utf-8"?>
<!-- Generator: Adobe Illustrator 17.0.2, SVG Export Plug-In . SVG Version: 6.00 Build 0)  -->
<svg version="1.2" baseProfile="tiny" id="Your_Icon"
	 xmlns="http://www.w3.org/2000/svg" xmlns:xlink="http://www.w3.org/1999/xlink" x="0px" y="0px" width="100px" height="100px"
	 viewBox="0 0 100 100" xml:space="preserve">
<g>
	<circle fill="#E8E8E8" cx="55.538" cy="19.677" r="4.901"/>
</g>
<g>
	<circle fill="#E8E8E8" cx="23.472" cy="42.596" r="4.9"/>
</g>
<g>
	<circle fill="#E8E8E8" cx="45.736" cy="65.145" r="4.901"/>
</g>
<g>
	<circle fill="#E8E8E8" cx="12.968" cy="82.662" r="4.901"/>
</g>
<g>
	<circle fill="#E8E8E8" cx="81.493" cy="25.552" r="4.901"/>
</g>
<g>
	<circle fill="#E8E8E8" cx="47.69" cy="89.1" r="4.9"/>
</g>
<g>
	<path fill="#E8E8E8" d="M12.968,83.811c-0.145,0-0.287-0.027-0.419-0.078c-0.101-0.041-0.197-0.094-0.285-0.162
		c-0.15-0.117-0.273-0.273-0.353-0.457c-0.02-0.047-0.037-0.096-0.05-0.143L4.046,56.078c-0.136-0.471,0.039-0.975,0.438-1.258
		l51.203-36.386c0.455-0.323,1.075-0.273,1.473,0.117s0.457,1.01,0.143,1.47L16.579,79.428l28.615-15.297
		c0.166-0.088,0.353-0.135,0.542-0.135h46.606l-11.85-37.638L58.655,7.024c-0.475-0.421-0.52-1.147-0.098-1.623
		c0.42-0.475,1.147-0.52,1.622-0.099l22.075,19.545c0.156,0.139,0.272,0.317,0.335,0.516L95.006,64.8
		c0.109,0.348,0.047,0.729-0.17,1.023c-0.217,0.297-0.561,0.471-0.927,0.471H46.024l-32.492,17.37
		c-0.051,0.027-0.104,0.053-0.159,0.074c-0.069,0.025-0.141,0.045-0.212,0.057C13.097,83.807,13.032,83.811,12.968,83.811z
		 M6.482,56.221l6.912,23.785L51.75,24.053L6.482,56.221z"/>
</g>
<g>
	<path fill="#E8E8E8" d="M45.737,66.295c-0.077,0-0.155-0.008-0.233-0.023l0,0c-0.001,0-0.002,0-0.002,0
		c-0.017-0.004-0.032-0.008-0.047-0.012l0,0c-0.003,0-0.004,0-0.006-0.002l0,0c-0.213-0.055-0.396-0.164-0.539-0.312L10.716,31.75
		L6.281,55.965c-0.114,0.625-0.714,1.037-1.338,0.924c-0.625-0.115-1.038-0.715-0.924-1.338l4.829-26.37
		c0.076-0.42,0.381-0.763,0.788-0.891c0.408-0.127,0.854-0.018,1.155,0.285l34.292,34.292l9.896-42.656l-28.495-7.184
		c-0.526-0.132-0.888-0.614-0.868-1.156s0.416-0.997,0.949-1.091l32.653-5.749c0.38-0.067,0.769,0.062,1.033,0.341
		c0.266,0.28,0.373,0.675,0.286,1.051l-2.81,12.109l24.046,6.062c0.391,0.099,0.702,0.396,0.819,0.782
		c0.116,0.386,0.022,0.806-0.249,1.105L46.603,65.9c-0.065,0.076-0.141,0.143-0.224,0.197c0,0.002-0.001,0.002-0.001,0.002
		c-0.001,0-0.001,0-0.002,0l-0.001,0.002c-0.001,0-0.001,0-0.001,0c-0.017,0.012-0.032,0.021-0.049,0.031c-0.001,0-0.001,0-0.001,0
		c-0.001,0-0.001,0-0.002,0.002h-0.001c-0.001,0-0.001,0-0.001,0C46.146,66.238,45.945,66.295,45.737,66.295z M57.209,20.773
		l-9.354,40.323l31.499-34.74L57.209,20.773z M32.262,12.112l23.237,5.858l2.406-10.373L32.262,12.112z"/>
</g>
<g>
	<path fill="#E8E8E8" d="M47.69,90.25c-0.069,0-0.14-0.006-0.21-0.02l-34.722-6.439c-0.624-0.115-1.036-0.715-0.921-1.34
		c0.116-0.623,0.717-1.037,1.34-0.92l33.245,6.164l-1.82-22.307l-18.92-53.09c-0.214-0.598,0.099-1.256,0.697-1.469
		c0.598-0.213,1.255,0.099,1.469,0.697L46.819,64.76c0.033,0.094,0.055,0.191,0.062,0.293l1.955,23.953
		c0.028,0.357-0.11,0.707-0.376,0.947C48.248,90.145,47.973,90.25,47.69,90.25z"/>
</g>
<g>
	<path fill="#E8E8E8" d="M47.689,90.25c-0.183,0-0.367-0.043-0.54-0.135c-0.561-0.301-0.772-0.996-0.474-1.557l33.803-63.391
		c0.299-0.56,0.995-0.772,1.556-0.474c0.56,0.299,0.771,0.996,0.474,1.556L48.705,89.641C48.498,90.029,48.101,90.25,47.689,90.25z"
		/>
</g>
</svg>
