<?xml version="1.0" encoding="UTF-8" standalone="no"?>
<svg width="60px" height="60px" viewBox="0 0 60 60" version="1.1" xmlns="http://www.w3.org/2000/svg" xmlns:xlink="http://www.w3.org/1999/xlink" xmlns:sketch="http://www.bohemiancoding.com/sketch/ns">
    <title>Slice 1</title>
    <description>Created with Sketch (http://www.bohemiancoding.com/sketch)</description>
    <defs></defs>
    <g id="Page-1" stroke="none" stroke-width="1" fill="none" fill-rule="evenodd" sketch:type="MSPage">
        <g id="Oval-1-+-📖" sketch:type="MSLayerGroup">
            <path d="M30,60 C46.5685433,60 60,46.5685433 60,30 C60,13.4314567 46.5685433,0 30,0 C13.4314567,0 0,13.4314567 0,30 C0,46.5685433 13.4314567,60 30,60 Z" id="Oval-1" fill="#F3BA40" sketch:type="MSShapeGroup"></path>
            <path d="M44.096,16.3 C43.648,15.98 43.072,15.916 42.624,16.108 L30.4,21.036 L18.176,16.108 C17.728,15.916 17.152,15.98 16.704,16.3 C16.256,16.556 16,17.068 16,17.644 L16,38.124 C16,38.764 16.384,39.34 17.024,39.596 L29.76,44.716 C29.76,44.716 30.016,44.78 30.08,44.78 C30.208,44.78 30.272,44.844 30.4,44.844 C30.528,44.844 30.592,44.78 30.72,44.78 C30.784,44.78 31.04,44.716 31.04,44.716 L43.776,39.596 C44.416,39.34 44.8,38.764 44.8,38.124 L44.8,17.644 C44.8,17.068 44.544,16.556 44.096,16.3 Z M26.88,34.028 L20.48,31.468 L20.48,33.644 L26.88,36.204 L26.88,34.028 Z M26.88,27.372 L20.48,24.812 L20.48,26.988 L26.88,29.548 L26.88,27.372 Z M28.8,41.516 L18.56,37.42 L18.56,19.5 L28.8,23.596 L28.8,41.516 Z M42.24,37.42 L32,41.516 L32,23.596 L42.24,19.5 L42.24,37.42 Z M40.32,31.468 L33.92,34.028 L33.92,36.204 L40.32,33.644 L40.32,31.468 Z M40.32,24.812 L33.92,27.372 L33.92,29.548 L40.32,26.988 L40.32,24.812 Z" id="📖" fill="#FFFFFF" sketch:type="MSShapeGroup"></path>
        </g>
    </g>
</svg>